<svg xmlns="http://www.w3.org/2000/svg" xmlns:xlink="http://www.w3.org/1999/xlink" id="Layer_1" enable-background="new 0 0 100 100" viewBox="0 0 100 100"><defs id="defs140"><linearGradient id="linearGradient4293"><stop id="stop4295" offset="0" stop-color="#000092"/><stop id="stop4297" offset="1" stop-color="#ff00f3"/></linearGradient><linearGradient id="linearGradient4299" x1="24.5" x2="71" y1="50.5" y2="50.5" gradientUnits="userSpaceOnUse" xlink:href="#linearGradient4293"/></defs><symbol id="navbar_x5F_icon_x5F_back_1_" viewBox="-1 -24 25 24"><g id="g6" opacity=".9"><g id="g10"><g id="g12"><path id="path14" fill="none" stroke="#fff" stroke-miterlimit="10" stroke-width="2" d="M18-19c0-0.4,0-0.5-0.3-0.3l-12,7c-0.3,0.2-0.2,0.5,0.1,0.6l11.9,7C18-4.5,18-4.7,18-5V-19z"/></g></g></g><rect id="rect16" width="24" height="24" y="-24" fill="none"/><rect id="rect18" width="25" height="24" x="-1" y="-24" fill="none" display="none"/></symbol><symbol id="navbar_x5F_icon_x5F_home_1_" viewBox="0 -24 24 24"><g id="g21" opacity=".9"><g id="XMLID_809_"><circle id="XMLID_814_" cx="12" cy="-12" r="6.9" fill="none" stroke="#fff" stroke-miterlimit="10" stroke-width="1.803"/></g></g><rect id="rect26" width="24" height="24" y="-24" fill="none"/><rect id="rect28" width="24" height="23" y="-24" fill="none" display="none"/></symbol><symbol id="navbar_x5F_icon_x5F_recents_1_" viewBox="0 -24 24 24"><g id="g31" opacity=".9"><g id="g35"><g id="g37"><path id="path39" fill="none" stroke="#fff" stroke-miterlimit="10" stroke-width="2" d="M19-5.7C19-5.4,18.6-5,18.2-5H5.8C5.4-5,5-5.4,5-5.7v-12.6C5-18.6,5.4-19,5.8-19h12.4      c0.4,0,0.8,0.4,0.8,0.7V-5.7z"/></g></g></g><rect id="rect41" width="24" height="24" y="-24" fill="none"/><rect id="rect43" width="24" height="23" y="-24" fill="none" display="none"/></symbol><symbol id="sysbar_x5F_status_2" viewBox="0 -24 360 24"><use id="XMLID_495_" width="360" height="24" y="-24" overflow="visible" xlink:href="#sysbar_x5F_status_x5F_used_x5F_light"/></symbol><symbol id="sysbar_x5F_status_x5F_used_x5F_light" viewBox="0 -24 360 24"><rect id="rect48" width="360" height="24" y="-24" fill="#010101" fill-opacity="0"/><g id="g50"><g id="g52" opacity=".9"><rect id="rect54" width="40" height="16" x="312" y="-21" fill="none"/></g><g id="g58"><g id="g60" opacity=".9"><path id="path62" fill="#fff" d="M266-19l8.8,10.9C274.5-7.8,271.1-5,266-5s-8.5-2.8-8.8-3.1L266-19L266-19L266-19L266-19L266-19z" opacity=".9"/></g><rect id="rect64" width="16" height="16" x="258" y="-20" fill="none"/></g><g id="g66"><polygon id="polygon68" fill="#fff" points="277 -19 291 -19 291 -5" opacity=".9"/><rect id="rect70" width="16" height="16" x="276" y="-20" fill="none"/></g><g id="g72"><rect id="rect74" width="16" height="16" x="296" y="-20" fill="none"/><path id="path76" fill="#fff" d="M306-6v1h-3v-1h-3v-13h9v13H306z" opacity=".9"/></g></g></symbol><path id="path98" fill="url(#linearGradient4299)" d="M 30 18.5 C 29.7 18.5 29.5 18.7 29.5 19 L 29.5 20.699219 L 29 21 C 28.1 21.6 27.5 22.599219 27.5 23.699219 L 27.5 27 L 27 27 C 26.7 27 26.5 27.2 26.5 27.5 L 26.5 30.5 C 26.5 30.8 26.7 31 27 31 L 27.5 31 L 27.5 34.5 L 26 34.5 C 25.7 34.5 25.5 34.7 25.5 35 L 25.5 39 C 25.5 39.3 25.7 39.5 26 39.5 L 27.5 39.5 L 27.5 46.5 L 25 46.5 C 24.7 46.5 24.5 46.7 24.5 47 L 24.5 59 C 24.5 59.3 24.7 59.5 25 59.5 L 26.5 59.5 L 26.5 81.5 L 25 81.5 C 24.7 81.5 24.5 81.7 24.5 82 C 24.5 82.3 24.7 82.5 25 82.5 L 27 82.5 L 33 82.5 L 39 82.5 L 61 82.5 L 67 82.5 L 73 82.5 L 75 82.5 C 75.3 82.5 75.5 82.3 75.5 82 C 75.5 81.7 75.3 81.5 75 81.5 L 73.5 81.5 L 73.5 59.5 L 75 59.5 C 75.3 59.5 75.5 59.3 75.5 59 L 75.5 47 C 75.5 46.7 75.3 46.5 75 46.5 L 72.5 46.5 L 72.5 39.5 L 74 39.5 C 74.3 39.5 74.5 39.3 74.5 39 L 74.5 35 C 74.5 34.7 74.3 34.5 74 34.5 L 72.5 34.5 L 72.5 31 L 73 31 C 73.3 31 73.5 30.8 73.5 30.5 L 73.5 27.5 C 73.5 27.2 73.3 27 73 27 L 72.5 27 L 72.5 23.699219 C 72.5 22.599219 72 21.6 71 21 L 70.5 20.699219 L 70.5 19 C 70.5 18.7 70.3 18.5 70 18.5 C 69.7 18.5 69.5 18.7 69.5 19 L 69.5 20.699219 L 69 21 C 68.1 21.6 67.5 22.599219 67.5 23.699219 L 67.5 27 L 67 27 C 66.7 27 66.5 27.2 66.5 27.5 L 66.5 30.5 C 66.5 30.8 66.7 31 67 31 L 67.5 31 L 67.5 34.5 L 66 34.5 C 65.7 34.5 65.5 34.7 65.5 35 L 65.5 39 C 65.5 39.3 65.7 39.5 66 39.5 L 67.5 39.5 L 67.5 40.5 L 32.5 40.5 L 32.5 39.5 L 34 39.5 C 34.3 39.5 34.5 39.3 34.5 39 L 34.5 35 C 34.5 34.7 34.3 34.5 34 34.5 L 32.5 34.5 L 32.5 31 L 33 31 C 33.3 31 33.5 30.8 33.5 30.5 L 33.5 27.5 C 33.5 27.2 33.3 27 33 27 L 32.5 27 L 32.5 23.699219 C 32.5 22.599219 32 21.6 31 21 L 30.5 20.699219 L 30.5 19 C 30.5 18.7 30.3 18.5 30 18.5 z M 30 21.599609 L 30.5 21.900391 C 31.1 22.300391 31.4 22.9 31.5 23.5 L 28.5 23.5 C 28.6 22.8 28.9 22.200391 29.5 21.900391 L 30 21.599609 z M 70 21.599609 L 70.5 21.900391 C 71.1 22.300391 71.4 22.9 71.5 23.5 L 68.5 23.5 C 68.6 22.8 68.9 22.200391 69.5 21.900391 L 70 21.599609 z M 28.5 24.5 L 31.5 24.5 L 31.5 27 L 30.5 27 L 30.5 26 C 30.5 25.7 30.3 25.5 30 25.5 C 29.7 25.5 29.5 25.7 29.5 26 L 29.5 27 L 28.5 27 L 28.5 24.5 z M 68.5 24.5 L 71.5 24.5 L 71.5 27 L 70.5 27 L 70.5 26 C 70.5 25.7 70.3 25.5 70 25.5 C 69.7 25.5 69.5 25.7 69.5 26 L 69.5 27 L 68.5 27 L 68.5 24.5 z M 27.5 28 L 32.5 28 L 32.5 30 L 32 30 L 31.5 30 L 31.5 29.5 C 31.5 29.2 31.3 29 31 29 C 30.7 29 30.5 29.2 30.5 29.5 L 30.5 30 L 29.5 30 L 29.5 29.5 C 29.5 29.2 29.3 29 29 29 C 28.7 29 28.5 29.2 28.5 29.5 L 28.5 30 L 28 30 L 27.5 30 L 27.5 28 z M 67.5 28 L 72.5 28 L 72.5 30 L 72 30 L 71.5 30 L 71.5 29.5 C 71.5 29.2 71.3 29 71 29 C 70.7 29 70.5 29.2 70.5 29.5 L 70.5 30 L 69.5 30 L 69.5 29.5 C 69.5 29.2 69.3 29 69 29 C 68.7 29 68.5 29.2 68.5 29.5 L 68.5 30 L 68 30 L 67.5 30 L 67.5 28 z M 28.5 31 L 31.5 31 L 31.5 34.5 L 28.5 34.5 L 28.5 31 z M 68.5 31 L 71.5 31 L 71.5 34.5 L 68.5 34.5 L 68.5 31 z M 26.5 35.5 L 28 35.5 L 32 35.5 L 33.5 35.5 L 33.5 38.5 L 32.5 38.5 L 32.5 37 C 32.5 36.7 32.3 36.5 32 36.5 C 31.7 36.5 31.5 36.7 31.5 37 L 31.5 38.5 L 30.5 38.5 L 30.5 38 L 30.5 37 C 30.5 36.7 30.3 36.5 30 36.5 C 29.7 36.5 29.5 36.7 29.5 37 L 29.5 38 L 29.5 38.5 L 28.5 38.5 L 28.5 37 C 28.5 36.7 28.3 36.5 28 36.5 C 27.7 36.5 27.5 36.7 27.5 37 L 27.5 38.5 L 26.5 38.5 L 26.5 35.5 z M 66.5 35.5 L 68 35.5 L 72 35.5 L 73.5 35.5 L 73.5 38.5 L 72.5 38.5 L 72.5 37 C 72.5 36.7 72.3 36.5 72 36.5 C 71.7 36.5 71.5 36.7 71.5 37 L 71.5 38.5 L 70.5 38.5 L 70.5 37 C 70.5 36.7 70.3 36.5 70 36.5 C 69.7 36.5 69.5 36.7 69.5 37 L 69.5 38.5 L 68.5 38.5 L 68.5 37 C 68.5 36.7 68.3 36.5 68 36.5 C 67.7 36.5 67.5 36.7 67.5 37 L 67.5 38.5 L 66.5 38.5 L 66.5 35.5 z M 28.5 39.5 L 31.5 39.5 L 31.5 41 L 31.5 43 L 31.5 46.5 L 28.5 46.5 L 28.5 39.5 z M 68.5 39.5 L 71.5 39.5 L 71.5 46.5 L 68.5 46.5 L 68.5 39.5 z M 32.5 41.5 L 67.5 41.5 L 67.5 42.5 L 32.5 42.5 L 32.5 41.5 z M 32.5 43.5 L 67.5 43.5 L 67.5 46.5 L 65.5 46.5 L 65.5 46 C 65.5 45.2 64.8 44.5 64 44.5 C 63.2 44.5 62.5 45.2 62.5 46 L 62.5 46.5 L 61.5 46.5 L 61.5 46 C 61.5 45.2 60.8 44.5 60 44.5 C 59.2 44.5 58.5 45.2 58.5 46 L 58.5 46.5 L 57.5 46.5 L 57.5 46 C 57.5 45.2 56.8 44.5 56 44.5 C 55.2 44.5 54.5 45.2 54.5 46 L 54.5 46.5 L 53.5 46.5 L 53.5 46 C 53.5 45.2 52.8 44.5 52 44.5 C 51.2 44.5 50.5 45.2 50.5 46 L 50.5 46.5 L 49.5 46.5 L 49.5 46 C 49.5 45.2 48.8 44.5 48 44.5 C 47.2 44.5 46.5 45.2 46.5 46 L 46.5 46.5 L 45.5 46.5 L 45.5 46 C 45.5 45.2 44.8 44.5 44 44.5 C 43.2 44.5 42.5 45.2 42.5 46 L 42.5 46.5 L 41.5 46.5 L 41.5 46 C 41.5 45.2 40.8 44.5 40 44.5 C 39.2 44.5 38.5 45.2 38.5 46 L 38.5 46.5 L 37.5 46.5 L 37.5 46 C 37.5 45.2 36.8 44.5 36 44.5 C 35.2 44.5 34.5 45.2 34.5 46 L 34.5 46.5 L 32.5 46.5 L 32.5 43.5 z M 36 45.5 C 36.3 45.5 36.5 45.7 36.5 46 L 36.5 46.5 L 35.5 46.5 L 35.5 46 C 35.5 45.7 35.7 45.5 36 45.5 z M 40 45.5 C 40.3 45.5 40.5 45.7 40.5 46 L 40.5 46.5 L 39.5 46.5 L 39.5 46 C 39.5 45.7 39.7 45.5 40 45.5 z M 44 45.5 C 44.3 45.5 44.5 45.7 44.5 46 L 44.5 46.5 L 43.5 46.5 L 43.5 46 C 43.5 45.7 43.7 45.5 44 45.5 z M 48 45.5 C 48.3 45.5 48.5 45.7 48.5 46 L 48.5 46.5 L 47.5 46.5 L 47.5 46 C 47.5 45.7 47.7 45.5 48 45.5 z M 52 45.5 C 52.3 45.5 52.5 45.7 52.5 46 L 52.5 46.5 L 51.5 46.5 L 51.5 46 C 51.5 45.7 51.7 45.5 52 45.5 z M 56 45.5 C 56.3 45.5 56.5 45.7 56.5 46 L 56.5 46.5 L 55.5 46.5 L 55.5 46 C 55.5 45.7 55.7 45.5 56 45.5 z M 60 45.5 C 60.3 45.5 60.5 45.7 60.5 46 L 60.5 46.5 L 59.5 46.5 L 59.5 46 C 59.5 45.7 59.7 45.5 60 45.5 z M 64 45.5 C 64.3 45.5 64.5 45.7 64.5 46 L 64.5 46.5 L 63.5 46.5 L 63.5 46 C 63.5 45.7 63.7 45.5 64 45.5 z M 25.5 47.5 L 28 47.5 L 32 47.5 L 34.5 47.5 L 34.5 58.5 L 33 58.5 L 27 58.5 L 25.5 58.5 L 25.5 47.5 z M 35.5 47.5 L 36.5 47.5 L 36.5 48 C 36.5 48.3 36.7 48.5 37 48.5 C 37.3 48.5 37.5 48.3 37.5 48 L 37.5 47.5 L 38.5 47.5 L 38.5 48 C 38.5 48.3 38.7 48.5 39 48.5 C 39.3 48.5 39.5 48.3 39.5 48 L 39.5 47.5 L 40.5 47.5 L 40.5 48 C 40.5 48.3 40.7 48.5 41 48.5 C 41.3 48.5 41.5 48.3 41.5 48 L 41.5 47.5 L 42.5 47.5 L 42.5 48 C 42.5 48.3 42.7 48.5 43 48.5 C 43.3 48.5 43.5 48.3 43.5 48 L 43.5 47.5 L 44.5 47.5 L 44.5 48 C 44.5 48.3 44.7 48.5 45 48.5 C 45.3 48.5 45.5 48.3 45.5 48 L 45.5 47.5 L 46.5 47.5 L 46.5 48 C 46.5 48.3 46.7 48.5 47 48.5 C 47.3 48.5 47.5 48.3 47.5 48 L 47.5 47.5 L 48.5 47.5 L 48.5 48 C 48.5 48.3 48.7 48.5 49 48.5 C 49.3 48.5 49.5 48.3 49.5 48 L 49.5 47.5 L 50.5 47.5 L 50.5 48 C 50.5 48.3 50.7 48.5 51 48.5 C 51.3 48.5 51.5 48.3 51.5 48 L 51.5 47.5 L 52.5 47.5 L 52.5 48 C 52.5 48.3 52.7 48.5 53 48.5 C 53.3 48.5 53.5 48.3 53.5 48 L 53.5 47.5 L 54.5 47.5 L 54.5 48 C 54.5 48.3 54.7 48.5 55 48.5 C 55.3 48.5 55.5 48.3 55.5 48 L 55.5 47.5 L 56.5 47.5 L 56.5 48 C 56.5 48.3 56.7 48.5 57 48.5 C 57.3 48.5 57.5 48.3 57.5 48 L 57.5 47.5 L 58.5 47.5 L 58.5 48 C 58.5 48.3 58.7 48.5 59 48.5 C 59.3 48.5 59.5 48.3 59.5 48 L 59.5 47.5 L 60.5 47.5 L 60.5 48 C 60.5 48.3 60.7 48.5 61 48.5 C 61.3 48.5 61.5 48.3 61.5 48 L 61.5 47.5 L 62.5 47.5 L 62.5 48 C 62.5 48.3 62.7 48.5 63 48.5 C 63.3 48.5 63.5 48.3 63.5 48 L 63.5 47.5 L 64.5 47.5 L 64.5 58.5 L 63.5 58.5 L 63.5 54 C 63.5 51.4 61.299219 50.6 61.199219 50.5 L 60.900391 50.5 C 60.800391 50.5 58.5 51.4 58.5 54 L 58.5 58.5 L 57.5 58.5 L 57.5 54 C 57.5 51.4 55.299219 50.6 55.199219 50.5 L 54.900391 50.5 C 54.800391 50.5 52.5 51.4 52.5 54 L 52.5 58.5 L 47.5 58.5 L 47.5 54 C 47.5 51.4 45.299219 50.6 45.199219 50.5 L 44.900391 50.5 C 44.800391 50.5 42.5 51.4 42.5 54 L 42.5 58.5 L 41.5 58.5 L 41.5 54 C 41.5 51.4 39.299219 50.6 39.199219 50.5 L 38.900391 50.5 C 38.800391 50.5 36.5 51.4 36.5 54 L 36.5 58.5 L 35.5 58.5 L 35.5 47.5 z M 65.5 47.5 L 68 47.5 L 72 47.5 L 74.5 47.5 L 74.5 58.5 L 73 58.5 L 67 58.5 L 65.5 58.5 L 65.5 47.5 z M 28 48.5 C 27.2 48.5 26.5 49.2 26.5 50 L 26.5 52 C 26.5 52.3 26.7 52.5 27 52.5 L 29 52.5 C 29.3 52.5 29.5 52.3 29.5 52 L 29.5 50 C 29.5 49.2 28.8 48.5 28 48.5 z M 32 48.5 C 31.2 48.5 30.5 49.2 30.5 50 L 30.5 52 C 30.5 52.3 30.7 52.5 31 52.5 L 33 52.5 C 33.3 52.5 33.5 52.3 33.5 52 L 33.5 50 C 33.5 49.2 32.8 48.5 32 48.5 z M 68 48.5 C 67.2 48.5 66.5 49.2 66.5 50 L 66.5 52 C 66.5 52.3 66.7 52.5 67 52.5 L 69 52.5 C 69.3 52.5 69.5 52.3 69.5 52 L 69.5 50 C 69.5 49.2 68.8 48.5 68 48.5 z M 72 48.5 C 71.2 48.5 70.5 49.2 70.5 50 L 70.5 52 C 70.5 52.3 70.7 52.5 71 52.5 L 73 52.5 C 73.3 52.5 73.5 52.3 73.5 52 L 73.5 50 C 73.5 49.2 72.8 48.5 72 48.5 z M 28 49.5 C 28.3 49.5 28.5 49.7 28.5 50 L 28.5 51.5 L 27.5 51.5 L 27.5 50 C 27.5 49.7 27.7 49.5 28 49.5 z M 32 49.5 C 32.3 49.5 32.5 49.7 32.5 50 L 32.5 51.5 L 31.5 51.5 L 31.5 50 C 31.5 49.7 31.7 49.5 32 49.5 z M 68 49.5 C 68.3 49.5 68.5 49.7 68.5 50 L 68.5 51.5 L 67.5 51.5 L 67.5 50 C 67.5 49.7 67.7 49.5 68 49.5 z M 72 49.5 C 72.3 49.5 72.5 49.7 72.5 50 L 72.5 51.5 L 71.5 51.5 L 71.5 50 C 71.5 49.7 71.7 49.5 72 49.5 z M 39 51.5 C 39.4 51.7 40.5 52.4 40.5 54 L 40.5 58.5 L 39 58.5 L 37.5 58.5 L 37.5 54 C 37.5 52.5 38.6 51.8 39 51.5 z M 45 51.5 C 45.4 51.7 46.5 52.4 46.5 54 L 46.5 58.5 L 43.5 58.5 L 43.5 54 C 43.5 52.5 44.6 51.8 45 51.5 z M 50 51.5 C 49.2 51.5 48.5 52.2 48.5 53 C 48.5 53.8 49.2 54.5 50 54.5 C 50.8 54.5 51.5 53.8 51.5 53 C 51.5 52.2 50.8 51.5 50 51.5 z M 55 51.5 C 55.4 51.7 56.5 52.4 56.5 54 L 56.5 58.5 L 53.5 58.5 L 53.5 54 C 53.5 52.5 54.6 51.8 55 51.5 z M 61 51.5 C 61.4 51.7 62.5 52.4 62.5 54 L 62.5 58.5 L 61 58.5 L 59.5 58.5 L 59.5 54 C 59.5 52.5 60.6 51.8 61 51.5 z M 50 52.5 C 50.3 52.5 50.5 52.7 50.5 53 C 50.5 53.3 50.3 53.5 50 53.5 C 49.7 53.5 49.5 53.3 49.5 53 C 49.5 52.7 49.7 52.5 50 52.5 z M 28 53.5 C 27.2 53.5 26.5 54.2 26.5 55 L 26.5 57 C 26.5 57.3 26.7 57.5 27 57.5 L 29 57.5 C 29.3 57.5 29.5 57.3 29.5 57 L 29.5 55 C 29.5 54.2 28.8 53.5 28 53.5 z M 32 53.5 C 31.2 53.5 30.5 54.2 30.5 55 L 30.5 57 C 30.5 57.3 30.7 57.5 31 57.5 L 33 57.5 C 33.3 57.5 33.5 57.3 33.5 57 L 33.5 55 C 33.5 54.2 32.8 53.5 32 53.5 z M 68 53.5 C 67.2 53.5 66.5 54.2 66.5 55 L 66.5 57 C 66.5 57.3 66.7 57.5 67 57.5 L 69 57.5 C 69.3 57.5 69.5 57.3 69.5 57 L 69.5 55 C 69.5 54.2 68.8 53.5 68 53.5 z M 72 53.5 C 71.2 53.5 70.5 54.2 70.5 55 L 70.5 57 C 70.5 57.3 70.7 57.5 71 57.5 L 73 57.5 C 73.3 57.5 73.5 57.3 73.5 57 L 73.5 55 C 73.5 54.2 72.8 53.5 72 53.5 z M 28 54.5 C 28.3 54.5 28.5 54.7 28.5 55 L 28.5 56.5 L 27.5 56.5 L 27.5 55 C 27.5 54.7 27.7 54.5 28 54.5 z M 32 54.5 C 32.3 54.5 32.5 54.7 32.5 55 L 32.5 56.5 L 31.5 56.5 L 31.5 55 C 31.5 54.7 31.7 54.5 32 54.5 z M 68 54.5 C 68.3 54.5 68.5 54.7 68.5 55 L 68.5 56.5 L 67.5 56.5 L 67.5 55 C 67.5 54.7 67.7 54.5 68 54.5 z M 72 54.5 C 72.3 54.5 72.5 54.7 72.5 55 L 72.5 56.5 L 71.5 56.5 L 71.5 55 C 71.5 54.7 71.7 54.5 72 54.5 z M 27.5 59.5 L 32.5 59.5 L 32.5 81.5 L 27.5 81.5 L 27.5 59.5 z M 33.5 59.5 L 34.5 59.5 L 34.5 60 C 34.5 60.3 34.7 60.5 35 60.5 C 35.3 60.5 35.5 60.3 35.5 60 L 35.5 59.5 L 36.5 59.5 L 36.5 60 C 36.5 60.3 36.7 60.5 37 60.5 C 37.3 60.5 37.5 60.3 37.5 60 L 37.5 59.5 L 38.5 59.5 L 38.5 81.5 L 33.5 81.5 L 33.5 59.5 z M 39.400391 59.5 L 39.5 59.5 L 40.5 59.5 L 40.5 60 C 40.5 60.3 40.7 60.5 41 60.5 C 41.3 60.5 41.5 60.3 41.5 60 L 41.5 59.5 L 42.5 59.5 L 42.5 60 C 42.5 60.3 42.7 60.5 43 60.5 C 43.3 60.5 43.5 60.3 43.5 60 L 43.5 59.5 L 44.5 59.5 L 44.5 60 C 44.5 60.3 44.7 60.5 45 60.5 C 45.3 60.5 45.5 60.3 45.5 60 L 45.5 59.5 L 46.5 59.5 L 46.5 60 C 46.5 60.3 46.7 60.5 47 60.5 C 47.3 60.5 47.5 60.3 47.5 60 L 47.5 59.5 L 48.5 59.5 L 48.5 60 C 48.5 60.3 48.7 60.5 49 60.5 C 49.3 60.5 49.5 60.3 49.5 60 L 49.5 59.5 L 50.5 59.5 L 50.5 60 C 50.5 60.3 50.7 60.5 51 60.5 C 51.3 60.5 51.5 60.3 51.5 60 L 51.5 59.5 L 52.5 59.5 L 52.5 60 C 52.5 60.3 52.7 60.5 53 60.5 C 53.3 60.5 53.5 60.3 53.5 60 L 53.5 59.5 L 54.5 59.5 L 54.5 60 C 54.5 60.3 54.7 60.5 55 60.5 C 55.3 60.5 55.5 60.3 55.5 60 L 55.5 59.5 L 56.5 59.5 L 56.5 60 C 56.5 60.3 56.7 60.5 57 60.5 C 57.3 60.5 57.5 60.3 57.5 60 L 57.5 59.5 L 58.5 59.5 L 58.5 60 C 58.5 60.3 58.7 60.5 59 60.5 C 59.3 60.5 59.5 60.3 59.5 60 L 59.5 59.5 L 60.5 59.5 L 60.5 81.5 L 58.5 81.5 L 58.5 71.599609 C 58.5 68.199609 56.600781 65.100781 53.300781 63.300781 L 50.199219 61.599609 C 49.999219 61.499609 49.899219 61.499609 49.699219 61.599609 L 46.599609 63.300781 C 43.399609 65.100781 41.400391 68.199609 41.400391 71.599609 L 41.400391 81.5 L 39.400391 81.5 L 39.400391 59.5 z M 61.5 59.5 L 62.5 59.5 L 62.5 60 C 62.5 60.3 62.7 60.5 63 60.5 C 63.3 60.5 63.5 60.3 63.5 60 L 63.5 59.5 L 64.5 59.5 L 64.5 60 C 64.5 60.3 64.7 60.5 65 60.5 C 65.3 60.5 65.5 60.3 65.5 60 L 65.5 59.5 L 66.5 59.5 L 66.5 81.5 L 61.5 81.5 L 61.5 59.5 z M 67.5 59.5 L 72.5 59.5 L 72.5 81.5 L 67.5 81.5 L 67.5 59.5 z M 36 61.5 C 35.2 61.5 34.5 62.2 34.5 63 L 34.5 65 C 34.5 65.3 34.7 65.5 35 65.5 L 37 65.5 C 37.3 65.5 37.5 65.3 37.5 65 L 37.5 63 C 37.5 62.2 36.8 61.5 36 61.5 z M 42 61.5 C 41.2 61.5 40.5 62.2 40.5 63 C 40.5 63.8 41.2 64.5 42 64.5 C 42.8 64.5 43.5 63.8 43.5 63 C 43.5 62.2 42.8 61.5 42 61.5 z M 58 61.5 C 57.2 61.5 56.5 62.2 56.5 63 C 56.5 63.8 57.2 64.5 58 64.5 C 58.8 64.5 59.5 63.8 59.5 63 C 59.5 62.2 58.8 61.5 58 61.5 z M 64 61.5 C 63.2 61.5 62.5 62.2 62.5 63 L 62.5 65 C 62.5 65.3 62.7 65.5 63 65.5 L 65 65.5 C 65.3 65.5 65.5 65.3 65.5 65 L 65.5 63 C 65.5 62.2 64.8 61.5 64 61.5 z M 36 62.5 C 36.3 62.5 36.5 62.7 36.5 63 L 36.5 64.5 L 35.5 64.5 L 35.5 63 C 35.5 62.7 35.7 62.5 36 62.5 z M 42 62.5 C 42.3 62.5 42.5 62.7 42.5 63 C 42.5 63.3 42.3 63.5 42 63.5 C 41.7 63.5 41.5 63.3 41.5 63 C 41.5 62.7 41.7 62.5 42 62.5 z M 58 62.5 C 58.3 62.5 58.5 62.7 58.5 63 C 58.5 63.3 58.3 63.5 58 63.5 C 57.7 63.5 57.5 63.3 57.5 63 C 57.5 62.7 57.7 62.5 58 62.5 z M 64 62.5 C 64.3 62.5 64.5 62.7 64.5 63 L 64.5 64.5 L 63.5 64.5 L 63.5 63 C 63.5 62.7 63.7 62.5 64 62.5 z M 50 62.599609 L 52.800781 64.199219 C 55.700781 65.799219 57.5 68.599609 57.5 71.599609 L 57.5 81.5 L 42.5 81.5 L 42.5 71.599609 C 42.5 68.599609 44.199609 65.799219 47.099609 64.199219 L 50 62.599609 z M 36 66.5 C 35.2 66.5 34.5 67.2 34.5 68 L 34.5 70 C 34.5 70.3 34.7 70.5 35 70.5 L 37 70.5 C 37.3 70.5 37.5 70.3 37.5 70 L 37.5 68 C 37.5 67.2 36.8 66.5 36 66.5 z M 64 66.5 C 63.2 66.5 62.5 67.2 62.5 68 L 62.5 70 C 62.5 70.3 62.7 70.5 63 70.5 L 65 70.5 C 65.3 70.5 65.5 70.3 65.5 70 L 65.5 68 C 65.5 67.2 64.8 66.5 64 66.5 z M 36 67.5 C 36.3 67.5 36.5 67.7 36.5 68 L 36.5 69.5 L 35.5 69.5 L 35.5 68 C 35.5 67.7 35.7 67.5 36 67.5 z M 64 67.5 C 64.3 67.5 64.5 67.7 64.5 68 L 64.5 69.5 L 63.5 69.5 L 63.5 68 C 63.5 67.7 63.7 67.5 64 67.5 z M 36 71.5 C 35.2 71.5 34.5 72.2 34.5 73 L 34.5 75 C 34.5 75.3 34.7 75.5 35 75.5 L 37 75.5 C 37.3 75.5 37.5 75.3 37.5 75 L 37.5 73 C 37.5 72.2 36.8 71.5 36 71.5 z M 64 71.5 C 63.2 71.5 62.5 72.2 62.5 73 L 62.5 75 C 62.5 75.3 62.7 75.5 63 75.5 L 65 75.5 C 65.3 75.5 65.5 75.3 65.5 75 L 65.5 73 C 65.5 72.2 64.8 71.5 64 71.5 z M 36 72.5 C 36.3 72.5 36.5 72.7 36.5 73 L 36.5 74.5 L 35.5 74.5 L 35.5 73 C 35.5 72.7 35.7 72.5 36 72.5 z M 64 72.5 C 64.3 72.5 64.5 72.7 64.5 73 L 64.5 74.5 L 63.5 74.5 L 63.5 73 C 63.5 72.7 63.7 72.5 64 72.5 z M 36 76.5 C 35.2 76.5 34.5 77.2 34.5 78 L 34.5 80 C 34.5 80.3 34.7 80.5 35 80.5 L 37 80.5 C 37.3 80.5 37.5 80.3 37.5 80 L 37.5 78 C 37.5 77.2 36.8 76.5 36 76.5 z M 64 76.5 C 63.2 76.5 62.5 77.2 62.5 78 L 62.5 80 C 62.5 80.3 62.7 80.5 63 80.5 L 65 80.5 C 65.3 80.5 65.5 80.3 65.5 80 L 65.5 78 C 65.5 77.2 64.8 76.5 64 76.5 z M 36 77.5 C 36.3 77.5 36.5 77.7 36.5 78 L 36.5 79.5 L 35.5 79.5 L 35.5 78 C 35.5 77.7 35.7 77.5 36 77.5 z M 64 77.5 C 64.3 77.5 64.5 77.7 64.5 78 L 64.5 79.5 L 63.5 79.5 L 63.5 78 C 63.5 77.7 63.7 77.5 64 77.5 z "/></svg>