<svg xmlns="http://www.w3.org/2000/svg" xmlns:xlink="http://www.w3.org/1999/xlink" id="Layer_1" enable-background="new 0 0 100 100" viewBox="0 0 100 100"><defs id="defs100"><linearGradient id="linearGradient4231"><stop id="stop4233" offset="0" stop-color="#000092"/><stop id="stop4235" offset="1" stop-color="#ff00f3"/></linearGradient><linearGradient id="linearGradient4237" x1="18.5" x2="76.933" y1="58" y2="58" gradientUnits="userSpaceOnUse" xlink:href="#linearGradient4231"/></defs><symbol id="navbar_x5F_icon_x5F_back_1_" viewBox="-1 -24 25 24"><g id="g6" opacity=".9"><g id="g10"><g id="g12"><path id="path14" fill="none" stroke="#fff" stroke-miterlimit="10" stroke-width="2" d="M18-19c0-0.4,0-0.5-0.3-0.3l-12,7c-0.3,0.2-0.2,0.5,0.1,0.6l11.9,7C18-4.5,18-4.7,18-5V-19z"/></g></g></g><rect id="rect16" width="24" height="24" y="-24" fill="none"/><rect id="rect18" width="25" height="24" x="-1" y="-24" fill="none" display="none"/></symbol><symbol id="navbar_x5F_icon_x5F_home_1_" viewBox="0 -24 24 24"><g id="g21" opacity=".9"><g id="XMLID_809_"><circle id="XMLID_814_" cx="12" cy="-12" r="6.9" fill="none" stroke="#fff" stroke-miterlimit="10" stroke-width="1.803"/></g></g><rect id="rect26" width="24" height="24" y="-24" fill="none"/><rect id="rect28" width="24" height="23" y="-24" fill="none" display="none"/></symbol><symbol id="navbar_x5F_icon_x5F_recents_1_" viewBox="0 -24 24 24"><g id="g31" opacity=".9"><g id="g35"><g id="g37"><path id="path39" fill="none" stroke="#fff" stroke-miterlimit="10" stroke-width="2" d="M19-5.7C19-5.4,18.6-5,18.2-5H5.8C5.4-5,5-5.4,5-5.7v-12.6C5-18.6,5.4-19,5.8-19h12.4      c0.4,0,0.8,0.4,0.8,0.7V-5.7z"/></g></g></g><rect id="rect41" width="24" height="24" y="-24" fill="none"/><rect id="rect43" width="24" height="23" y="-24" fill="none" display="none"/></symbol><symbol id="sysbar_x5F_status_2" viewBox="0 -24 360 24"><use id="XMLID_495_" width="360" height="24" y="-24" overflow="visible" xlink:href="#sysbar_x5F_status_x5F_used_x5F_light"/></symbol><symbol id="sysbar_x5F_status_x5F_used_x5F_light" viewBox="0 -24 360 24"><rect id="rect48" width="360" height="24" y="-24" fill="#010101" fill-opacity="0"/><g id="g50"><g id="g52" opacity=".9"><rect id="rect54" width="40" height="16" x="312" y="-21" fill="none"/></g><g id="g58"><g id="g60" opacity=".9"><path id="path62" fill="#fff" d="M266-19l8.8,10.9C274.5-7.8,271.1-5,266-5s-8.5-2.8-8.8-3.1L266-19L266-19L266-19L266-19L266-19z" opacity=".9"/></g><rect id="rect64" width="16" height="16" x="258" y="-20" fill="none"/></g><g id="g66"><polygon id="polygon68" fill="#fff" points="277 -19 291 -19 291 -5" opacity=".9"/><rect id="rect70" width="16" height="16" x="276" y="-20" fill="none"/></g><g id="g72"><rect id="rect74" width="16" height="16" x="296" y="-20" fill="none"/><path id="path76" fill="#fff" d="M306-6v1h-3v-1h-3v-13h9v13H306z" opacity=".9"/></g></g></symbol><path id="path96" fill="url(#linearGradient4237)" d="M 38.5 33.5 C 38.2 33.5 38 33.7 38 34 L 38 35.599609 C 37.1 35.799609 36.5 36.6 36.5 37.5 L 36.5 39 L 36.5 39.5 L 36.5 44.5 L 36 44.5 C 35.7 44.5 35.5 44.7 35.5 45 L 35.5 48.5 L 21 48.5 C 20.7 48.5 20.5 48.7 20.5 49 L 20.5 52 C 20.5 52.3 20.7 52.5 21 52.5 L 21.5 52.5 L 21.5 56.5 L 19 56.5 C 18.8 56.5 18.699609 56.599219 18.599609 56.699219 C 18.499609 56.799219 18.5 56.999219 18.5 57.199219 L 19.5 60.199219 C 19.6 60.399219 19.8 60.5 20 60.5 L 21.5 60.5 L 21.5 81.5 L 19 81.5 C 18.7 81.5 18.5 81.7 18.5 82 C 18.5 82.3 18.7 82.5 19 82.5 L 22 82.5 L 27.5 82.5 L 31.5 82.5 L 36 82.5 L 41 82.5 L 59 82.5 L 64 82.5 L 68.5 82.5 L 72.5 82.5 L 78 82.5 L 81 82.5 C 81.3 82.5 81.5 82.3 81.5 82 C 81.5 81.7 81.3 81.5 81 81.5 L 78.5 81.5 L 78.5 60.5 L 80 60.5 C 80.2 60.5 80.4 60.399219 80.5 60.199219 L 81.5 57.199219 C 81.6 56.999219 81.500391 56.899219 81.400391 56.699219 C 81.300391 56.599219 81.2 56.5 81 56.5 L 78.5 56.5 L 78.5 52.5 L 79 52.5 C 79.3 52.5 79.5 52.3 79.5 52 L 79.5 49 C 79.5 48.7 79.3 48.5 79 48.5 L 64.5 48.5 L 64.5 45 C 64.5 44.7 64.3 44.5 64 44.5 L 63.5 44.5 L 63.5 39.5 L 63.5 39 L 63.5 37.5 C 63.5 36.6 62.9 35.799609 62 35.599609 L 62 34 C 62 33.7 61.8 33.5 61.5 33.5 C 61.2 33.5 61 33.7 61 34 L 61 35.599609 C 60.1 35.799609 59.5 36.6 59.5 37.5 L 59.5 39 L 59.5 39.5 L 59.5 41.5 L 40.5 41.5 L 40.5 39.5 L 40.5 39 L 40.5 37.5 C 40.5 36.6 39.9 35.799609 39 35.599609 L 39 34 C 39 33.7 38.8 33.5 38.5 33.5 z M 38.5 36.5 C 39.1 36.5 39.5 36.9 39.5 37.5 L 39.5 38.5 L 37.5 38.5 L 37.5 37.5 C 37.5 36.9 37.9 36.5 38.5 36.5 z M 61.5 36.5 C 62.1 36.5 62.5 36.9 62.5 37.5 L 62.5 38.5 L 60.5 38.5 L 60.5 37.5 C 60.5 36.9 60.9 36.5 61.5 36.5 z M 37.5 39.5 L 39.5 39.5 L 39.5 44.5 L 37.5 44.5 L 37.5 39.5 z M 60.5 39.5 L 62.5 39.5 L 62.5 44.5 L 60.5 44.5 L 60.5 39.5 z M 40.5 42.5 L 59.5 42.5 L 59.5 44.5 L 59.300781 44.5 L 59 44.5 L 41 44.5 L 40.5 44.5 L 40.5 42.5 z M 36.5 45.5 L 37 45.5 L 40 45.5 L 40.5 45.5 L 40.5 51.5 L 36.5 51.5 L 36.5 49 L 36.5 45.5 z M 41.5 45.5 L 58.5 45.5 L 58.5 51.5 L 41.5 51.5 L 41.5 45.5 z M 59.5 45.5 L 60 45.5 L 63 45.5 L 63.5 45.5 L 63.5 51.5 L 59.5 51.5 L 59.5 45.5 z M 21.5 49.5 L 35.5 49.5 L 35.5 51.5 L 22 51.5 L 21.5 51.5 L 21.5 49.5 z M 64.5 49.5 L 78.5 49.5 L 78.5 51.5 L 78 51.5 L 64.5 51.5 L 64.5 49.5 z M 22.5 52.5 L 35.5 52.5 L 35.5 56.5 L 22.5 56.5 L 22.5 52.5 z M 36.5 52.5 L 40.5 52.5 L 40.5 56.5 L 36.5 56.5 L 36.5 52.5 z M 41.5 52.5 L 43.5 52.5 L 43.5 56.5 L 41.5 56.5 L 41.5 52.5 z M 44.5 52.5 L 46.5 52.5 L 46.5 56.5 L 44.5 56.5 L 44.5 52.5 z M 47.5 52.5 L 49.5 52.5 L 49.5 56.5 L 47.5 56.5 L 47.5 52.5 z M 50.5 52.5 L 52.5 52.5 L 52.5 56.5 L 50.5 56.5 L 50.5 52.5 z M 53.5 52.5 L 55.5 52.5 L 55.5 56.5 L 53.5 56.5 L 53.5 52.5 z M 56.5 52.5 L 58.5 52.5 L 58.5 56.5 L 56.5 56.5 L 56.5 52.5 z M 59.5 52.5 L 63.5 52.5 L 63.5 56.5 L 59.5 56.5 L 59.5 52.5 z M 64.5 52.5 L 77.5 52.5 L 77.5 56.5 L 64.5 56.5 L 64.5 52.5 z M 19.699219 57.5 L 35.5 57.5 L 35.5 59.5 L 20.400391 59.5 L 19.699219 57.5 z M 36.5 57.5 L 40.5 57.5 L 40.5 59.5 L 36.5 59.5 L 36.5 57.5 z M 41.5 57.5 L 58.5 57.5 L 58.5 81.5 L 57.5 81.5 L 57.5 70.5 C 57.5 67.2 55.800391 64.100781 52.900391 62.300781 L 50.199219 60.599609 C 49.999219 60.499609 49.799219 60.499609 49.699219 60.599609 L 47 62.300781 C 44.2 64.100781 42.5 67.199609 42.5 70.599609 L 42.5 81.5 L 41.5 81.5 L 41.5 57.5 z M 59.5 57.5 L 63.5 57.5 L 63.5 59.5 L 59.5 59.5 L 59.5 57.5 z M 64.5 57.5 L 80.300781 57.5 L 79.599609 59.5 L 64.5 59.5 L 64.5 57.5 z M 22.400391 60.5 L 22.5 60.5 L 35.5 60.5 L 35.5 81.5 L 34 81.5 L 34 70.099609 C 34 67.399609 32.5 65.000781 30 63.800781 C 29.7 63.600781 29.300391 63.600781 28.900391 63.800781 C 26.500391 65.000781 25.000391 67.399609 24.900391 70.099609 L 24.900391 81.5 L 22.400391 81.5 L 22.400391 60.5 z M 36.5 60.5 L 40.5 60.5 L 40.5 81.5 L 36.5 81.5 L 36.5 60.5 z M 59.5 60.5 L 63.5 60.5 L 63.5 81.5 L 59.5 81.5 L 59.5 60.5 z M 64.400391 60.5 L 77.400391 60.5 L 77.400391 81.5 L 75 81.5 L 75 70.099609 C 75 67.399609 73.5 64.999219 71 63.699219 C 70.7 63.499219 70.300391 63.499219 69.900391 63.699219 C 67.500391 64.899219 65.900391 67.399609 65.900391 70.099609 L 65.900391 81.5 L 64.400391 81.5 L 64.400391 60.5 z M 50 61.599609 L 52.400391 63.099609 C 55.000391 64.699609 56.5 67.499609 56.5 70.599609 L 56.5 81.599609 L 43.5 81.599609 L 43.5 81.5 L 43.5 70.599609 C 43.5 67.599609 44.999609 64.799219 47.599609 63.199219 L 50 61.599609 z M 29.400391 64.5 L 29.599609 64.5 C 31.499609 65.5 32.8 67.3 33 69.5 L 26 69.5 C 26.2 67.4 27.400391 65.5 29.400391 64.5 z M 70.400391 64.5 L 70.599609 64.5 C 72.499609 65.5 73.8 67.3 74 69.5 L 67 69.5 C 67.2 67.4 68.400391 65.5 70.400391 64.5 z M 26 70.5 L 33 70.5 L 33 81.5 L 32 81.5 L 32 75 C 32 72.4 29.799219 71.6 29.699219 71.5 L 29.400391 71.5 C 29.300391 71.5 27 72.4 27 75 L 27 81.5 L 26 81.5 L 26 70.5 z M 67 70.5 L 74 70.5 L 74 81.5 L 73 81.5 L 73 75 C 73 72.4 70.799219 71.6 70.699219 71.5 L 70.400391 71.5 C 70.300391 71.5 68 72.4 68 75 L 68 81.5 L 67 81.5 L 67 70.5 z M 29.5 72.5 C 30 72.8 31 73.5 31 75 L 31 81.5 L 28 81.5 L 28 75 C 28 73.5 29.1 72.8 29.5 72.5 z M 70.5 72.5 C 71 72.8 72 73.5 72 75 L 72 81.5 L 69 81.5 L 69 75 C 69 73.5 70.1 72.8 70.5 72.5 z "/></svg>