<svg xmlns="http://www.w3.org/2000/svg" xmlns:xlink="http://www.w3.org/1999/xlink" id="Layer_1" enable-background="new 0 0 100 100" viewBox="0 0 100 100"><defs id="defs118"><linearGradient id="linearGradient4283"><stop id="stop4285" offset="0" stop-color="#000092"/><stop id="stop4287" offset="1" stop-color="#ff00f3"/></linearGradient><linearGradient id="linearGradient4289" x1="15.301" x2="82" y1="54.95" y2="54.95" gradientUnits="userSpaceOnUse" xlink:href="#linearGradient4283"/></defs><symbol id="navbar_x5F_icon_x5F_back_1_" viewBox="-1 -24 25 24"><g id="g6" opacity=".9"><g id="g10"><g id="g12"><path id="path14" fill="none" stroke="#fff" stroke-miterlimit="10" stroke-width="2" d="M18-19c0-0.4,0-0.5-0.3-0.3l-12,7c-0.3,0.2-0.2,0.5,0.1,0.6l11.9,7C18-4.5,18-4.7,18-5V-19z"/></g></g></g><rect id="rect16" width="24" height="24" y="-24" fill="none"/><rect id="rect18" width="25" height="24" x="-1" y="-24" fill="none" display="none"/></symbol><symbol id="navbar_x5F_icon_x5F_home_1_" viewBox="0 -24 24 24"><g id="g21" opacity=".9"><g id="XMLID_809_"><circle id="XMLID_814_" cx="12" cy="-12" r="6.9" fill="none" stroke="#fff" stroke-miterlimit="10" stroke-width="1.803"/></g></g><rect id="rect26" width="24" height="24" y="-24" fill="none"/><rect id="rect28" width="24" height="23" y="-24" fill="none" display="none"/></symbol><symbol id="navbar_x5F_icon_x5F_recents_1_" viewBox="0 -24 24 24"><g id="g31" opacity=".9"><g id="g35"><g id="g37"><path id="path39" fill="none" stroke="#fff" stroke-miterlimit="10" stroke-width="2" d="M19-5.7C19-5.4,18.6-5,18.2-5H5.8C5.4-5,5-5.4,5-5.7v-12.6C5-18.6,5.4-19,5.8-19h12.4      c0.4,0,0.8,0.4,0.8,0.7V-5.7z"/></g></g></g><rect id="rect41" width="24" height="24" y="-24" fill="none"/><rect id="rect43" width="24" height="23" y="-24" fill="none" display="none"/></symbol><symbol id="sysbar_x5F_status_2" viewBox="0 -24 360 24"><use id="XMLID_495_" width="360" height="24" y="-24" overflow="visible" xlink:href="#sysbar_x5F_status_x5F_used_x5F_light"/></symbol><symbol id="sysbar_x5F_status_x5F_used_x5F_light" viewBox="0 -24 360 24"><rect id="rect48" width="360" height="24" y="-24" fill="#010101" fill-opacity="0"/><g id="g50"><g id="g52" opacity=".9"><rect id="rect54" width="40" height="16" x="312" y="-21" fill="none"/></g><g id="g58"><g id="g60" opacity=".9"><path id="path62" fill="#fff" d="M266-19l8.8,10.9C274.5-7.8,271.1-5,266-5s-8.5-2.8-8.8-3.1L266-19L266-19L266-19L266-19L266-19z" opacity=".9"/></g><rect id="rect64" width="16" height="16" x="258" y="-20" fill="none"/></g><g id="g66"><polygon id="polygon68" fill="#fff" points="277 -19 291 -19 291 -5" opacity=".9"/><rect id="rect70" width="16" height="16" x="276" y="-20" fill="none"/></g><g id="g72"><rect id="rect74" width="16" height="16" x="296" y="-20" fill="none"/><path id="path76" fill="#fff" d="M306-6v1h-3v-1h-3v-13h9v13H306z" opacity=".9"/></g></g></symbol><path id="path98" fill="url(#linearGradient4289)" d="M 61.400391 26.900391 C 61.100391 26.900391 60.900391 27.100391 60.900391 27.400391 L 60.900391 28 C 60.000391 28.2 59.400391 29.000391 59.400391 29.900391 L 59.400391 30.900391 L 58.900391 30.900391 C 58.600391 30.900391 58.400391 31.100391 58.400391 31.400391 L 58.400391 33.400391 C 58.400391 33.700391 58.600391 33.900391 58.900391 33.900391 L 59.400391 33.900391 L 59.400391 35.900391 L 58.900391 35.900391 C 58.600391 35.900391 58.400391 36.100391 58.400391 36.400391 L 58.400391 38.400391 C 58.400391 38.700391 58.600391 38.900391 58.900391 38.900391 L 59.400391 38.900391 L 59.400391 42.900391 L 57.900391 42.900391 C 57.600391 42.900391 57.400391 43.100391 57.400391 43.400391 L 57.400391 46.400391 C 57.400391 46.700391 57.600391 46.900391 57.900391 46.900391 L 58.400391 46.900391 L 58.400391 52.900391 L 57.900391 52.900391 L 57.800781 52.900391 C 57.300781 52.000391 56.599609 51.1 55.599609 50.5 L 51.800781 48.199219 L 51.800781 47.300781 C 51.800781 47.000781 51.600781 46.800781 51.300781 46.800781 C 51.000781 46.800781 50.800781 47.000781 50.800781 47.300781 L 50.800781 48.199219 L 47 50.699219 C 46.1 51.299219 45.300391 52.1 44.900391 53 L 44.800781 53 L 44.300781 53 L 44.300781 47 L 44.800781 47 C 45.100781 47 45.300781 46.8 45.300781 46.5 L 45.300781 43.5 C 45.300781 43.2 45.100781 43 44.800781 43 L 43.300781 43 L 43.300781 39 L 43.800781 39 C 44.100781 39 44.300781 38.8 44.300781 38.5 L 44.300781 36.5 C 44.300781 36.2 44.100781 36 43.800781 36 L 43.300781 36 L 43.300781 34 L 43.800781 34 C 44.100781 34 44.300781 33.8 44.300781 33.5 L 44.300781 31.5 C 44.300781 31.2 44.100781 31 43.800781 31 L 43.300781 31 L 43.300781 30 C 43.300781 29.1 42.700781 28.299609 41.800781 28.099609 L 41.800781 27.5 C 41.800781 27.2 41.600781 27 41.300781 27 C 41.000781 27 40.800781 27.2 40.800781 27.5 L 40.800781 28.099609 C 39.900781 28.299609 39.300781 29.1 39.300781 30 L 39.300781 31 L 38.800781 31 C 38.500781 31 38.300781 31.2 38.300781 31.5 L 38.300781 33.5 C 38.300781 33.8 38.500781 34 38.800781 34 L 39.300781 34 L 39.300781 36 L 38.800781 36 C 38.500781 36 38.300781 36.2 38.300781 36.5 L 38.300781 38.5 C 38.300781 38.8 38.500781 39 38.800781 39 L 39.300781 39 L 39.300781 43 L 37.800781 43 C 37.500781 43 37.300781 43.2 37.300781 43.5 L 37.300781 46.5 C 37.300781 46.8 37.500781 47 37.800781 47 L 38.300781 47 L 38.300781 53 L 37.800781 53 C 37.500781 53 37.300781 53.2 37.300781 53.5 L 37.300781 56.5 C 37.300781 56.8 37.500781 57 37.800781 57 L 38.300781 57 L 38.300781 60 L 36 60 C 35.8 58.3 34.599219 56.700781 32.699219 55.800781 L 28 53.5 L 28 52.800781 C 28 52.500781 27.8 52.300781 27.5 52.300781 C 27.2 52.300781 27 52.600781 27 52.800781 L 27 53.5 L 22.300781 55.800781 C 20.400781 56.700781 19.2 58.3 19 60 L 16.800781 60 C 16.500781 60 16.300781 60.2 16.300781 60.5 L 16.300781 62 L 15.800781 62 C 15.500781 62 15.300781 62.2 15.300781 62.5 L 15.300781 65.5 C 15.300781 65.8 15.500781 66 15.800781 66 L 16.300781 66 L 16.300781 82 L 15.800781 82 C 15.500781 82 15.300781 82.2 15.300781 82.5 C 15.300781 82.8 15.500781 83 15.800781 83 L 16.800781 83 L 38.800781 83 L 43.599609 83 L 43.800781 83 L 58.599609 83 L 58.800781 83 L 63.800781 83 L 85.800781 83 L 86.800781 83 C 87.100781 83 87.300781 82.8 87.300781 82.5 C 87.300781 82.2 87.100781 82 86.800781 82 L 86.300781 82 L 86.300781 66 L 86.800781 66 C 87.100781 66 87.300781 65.8 87.300781 65.5 L 87.300781 62.5 C 87.300781 62.2 87.100781 62 86.800781 62 L 86.300781 62 L 86.300781 60.5 C 86.300781 60.2 86.100781 60 85.800781 60 L 83 60 C 82.8 58.3 81.599219 56.700781 79.699219 55.800781 L 75 53.5 L 75 52.800781 C 75 52.500781 74.8 52.300781 74.5 52.300781 C 74.2 52.300781 74 52.600781 74 52.800781 L 74 53.5 L 69.400391 55.699219 C 67.500391 56.599219 66.299609 58.200391 66.099609 59.900391 L 64.400391 59.900391 L 64.400391 56.900391 L 64.900391 56.900391 C 65.200391 56.900391 65.400391 56.700391 65.400391 56.400391 L 65.400391 53.400391 C 65.400391 53.100391 65.200391 52.900391 64.900391 52.900391 L 64.400391 52.900391 L 64.400391 46.900391 L 64.900391 46.900391 C 65.200391 46.900391 65.400391 46.700391 65.400391 46.400391 L 65.400391 43.400391 C 65.400391 43.100391 65.200391 42.900391 64.900391 42.900391 L 63.400391 42.900391 L 63.400391 38.900391 L 63.900391 38.900391 C 64.200391 38.900391 64.400391 38.700391 64.400391 38.400391 L 64.400391 36.400391 C 64.400391 36.100391 64.200391 35.900391 63.900391 35.900391 L 63.400391 35.900391 L 63.400391 33.900391 L 63.900391 33.900391 C 64.200391 33.900391 64.400391 33.700391 64.400391 33.400391 L 64.400391 31.400391 C 64.400391 31.100391 64.200391 30.900391 63.900391 30.900391 L 63.400391 30.900391 L 63.400391 29.900391 C 63.400391 29.000391 62.800391 28.2 61.900391 28 L 61.900391 27.400391 C 61.900391 27.100391 61.700391 26.900391 61.400391 26.900391 z M 41.300781 29 C 41.800781 29 42.300781 29.5 42.300781 30 L 42.300781 31 L 40.300781 31 L 40.300781 30 C 40.300781 29.5 40.700781 29 41.300781 29 z M 61.300781 29 C 61.800781 29 62.300781 29.5 62.300781 30 L 62.300781 31 L 60.300781 31 L 60.300781 30 C 60.300781 29.5 60.700781 29 61.300781 29 z M 39.300781 32 L 39.800781 32 L 42.800781 32 L 43.300781 32 L 43.300781 33 L 42.800781 33 L 39.800781 33 L 39.300781 33 L 39.300781 32 z M 59.300781 32 L 59.800781 32 L 62.800781 32 L 63.300781 32 L 63.300781 33 L 62.800781 33 L 59.800781 33 L 59.300781 33 L 59.300781 32 z M 40.300781 34 L 42.300781 34 L 42.300781 36 L 40.300781 36 L 40.300781 34 z M 60.300781 34 L 62.300781 34 L 62.300781 36 L 60.300781 36 L 60.300781 34 z M 39.300781 37 L 39.800781 37 L 42.800781 37 L 43.300781 37 L 43.300781 38 L 42.800781 38 L 39.800781 38 L 39.300781 38 L 39.300781 37 z M 59.300781 37 L 59.800781 37 L 62.800781 37 L 63.300781 37 L 63.300781 38 L 62.800781 38 L 59.800781 38 L 59.300781 38 L 59.300781 37 z M 40.300781 39 L 42.300781 39 L 42.300781 43 L 40.300781 43 L 40.300781 39 z M 60.300781 39 L 62.300781 39 L 62.300781 43 L 60.300781 43 L 60.300781 39 z M 38.300781 44 L 39.800781 44 L 42.800781 44 L 44.300781 44 L 44.300781 46 L 43.800781 46 L 38.800781 46 L 38.300781 46 L 38.300781 44 z M 58.300781 44 L 59.800781 44 L 62.800781 44 L 64.300781 44 L 64.300781 46 L 63.800781 46 L 58.800781 46 L 58.300781 46 L 58.300781 44 z M 39.300781 47 L 43.300781 47 L 43.300781 53 L 39.300781 53 L 39.300781 47 z M 59.300781 47 L 63.300781 47 L 63.300781 53 L 59.300781 53 L 59.300781 47 z M 51.300781 49.199219 L 55 51.5 C 56.4 52.4 57.300781 53.8 57.300781 55.5 L 57.300781 56 L 45.300781 56 L 45.300781 55.5 C 45.300781 53.9 46.099609 52.4 47.599609 51.5 L 51.300781 49.199219 z M 38.300781 54 L 38.800781 54 L 43.800781 54 L 44.300781 54 L 44.300781 55.5 L 44.300781 56 L 43.800781 56 L 38.800781 56 L 38.300781 56 L 38.300781 54 z M 58.300781 54 L 58.800781 54 L 63.800781 54 L 64.300781 54 L 64.300781 56 L 63.800781 56 L 58.800781 56 L 58.300781 56 L 58.300781 55.5 L 58.300781 54 z M 27.5 54.400391 L 32.199219 56.699219 C 33.799219 57.499219 34.8 58.7 35 60 L 20 60 C 20.2 58.7 21.200781 57.399219 22.800781 56.699219 L 27.5 54.400391 z M 74.5 54.400391 L 79.199219 56.699219 C 80.799219 57.499219 81.700391 58.7 81.900391 60 L 67 60 C 67.2 58.6 68.200781 57.399219 69.800781 56.699219 L 74.5 54.400391 z M 39.300781 57 L 43.300781 57 L 43.300781 58.5 L 43.300781 61.5 L 43.300781 74.800781 L 43.300781 82 L 39.300781 82 L 39.300781 65.5 L 39.300781 62.5 L 39.300781 60.5 L 39.300781 57 z M 44.300781 57 L 44.5 57 L 44.800781 57 L 46.300781 57 L 46.300781 58 L 44.300781 58 L 44.300781 57 z M 47.300781 57 L 49.300781 57 L 49.300781 58 L 47.300781 58 L 47.300781 57 z M 50.300781 57 L 52.300781 57 L 52.300781 58 L 50.300781 58 L 50.300781 57 z M 53.300781 57 L 55.300781 57 L 55.300781 58 L 53.300781 58 L 53.300781 57 z M 56.300781 57 L 57.800781 57 L 58.300781 57 L 58.300781 58 L 56.300781 58 L 56.300781 57 z M 59.300781 57 L 63.300781 57 L 63.300781 60.5 L 63.300781 62.5 L 63.300781 65.5 L 63.300781 82 L 59.300781 82 L 59.300781 74.800781 L 59.300781 61.5 L 59.300781 58.5 L 59.300781 57 z M 44.300781 59 L 58.300781 59 L 58.300781 61 L 44.300781 61 L 44.300781 59 z M 17.300781 61 L 18.300781 61 L 18.300781 62 L 17.300781 62 L 17.300781 61 z M 19.300781 61 L 21.300781 61 L 21.300781 62 L 19.300781 62 L 19.300781 61 z M 22.300781 61 L 24.300781 61 L 24.300781 62 L 22.300781 62 L 22.300781 61 z M 25.300781 61 L 27.300781 61 L 27.300781 62 L 25.300781 62 L 25.300781 61 z M 28.300781 61 L 30.300781 61 L 30.300781 62 L 28.300781 62 L 28.300781 61 z M 31.300781 61 L 33.300781 61 L 33.300781 62 L 31.300781 62 L 31.300781 61 z M 34.300781 61 L 36.300781 61 L 36.300781 62 L 34.300781 62 L 34.300781 61 z M 37.300781 61 L 38.300781 61 L 38.300781 62 L 37.300781 62 L 37.300781 61 z M 64.300781 61 L 65.300781 61 L 65.300781 62 L 64.300781 62 L 64.300781 61 z M 66.300781 61 L 68.300781 61 L 68.300781 62 L 66.300781 62 L 66.300781 61 z M 69.300781 61 L 71.300781 61 L 71.300781 62 L 69.300781 62 L 69.300781 61 z M 72.300781 61 L 74.300781 61 L 74.300781 62 L 72.300781 62 L 72.300781 61 z M 75.300781 61 L 77.300781 61 L 77.300781 62 L 75.300781 62 L 75.300781 61 z M 78.300781 61 L 80.300781 61 L 80.300781 62 L 78.300781 62 L 78.300781 61 z M 81.300781 61 L 83.300781 61 L 83.300781 62 L 81.300781 62 L 81.300781 61 z M 84.300781 61 L 85.300781 61 L 85.300781 62 L 84.300781 62 L 84.300781 61 z M 44.300781 62 L 58.300781 62 L 58.300781 70.300781 C 57.500781 68.500781 56.200391 67.000391 54.400391 65.900391 L 51.5 64.099609 C 51.3 63.999609 51.1 63.999609 51 64.099609 L 48.099609 66 C 46.399609 67.1 45.100781 68.600391 44.300781 70.400391 L 44.300781 62 z M 16.300781 63 L 16.800781 63 L 38.300781 63 L 38.300781 65 L 16.800781 65 L 16.300781 65 L 16.300781 63 z M 64.300781 63 L 85.800781 63 L 86.300781 63 L 86.300781 65 L 85.800781 65 L 64.300781 65 L 64.300781 63 z M 51.300781 65.099609 L 53.900391 66.800781 C 56.700391 68.500781 58.300781 71.500781 58.300781 74.800781 L 58.300781 82 L 44.300781 82 L 44.300781 74.800781 C 44.300781 71.600781 45.899219 68.600781 48.699219 66.800781 L 51.300781 65.099609 z M 17.400391 66 L 38.300781 66 L 38.300781 82 L 33.300781 82 L 33.300781 75.400391 C 33.300781 72.900391 32.1 70.700391 30 69.400391 L 28.099609 68.199219 C 27.899609 68.099219 27.699609 68.099219 27.599609 68.199219 L 25.699219 69.400391 C 23.599219 70.700391 22.400391 73.000391 22.400391 75.400391 L 22.400391 82 L 17.400391 82 L 17.400391 66 z M 64.400391 66 L 85.400391 66 L 85.400391 82 L 80.300781 82 L 80.300781 75.400391 C 80.300781 72.900391 79.1 70.700391 77 69.400391 L 75.099609 68.199219 C 74.899609 68.099219 74.699609 68.099219 74.599609 68.199219 L 72.699219 69.400391 C 70.599219 70.700391 69.400391 73.000391 69.400391 75.400391 L 69.400391 82 L 64.400391 82 L 64.400391 66 z M 22.5 67.300781 C 21.7 67.300781 21 68.000781 21 68.800781 C 21 69.600781 21.7 70.300781 22.5 70.300781 C 23.3 70.300781 24 69.600781 24 68.800781 C 24 68.000781 23.3 67.300781 22.5 67.300781 z M 32.5 67.300781 C 31.7 67.300781 31 68.000781 31 68.800781 C 31 69.600781 31.7 70.300781 32.5 70.300781 C 33.3 70.300781 34 69.600781 34 68.800781 C 34 68.000781 33.3 67.300781 32.5 67.300781 z M 69.5 67.300781 C 68.7 67.300781 68 68.000781 68 68.800781 C 68 69.600781 68.7 70.300781 69.5 70.300781 C 70.3 70.300781 71 69.600781 71 68.800781 C 71 68.000781 70.3 67.300781 69.5 67.300781 z M 79.5 67.300781 C 78.7 67.300781 78 68.000781 78 68.800781 C 78 69.600781 78.7 70.300781 79.5 70.300781 C 80.3 70.300781 81 69.600781 81 68.800781 C 81 68.000781 80.3 67.300781 79.5 67.300781 z M 22.5 68.300781 C 22.8 68.300781 23 68.500781 23 68.800781 C 23 69.100781 22.8 69.300781 22.5 69.300781 C 22.2 69.300781 22 69.100781 22 68.800781 C 22 68.500781 22.2 68.300781 22.5 68.300781 z M 32.5 68.300781 C 32.8 68.300781 33 68.500781 33 68.800781 C 33 69.100781 32.8 69.300781 32.5 69.300781 C 32.2 69.300781 32 69.100781 32 68.800781 C 32 68.500781 32.2 68.300781 32.5 68.300781 z M 69.5 68.300781 C 69.8 68.300781 70 68.500781 70 68.800781 C 70 69.100781 69.8 69.300781 69.5 69.300781 C 69.2 69.300781 69 69.100781 69 68.800781 C 69 68.500781 69.2 68.300781 69.5 68.300781 z M 79.5 68.300781 C 79.8 68.300781 80 68.500781 80 68.800781 C 80 69.100781 79.8 69.300781 79.5 69.300781 C 79.2 69.300781 79 69.100781 79 68.800781 C 79 68.500781 79.2 68.300781 79.5 68.300781 z M 27.800781 69.199219 L 29.400391 70.199219 C 31.200391 71.299219 32.300781 73.300391 32.300781 75.400391 L 32.300781 82 L 23.300781 82 L 23.300781 75.5 C 23.300781 73.4 24.399609 71.500781 26.099609 70.300781 L 27.800781 69.199219 z M 74.800781 69.199219 L 76.400391 70.199219 C 78.200391 71.299219 79.300781 73.300391 79.300781 75.400391 L 79.300781 82 L 70.300781 82 L 70.300781 75.5 C 70.300781 73.4 71.399609 71.500781 73.099609 70.300781 L 74.800781 69.199219 z M 19.8125 75.025391 C 19.725 75.025391 19.649609 75.049609 19.599609 75.099609 L 19.199219 75.400391 C 18.699219 75.700391 18.400391 76.300391 18.400391 76.900391 L 18.400391 78.5 C 18.400391 78.8 18.600391 79 18.900391 79 L 20.900391 79 C 21.200391 79 21.400391 78.8 21.400391 78.5 L 21.400391 76.900391 C 21.300391 76.200391 21 75.600781 20.5 75.300781 L 20.099609 75.099609 C 19.999609 75.049609 19.9 75.025391 19.8125 75.025391 z M 66.8125 75.025391 C 66.725 75.025391 66.649609 75.049609 66.599609 75.099609 L 66.199219 75.400391 C 65.699219 75.700391 65.400391 76.300391 65.400391 76.900391 L 65.400391 78.5 C 65.400391 78.8 65.600391 79 65.900391 79 L 67.900391 79 C 68.200391 79 68.400391 78.8 68.400391 78.5 L 68.400391 76.900391 C 68.300391 76.200391 68 75.600781 67.5 75.300781 L 67.099609 75.099609 C 66.999609 75.049609 66.9 75.025391 66.8125 75.025391 z M 82.8125 75.025391 C 82.725 75.025391 82.649609 75.049609 82.599609 75.099609 L 82.199219 75.400391 C 81.699219 75.700391 81.400391 76.300391 81.400391 76.900391 L 81.400391 78.5 C 81.400391 78.8 81.600391 79 81.900391 79 L 83.900391 79 C 84.200391 79 84.400391 78.8 84.400391 78.5 L 84.400391 76.900391 C 84.300391 76.200391 84 75.600781 83.5 75.300781 L 83.099609 75.099609 C 82.999609 75.049609 82.9 75.025391 82.8125 75.025391 z M 35.8125 75.125 C 35.725 75.125 35.649609 75.149219 35.599609 75.199219 L 35.199219 75.5 C 34.699219 75.8 34.400391 76.4 34.400391 77 L 34.400391 78.599609 C 34.300391 78.799609 34.500781 79 34.800781 79 L 36.800781 79 C 37.100781 79 37.300781 78.8 37.300781 78.5 L 37.300781 76.900391 C 37.300781 76.300391 37 75.700391 36.5 75.400391 L 36.099609 75.199219 C 35.999609 75.149219 35.9 75.125 35.8125 75.125 z M 19.800781 76.099609 L 19.900391 76.199219 C 20.100391 76.399219 20.300781 76.600391 20.300781 76.900391 L 20.300781 78 L 19.300781 78 L 19.300781 76.900391 C 19.300781 76.600391 19.399219 76.399219 19.699219 76.199219 L 19.800781 76.099609 z M 35.800781 76.099609 L 35.900391 76.199219 C 36.100391 76.399219 36.300781 76.600391 36.300781 76.900391 L 36.300781 78 L 35.300781 78 L 35.300781 76.900391 C 35.300781 76.600391 35.399219 76.399219 35.699219 76.199219 L 35.800781 76.099609 z M 66.800781 76.099609 L 66.900391 76.199219 C 67.100391 76.399219 67.300781 76.600391 67.300781 76.900391 L 67.300781 78 L 66.300781 78 L 66.300781 76.900391 C 66.300781 76.600391 66.399219 76.399219 66.699219 76.199219 L 66.800781 76.099609 z M 82.800781 76.099609 L 82.900391 76.199219 C 83.100391 76.399219 83.300781 76.600391 83.300781 76.900391 L 83.300781 78 L 82.300781 78 L 82.300781 76.900391 C 82.300781 76.600391 82.399219 76.399219 82.699219 76.199219 L 82.800781 76.099609 z "/></svg>