<svg xmlns="http://www.w3.org/2000/svg" xmlns:xlink="http://www.w3.org/1999/xlink" id="Layer_1" enable-background="new 0 0 100 100" viewBox="0 0 100 100"><defs id="defs148"><linearGradient id="linearGradient4303"><stop id="stop4305" offset="0" stop-color="#000092"/><stop id="stop4307" offset="1" stop-color="#ff00f3"/></linearGradient><linearGradient id="linearGradient4309" x1="17.699" x2="73.187" y1="59.537" y2="59.537" gradientUnits="userSpaceOnUse" xlink:href="#linearGradient4303"/></defs><symbol id="navbar_x5F_icon_x5F_back_1_" viewBox="-1 -24 25 24"><g id="g6" opacity=".9"><g id="g10"><g id="g12"><path id="path14" fill="none" stroke="#fff" stroke-miterlimit="10" stroke-width="2" d="M18-19c0-0.4,0-0.5-0.3-0.3l-12,7c-0.3,0.2-0.2,0.5,0.1,0.6l11.9,7C18-4.5,18-4.7,18-5V-19z"/></g></g></g><rect id="rect16" width="24" height="24" y="-24" fill="none"/><rect id="rect18" width="25" height="24" x="-1" y="-24" fill="none" display="none"/></symbol><symbol id="navbar_x5F_icon_x5F_home_1_" viewBox="0 -24 24 24"><g id="g21" opacity=".9"><g id="XMLID_809_"><circle id="XMLID_814_" cx="12" cy="-12" r="6.9" fill="none" stroke="#fff" stroke-miterlimit="10" stroke-width="1.803"/></g></g><rect id="rect26" width="24" height="24" y="-24" fill="none"/><rect id="rect28" width="24" height="23" y="-24" fill="none" display="none"/></symbol><symbol id="navbar_x5F_icon_x5F_recents_1_" viewBox="0 -24 24 24"><g id="g31" opacity=".9"><g id="g35"><g id="g37"><path id="path39" fill="none" stroke="#fff" stroke-miterlimit="10" stroke-width="2" d="M19-5.7C19-5.4,18.6-5,18.2-5H5.8C5.4-5,5-5.4,5-5.7v-12.6C5-18.6,5.4-19,5.8-19h12.4      c0.4,0,0.8,0.4,0.8,0.7V-5.7z"/></g></g></g><rect id="rect41" width="24" height="24" y="-24" fill="none"/><rect id="rect43" width="24" height="23" y="-24" fill="none" display="none"/></symbol><symbol id="sysbar_x5F_status_2" viewBox="0 -24 360 24"><use id="XMLID_495_" width="360" height="24" y="-24" overflow="visible" xlink:href="#sysbar_x5F_status_x5F_used_x5F_light"/></symbol><symbol id="sysbar_x5F_status_x5F_used_x5F_light" viewBox="0 -24 360 24"><rect id="rect48" width="360" height="24" y="-24" fill="#010101" fill-opacity="0"/><g id="g50"><g id="g52" opacity=".9"><rect id="rect54" width="40" height="16" x="312" y="-21" fill="none"/></g><g id="g58"><g id="g60" opacity=".9"><path id="path62" fill="#fff" d="M266-19l8.8,10.9C274.5-7.8,271.1-5,266-5s-8.5-2.8-8.8-3.1L266-19L266-19L266-19L266-19L266-19z" opacity=".9"/></g><rect id="rect64" width="16" height="16" x="258" y="-20" fill="none"/></g><g id="g66"><polygon id="polygon68" fill="#fff" points="277 -19 291 -19 291 -5" opacity=".9"/><rect id="rect70" width="16" height="16" x="276" y="-20" fill="none"/></g><g id="g72"><rect id="rect74" width="16" height="16" x="296" y="-20" fill="none"/><path id="path76" fill="#fff" d="M306-6v1h-3v-1h-3v-13h9v13H306z" opacity=".9"/></g></g></symbol><path id="path98" fill="url(#linearGradient4309)" d="M 49.800781 36.574219 C 46.225781 36.574219 42.649219 36.949219 39.199219 37.699219 C 38.999219 37.699219 38.800781 37.999219 38.800781 38.199219 L 38.800781 39.900391 C 36.900781 40.400391 34.999219 40.899609 33.199219 41.599609 C 32.399219 41.599609 31.800781 40.899609 31.800781 40.099609 C 31.800781 39.799609 31.600781 39.599609 31.300781 39.599609 C 31.000781 39.599609 30.800781 39.799609 30.800781 40.099609 C 30.800781 41.299609 31.700781 42.3 32.800781 42.5 L 32.800781 54.5 L 31.800781 54.5 C 31.800781 48.5 28.600391 43.200391 23.400391 40.400391 C 23.800391 40.300391 24.300781 40.199219 24.800781 40.199219 C 26.700781 40.199219 28.500781 41.3 29.300781 43 C 29.400781 43.2 29.600781 43.300781 29.800781 43.300781 L 30 43.300781 C 30.2 43.200781 30.399219 42.899609 30.199219 42.599609 C 29.199219 40.499609 27.100781 39.199219 24.800781 39.199219 C 24.200781 39.199219 23.6 39.3 23 39.5 C 24.6 38.6 26.400781 38.299609 28.300781 38.599609 C 28.600781 38.599609 28.800391 38.499219 28.900391 38.199219 C 29.000391 37.899219 28.8 37.699609 28.5 37.599609 C 25.9 37.199609 23.199219 37.9 21.199219 39.5 C 21.099219 39.5 21.099609 39.599609 21.099609 39.599609 C 20.399609 39.799609 19.800781 40.199219 19.300781 40.699219 C 18.500781 41.499219 18 42.600781 18 43.800781 C 18 44.100781 18.2 44.300781 18.5 44.300781 C 18.8 44.300781 19 44.100781 19 43.800781 C 19 42.900781 19.4 42.000391 20 41.400391 C 20.3 41.100391 20.500391 41.000781 20.900391 40.800781 L 21 40.800781 C 20.7 41.400781 20.400391 42.200391 20.400391 42.900391 C 20.400391 44.500391 21.299219 46.100391 22.699219 46.900391 C 22.799219 46.900391 22.900391 47 22.900391 47 C 23.100391 47 23.200781 46.899219 23.300781 46.699219 C 23.400781 46.499219 23.299609 46.2 23.099609 46 C 21.999609 45.4 21.300781 44.200391 21.300781 42.900391 C 21.300781 42.200391 21.500781 41.599609 21.800781 41.099609 C 24.800781 44.199609 26.600781 48.299609 26.800781 52.599609 C 26.000781 51.999609 25.400391 51.200391 24.900391 50.400391 C 24.900391 50.400391 24.900781 50.300781 24.800781 50.300781 L 24.699219 50.199219 L 24.599609 50.199219 L 24.5 50.199219 L 24.400391 50.199219 L 24.300781 50.199219 L 24.199219 50.199219 L 24.099609 50.300781 L 24 50.400391 C 23.2 51.800391 22.800781 53.4 22.800781 55 C 22.800781 58.7 24.999609 61.9 28.099609 63.5 L 18.300781 63.5 C 18.000781 63.5 17.800781 63.7 17.800781 64 C 17.800781 64.3 18.000781 64.5 18.300781 64.5 L 32.300781 64.5 L 67.300781 64.5 L 81.300781 64.5 C 81.600781 64.5 81.800781 64.3 81.800781 64 C 81.700781 63.7 81.499219 63.5 81.199219 63.5 L 71.400391 63.5 C 74.500391 61.9 76.699219 58.7 76.699219 55 C 76.699219 53.5 76.299609 51.899609 75.599609 50.599609 C 75.599609 50.499609 75.500391 50.300781 75.400391 50.300781 C 75.200391 50.200781 75.100391 50.200781 74.900391 50.300781 L 74.800781 50.300781 L 74.699219 50.400391 C 74.199219 51.300391 73.500781 51.999219 72.800781 52.699219 C 73.000781 48.399219 74.700781 44.299219 77.800781 41.199219 C 78.100781 41.699219 78.300781 42.4 78.300781 43 C 78.300781 44.3 77.6 45.499609 76.5 46.099609 C 76.3 46.199609 76.200781 46.500781 76.300781 46.800781 C 76.400781 47.000781 76.599219 47.099609 76.699219 47.099609 C 76.799219 47.099609 76.900391 47.1 76.900391 47 C 78.300391 46.2 79.199219 44.7 79.199219 43 C 79.199219 42.2 78.999609 41.500391 78.599609 40.900391 L 78.699219 40.900391 L 79.599609 41.5 C 80.199609 42.1 80.599609 43.000391 80.599609 43.900391 C 80.599609 44.200391 80.799609 44.400391 81.099609 44.400391 C 81.399609 44.400391 81.599609 44.200391 81.599609 43.900391 C 81.599609 42.700391 81.100781 41.600781 80.300781 40.800781 C 79.800781 40.300781 79.2 39.899219 78.5 39.699219 C 78.5 39.599219 78.400391 39.599609 78.400391 39.599609 C 76.400391 37.999609 73.699609 37.199219 71.099609 37.699219 C 70.799609 37.699219 70.599219 38.000781 70.699219 38.300781 C 70.699219 38.600781 71.000781 38.799219 71.300781 38.699219 C 73.100781 38.399219 74.999609 38.699609 76.599609 39.599609 C 75.999609 39.399609 75.400781 39.300781 74.800781 39.300781 C 72.500781 39.300781 70.400391 40.599219 69.400391 42.699219 C 69.300391 42.899219 69.399609 43.200391 69.599609 43.400391 L 69.800781 43.400391 C 70.000781 43.400391 70.200781 43.299609 70.300781 43.099609 C 71.100781 41.399609 72.900781 40.300781 74.800781 40.300781 C 75.300781 40.300781 75.699219 40.4 76.199219 40.5 C 71.099219 43.3 67.800781 48.599609 67.800781 54.599609 L 66.800781 54.599609 L 66.800781 42.599609 C 67.900781 42.399609 68.800781 41.399609 68.800781 40.099609 C 68.800781 39.799609 68.600781 39.599609 68.300781 39.599609 C 68.000781 39.599609 67.800781 39.799609 67.800781 40.099609 C 67.800781 40.899609 67.200391 41.499609 66.400391 41.599609 C 64.600391 40.899609 62.700781 40.300391 60.800781 39.900391 L 60.800781 38.199219 C 60.800781 37.999219 60.600391 37.799219 60.400391 37.699219 C 56.950391 36.949219 53.375781 36.574219 49.800781 36.574219 z M 49.699219 37.449219 C 53.074219 37.449219 56.449219 37.8 59.699219 38.5 L 59.699219 39.5 C 56.399219 38.8 53.099219 38.400391 49.699219 38.400391 C 46.299219 38.400391 42.999219 38.8 39.699219 39.5 L 39.699219 38.5 C 42.949219 37.8 46.324219 37.449219 49.699219 37.449219 z M 49.699219 39.5 C 55.199219 39.5 60.599219 40.500391 65.699219 42.400391 L 65.699219 54.5 L 62.699219 54.5 L 62.699219 48.5 C 62.699219 46.8 61.399219 45.5 59.699219 45.5 C 57.999219 45.5 56.699219 46.8 56.699219 48.5 L 56.699219 54.5 L 53.699219 54.5 L 53.699219 46.5 C 53.699219 44.3 51.899219 42.5 49.699219 42.5 C 47.499219 42.5 45.699219 44.3 45.699219 46.5 L 45.699219 54.5 L 42.699219 54.5 L 42.699219 48.5 C 42.699219 46.8 41.399219 45.5 39.699219 45.5 C 37.999219 45.5 36.699219 46.8 36.699219 48.5 L 36.699219 54.5 L 33.699219 54.5 L 33.699219 42.400391 C 38.799219 40.500391 44.199219 39.5 49.699219 39.5 z M 23.599609 41.699219 C 23.999609 41.899219 24.400781 42.2 24.800781 42.5 L 24.199219 42.5 C 23.999219 42.2 23.799609 41.899219 23.599609 41.699219 z M 75.900391 41.699219 C 75.700391 41.899219 75.500781 42.2 75.300781 42.5 L 74.699219 42.5 C 75.099219 42.2 75.500391 41.899219 75.900391 41.699219 z M 24.900391 43.5 L 26 43.5 C 26.6 44.1 27.200781 44.8 27.800781 45.5 L 26 45.5 C 25.7 44.8 25.300391 44.1 24.900391 43.5 z M 49.699219 43.5 C 51.399219 43.5 52.699219 44.8 52.699219 46.5 L 52.699219 54.5 L 46.699219 54.5 L 46.699219 46.5 C 46.699219 44.8 47.999219 43.5 49.699219 43.5 z M 73.5 43.5 L 74.599609 43.5 C 74.199609 44.1 73.8 44.8 73.5 45.5 L 71.699219 45.5 C 72.299219 44.8 72.9 44.1 73.5 43.5 z M 26.400391 46.5 L 28.5 46.5 C 28.9 47.1 29.2 47.8 29.5 48.5 L 27.099609 48.5 C 26.899609 47.8 26.700391 47.2 26.400391 46.5 z M 39.699219 46.5 C 40.799219 46.5 41.699219 47.4 41.699219 48.5 L 41.699219 54.5 L 37.699219 54.5 L 37.699219 48.5 C 37.699219 47.4 38.599219 46.5 39.699219 46.5 z M 59.699219 46.5 C 60.799219 46.5 61.699219 47.4 61.699219 48.5 L 61.699219 54.5 L 57.699219 54.5 L 57.699219 48.5 C 57.699219 47.4 58.599219 46.5 59.699219 46.5 z M 71 46.5 L 73.099609 46.5 C 72.799609 47.2 72.600391 47.8 72.400391 48.5 L 70 48.5 C 70.3 47.8 70.6 47.1 71 46.5 z M 27.300781 49.5 L 29.900391 49.5 C 30.100391 50.1 30.300391 50.8 30.400391 51.5 L 27.699219 51.5 L 27.599609 51.5 C 27.599609 50.8 27.500781 50.2 27.300781 49.5 z M 69.599609 49.5 L 72.199219 49.5 C 72.099219 50.2 71.900391 50.8 71.900391 51.5 L 71.800781 51.5 L 69.099609 51.5 C 69.199609 50.8 69.399609 50.1 69.599609 49.5 z M 24.400391 51.699219 C 25.100391 52.599219 25.900781 53.4 26.800781 54 L 27 54.199219 C 28.2 54.899219 29.6 55.4 31 55.5 L 31.099609 55.5 L 31.199219 55.5 L 31.599609 55.5 L 33.099609 55.5 L 34.599609 55.5 L 34.599609 56.599609 C 33.499609 56.799609 32.599609 57.8 32.599609 59 C 32.599609 60.4 33.699609 61.5 35.099609 61.5 C 36.499609 61.5 37.599609 60.4 37.599609 59 C 37.599609 57.8 36.699609 56.799609 35.599609 56.599609 L 35.599609 55.5 L 43.599609 55.5 L 43.599609 56.599609 C 42.499609 56.799609 41.599609 57.8 41.599609 59 C 41.599609 60.4 42.699609 61.5 44.099609 61.5 C 45.499609 61.5 46.599609 60.4 46.599609 59 C 46.599609 57.8 45.699609 56.799609 44.599609 56.599609 L 44.599609 55.5 L 54.599609 55.5 L 54.599609 56.599609 C 53.499609 56.799609 52.599609 57.8 52.599609 59 C 52.599609 60.4 53.699609 61.5 55.099609 61.5 C 56.499609 61.5 57.599609 60.4 57.599609 59 C 57.599609 57.8 56.699609 56.799609 55.599609 56.599609 L 55.599609 55.5 L 63.599609 55.5 L 63.599609 56.599609 C 62.499609 56.799609 61.599609 57.8 61.599609 59 C 61.599609 60.4 62.699609 61.5 64.099609 61.5 C 65.499609 61.5 66.599609 60.4 66.599609 59 C 66.599609 57.8 65.699609 56.799609 64.599609 56.599609 L 64.599609 55.5 L 66.099609 55.5 L 67.599609 55.5 L 68 55.5 L 68.099609 55.5 L 68.199219 55.5 C 70.899219 55.3 73.300391 53.900781 74.900391 51.800781 C 75.300391 52.800781 75.599609 53.999609 75.599609 55.099609 C 75.599609 59.799609 71.799609 63.599609 67.099609 63.599609 L 32.199219 63.599609 L 32.199219 63.5 C 27.499219 63.5 23.699219 59.7 23.699219 55 C 23.699219 53.9 23.900391 52.699219 24.400391 51.699219 z M 27.699219 52.5 L 30.599609 52.5 C 30.699609 53.1 30.699219 53.800391 30.699219 54.400391 C 29.599219 54.300391 28.599219 53.900391 27.699219 53.400391 L 27.699219 53.300781 L 27.699219 52.5 z M 68.900391 52.5 L 71.800781 52.5 L 71.900391 52.5 L 71.900391 53.300781 L 71.900391 53.400391 C 71.000391 53.900391 70.000391 54.300391 68.900391 54.400391 C 68.800391 53.800391 68.800391 53.1 68.900391 52.5 z M 35.199219 57.5 C 35.999219 57.5 36.699219 58.2 36.699219 59 C 36.699219 59.8 35.999219 60.5 35.199219 60.5 C 34.399219 60.5 33.699219 59.8 33.699219 59 C 33.699219 58.2 34.399219 57.5 35.199219 57.5 z M 44.199219 57.5 C 44.999219 57.5 45.699219 58.2 45.699219 59 C 45.699219 59.8 44.999219 60.5 44.199219 60.5 C 43.399219 60.5 42.699219 59.8 42.699219 59 C 42.699219 58.2 43.399219 57.5 44.199219 57.5 z M 55.199219 57.5 C 55.999219 57.5 56.699219 58.2 56.699219 59 C 56.699219 59.8 55.999219 60.5 55.199219 60.5 C 54.399219 60.5 53.699219 59.8 53.699219 59 C 53.699219 58.2 54.399219 57.5 55.199219 57.5 z M 64.199219 57.5 C 64.999219 57.5 65.699219 58.2 65.699219 59 C 65.699219 59.8 64.999219 60.5 64.199219 60.5 C 63.399219 60.5 62.699219 59.8 62.699219 59 C 62.699219 58.2 63.399219 57.5 64.199219 57.5 z M 18.199219 66.5 C 17.899219 66.5 17.699219 66.7 17.699219 67 C 17.699219 67.3 17.999219 67.5 18.199219 67.5 L 21.199219 67.5 C 21.499219 67.5 21.699219 67.3 21.699219 67 C 21.699219 66.7 21.499219 66.5 21.199219 66.5 L 18.199219 66.5 z M 24.199219 66.5 C 23.899219 66.5 23.699219 66.7 23.699219 67 C 23.699219 67.3 23.899219 67.5 24.199219 67.5 L 47.199219 67.5 C 47.499219 67.5 47.699219 67.3 47.699219 67 C 47.699219 66.7 47.499219 66.5 47.199219 66.5 L 24.199219 66.5 z M 50.199219 66.5 C 49.899219 66.5 49.699219 66.7 49.699219 67 C 49.699219 67.3 49.899219 67.5 50.199219 67.5 L 55.199219 67.5 C 55.499219 67.5 55.699219 67.3 55.699219 67 C 55.699219 66.7 55.499219 66.5 55.199219 66.5 L 50.199219 66.5 z M 58.199219 66.5 C 57.899219 66.5 57.699219 66.7 57.699219 67 C 57.699219 67.3 57.899219 67.5 58.199219 67.5 L 81.199219 67.5 C 81.499219 67.5 81.699219 67.3 81.699219 67 C 81.699219 66.7 81.499219 66.5 81.199219 66.5 L 58.199219 66.5 z M 18.199219 69.5 C 17.899219 69.5 17.699219 69.7 17.699219 70 C 17.699219 70.3 17.999219 70.5 18.199219 70.5 L 28.199219 70.5 C 28.499219 70.5 28.699219 70.3 28.699219 70 C 28.699219 69.7 28.499219 69.5 28.199219 69.5 L 18.199219 69.5 z M 31.199219 69.5 C 30.999219 69.5 30.699219 69.7 30.699219 70 C 30.699219 70.3 30.899219 70.5 31.199219 70.5 L 71.199219 70.5 C 71.499219 70.5 71.699219 70.3 71.699219 70 C 71.699219 69.7 71.499219 69.5 71.199219 69.5 L 31.199219 69.5 z M 74.199219 69.5 C 73.899219 69.5 73.699219 69.7 73.699219 70 C 73.699219 70.3 73.899219 70.5 74.199219 70.5 L 81.199219 70.5 C 81.499219 70.5 81.699219 70.3 81.699219 70 C 81.699219 69.7 81.499219 69.5 81.199219 69.5 L 74.199219 69.5 z M 18.199219 72.5 C 17.899219 72.5 17.699219 72.7 17.699219 73 C 17.699219 73.3 17.999219 73.5 18.199219 73.5 L 23.199219 73.5 C 23.499219 73.5 23.699219 73.3 23.699219 73 C 23.699219 72.7 23.499219 72.5 23.199219 72.5 L 18.199219 72.5 z M 26.199219 72.5 C 25.899219 72.5 25.699219 72.7 25.699219 73 C 25.699219 73.3 25.899219 73.5 26.199219 73.5 L 51.199219 73.5 C 51.499219 73.5 51.699219 73.3 51.699219 73 C 51.699219 72.7 51.499219 72.5 51.199219 72.5 L 26.199219 72.5 z M 54.199219 72.5 C 53.899219 72.5 53.699219 72.7 53.699219 73 C 53.699219 73.3 53.899219 73.5 54.199219 73.5 L 63.199219 73.5 C 63.499219 73.5 63.699219 73.3 63.699219 73 C 63.699219 72.7 63.499219 72.5 63.199219 72.5 L 54.199219 72.5 z M 66.199219 72.5 C 65.899219 72.5 65.699219 72.7 65.699219 73 C 65.699219 73.3 65.899219 73.5 66.199219 73.5 L 81.099609 73.5 C 81.399609 73.5 81.599609 73.3 81.599609 73 C 81.599609 72.7 81.499219 72.5 81.199219 72.5 L 66.199219 72.5 z M 18.199219 75.5 C 17.899219 75.5 17.699219 75.7 17.699219 76 C 17.699219 76.3 17.999219 76.5 18.199219 76.5 L 35.199219 76.5 C 35.499219 76.5 35.699219 76.3 35.699219 76 C 35.699219 75.7 35.499219 75.5 35.199219 75.5 L 18.199219 75.5 z M 38.199219 75.5 C 37.899219 75.5 37.699219 75.7 37.699219 76 C 37.699219 76.3 37.999219 76.5 38.199219 76.5 L 43.199219 76.5 C 43.499219 76.5 43.699219 76.3 43.699219 76 C 43.699219 75.7 43.499219 75.5 43.199219 75.5 L 38.199219 75.5 z M 46.199219 75.5 C 45.899219 75.5 45.699219 75.7 45.699219 76 C 45.699219 76.3 45.899219 76.5 46.199219 76.5 L 69.199219 76.5 C 69.499219 76.5 69.699219 76.3 69.699219 76 C 69.699219 75.7 69.499219 75.5 69.199219 75.5 L 46.199219 75.5 z M 72.199219 75.5 C 71.899219 75.5 71.699219 75.7 71.699219 76 C 71.699219 76.3 71.899219 76.5 72.199219 76.5 L 79.199219 76.5 C 79.499219 76.5 79.699219 76.3 79.699219 76 C 79.699219 75.7 79.499219 75.5 79.199219 75.5 L 72.199219 75.5 z M 18.199219 78.5 C 17.899219 78.5 17.699219 78.7 17.699219 79 C 17.699219 79.3 17.899219 79.5 18.199219 79.5 L 23.199219 79.5 C 23.499219 79.5 23.699219 79.3 23.699219 79 C 23.699219 78.7 23.499219 78.5 23.199219 78.5 L 18.199219 78.5 z M 26.199219 78.5 C 25.899219 78.5 25.699219 78.7 25.699219 79 C 25.699219 79.3 25.899219 79.5 26.199219 79.5 L 31.199219 79.5 C 31.499219 79.5 31.699219 79.3 31.699219 79 C 31.699219 78.7 31.499219 78.5 31.199219 78.5 L 26.199219 78.5 z M 34.199219 78.5 C 33.899219 78.5 33.699219 78.7 33.699219 79 C 33.699219 79.3 33.899219 79.5 34.199219 79.5 L 57.199219 79.5 C 57.499219 79.5 57.699219 79.3 57.699219 79 C 57.699219 78.7 57.499219 78.5 57.199219 78.5 L 34.199219 78.5 z M 60.199219 78.5 C 59.899219 78.5 59.699219 78.7 59.699219 79 C 59.699219 79.3 59.899219 79.5 60.199219 79.5 L 81.199219 79.5 C 81.499219 79.5 81.699219 79.3 81.699219 79 C 81.699219 78.7 81.499219 78.5 81.199219 78.5 L 60.199219 78.5 z M 20.199219 81.5 C 19.899219 81.5 19.699219 81.7 19.699219 82 C 19.699219 82.3 19.899219 82.5 20.199219 82.5 L 27.199219 82.5 C 27.499219 82.5 27.699219 82.3 27.699219 82 C 27.699219 81.7 27.499219 81.5 27.199219 81.5 L 20.199219 81.5 z M 30.199219 81.5 C 29.899219 81.5 29.699219 81.7 29.699219 82 C 29.699219 82.3 29.899219 82.5 30.199219 82.5 L 53.199219 82.5 C 53.499219 82.5 53.699219 82.3 53.699219 82 C 53.699219 81.7 53.499219 81.5 53.199219 81.5 L 30.199219 81.5 z M 56.199219 81.5 C 55.899219 81.5 55.699219 81.7 55.699219 82 C 55.699219 82.3 55.899219 82.5 56.199219 82.5 L 61.199219 82.5 C 61.499219 82.5 61.699219 82.3 61.699219 82 C 61.699219 81.7 61.499219 81.5 61.199219 81.5 L 56.199219 81.5 z M 64.199219 81.5 C 63.899219 81.5 63.699219 81.7 63.699219 82 C 63.699219 82.3 63.899219 82.5 64.199219 82.5 L 81.199219 82.5 C 81.499219 82.5 81.699219 82.3 81.699219 82 C 81.699219 81.7 81.499219 81.5 81.199219 81.5 L 64.199219 81.5 z "/></svg>