<svg xmlns="http://www.w3.org/2000/svg" xmlns:xlink="http://www.w3.org/1999/xlink" id="Layer_1" enable-background="new 0 0 100 100" viewBox="0 0 100 100"><defs id="defs158"><linearGradient id="linearGradient4320"><stop id="stop4322" offset="0" stop-color="#000092"/><stop id="stop4324" offset="1" stop-color="#ff00f3"/></linearGradient><linearGradient id="linearGradient4326" x1="20.5" x2="74" y1="58.55" y2="58.55" gradientUnits="userSpaceOnUse" xlink:href="#linearGradient4320"/></defs><symbol id="navbar_x5F_icon_x5F_back_1_" viewBox="-1 -24 25 24"><g id="g6" opacity=".9"><g id="g10"><g id="g12"><path id="path14" fill="none" stroke="#fff" stroke-miterlimit="10" stroke-width="2" d="M18-19c0-0.4,0-0.5-0.3-0.3l-12,7c-0.3,0.2-0.2,0.5,0.1,0.6l11.9,7C18-4.5,18-4.7,18-5V-19z"/></g></g></g><rect id="rect16" width="24" height="24" y="-24" fill="none"/><rect id="rect18" width="25" height="24" x="-1" y="-24" fill="none" display="none"/></symbol><symbol id="navbar_x5F_icon_x5F_home_1_" viewBox="0 -24 24 24"><g id="g21" opacity=".9"><g id="XMLID_809_"><circle id="XMLID_814_" cx="12" cy="-12" r="6.9" fill="none" stroke="#fff" stroke-miterlimit="10" stroke-width="1.803"/></g></g><rect id="rect26" width="24" height="24" y="-24" fill="none"/><rect id="rect28" width="24" height="23" y="-24" fill="none" display="none"/></symbol><symbol id="navbar_x5F_icon_x5F_recents_1_" viewBox="0 -24 24 24"><g id="g31" opacity=".9"><g id="g35"><g id="g37"><path id="path39" fill="none" stroke="#fff" stroke-miterlimit="10" stroke-width="2" d="M19-5.7C19-5.4,18.6-5,18.2-5H5.8C5.4-5,5-5.4,5-5.7v-12.6C5-18.6,5.4-19,5.8-19h12.4      c0.4,0,0.8,0.4,0.8,0.7V-5.7z"/></g></g></g><rect id="rect41" width="24" height="24" y="-24" fill="none"/><rect id="rect43" width="24" height="23" y="-24" fill="none" display="none"/></symbol><symbol id="sysbar_x5F_status_2" viewBox="0 -24 360 24"><use id="XMLID_495_" width="360" height="24" y="-24" overflow="visible" xlink:href="#sysbar_x5F_status_x5F_used_x5F_light"/></symbol><symbol id="sysbar_x5F_status_x5F_used_x5F_light" viewBox="0 -24 360 24"><rect id="rect48" width="360" height="24" y="-24" fill="#010101" fill-opacity="0"/><g id="g50"><g id="g52" opacity=".9"><rect id="rect54" width="40" height="16" x="312" y="-21" fill="none"/></g><g id="g58"><g id="g60" opacity=".9"><path id="path62" fill="#fff" d="M266-19l8.8,10.9C274.5-7.8,271.1-5,266-5s-8.5-2.8-8.8-3.1L266-19L266-19L266-19L266-19L266-19z" opacity=".9"/></g><rect id="rect64" width="16" height="16" x="258" y="-20" fill="none"/></g><g id="g66"><polygon id="polygon68" fill="#fff" points="277 -19 291 -19 291 -5" opacity=".9"/><rect id="rect70" width="16" height="16" x="276" y="-20" fill="none"/></g><g id="g72"><rect id="rect74" width="16" height="16" x="296" y="-20" fill="none"/><path id="path76" fill="#fff" d="M306-6v1h-3v-1h-3v-13h9v13H306z" opacity=".9"/></g></g></symbol><path id="path98" fill="url(#linearGradient4326)" d="M 26 34.5 C 25.7 34.5 25.5 34.7 25.5 35 L 25.5 36.699219 L 25 37.099609 C 24.1 37.699609 23.5 38.700781 23.5 39.800781 L 23.5 40.599609 L 23 40.599609 C 22.7 40.599609 22.5 40.799609 22.5 41.099609 C 22.5 41.399609 22.7 41.599609 23 41.599609 L 23.5 41.599609 L 23.5 43 L 23.5 46.599609 L 23 46.599609 C 22.7 46.599609 22.5 46.799609 22.5 47.099609 L 22.5 53.599609 L 21 53.599609 C 20.7 53.599609 20.5 53.799609 20.5 54.099609 L 20.5 57.099609 C 20.5 57.399609 20.7 57.599609 21 57.599609 L 22.5 57.599609 L 22.5 81.599609 L 21 81.599609 C 20.7 81.599609 20.5 81.799609 20.5 82.099609 C 20.5 82.399609 20.7 82.599609 21 82.599609 L 23 82.599609 L 29 82.599609 L 39 82.599609 L 45 82.599609 L 55 82.599609 L 61 82.599609 L 71 82.599609 L 77 82.599609 L 79 82.599609 C 79.3 82.599609 79.5 82.399609 79.5 82.099609 C 79.5 81.799609 79.3 81.599609 79 81.599609 L 77.5 81.599609 L 77.5 57.599609 L 79 57.599609 L 79 57.5 C 79.3 57.5 79.5 57.3 79.5 57 L 79.5 54 C 79.5 53.7 79.3 53.5 79 53.5 L 77.5 53.5 L 77.5 47 C 77.5 46.7 77.3 46.5 77 46.5 L 76.5 46.5 L 76.5 42.900391 L 76.5 41.5 L 77 41.5 C 77.3 41.5 77.5 41.3 77.5 41 C 77.5 40.7 77.3 40.5 77 40.5 L 76.5 40.5 L 76.5 39.699219 C 76.5 38.599219 76 37.6 75 37 L 74.5 36.699219 L 74.5 35 C 74.5 34.7 74.3 34.5 74 34.5 C 73.7 34.5 73.5 34.7 73.5 35 L 73.5 36.699219 L 73 37.099609 C 72.1 37.699609 71.5 38.700781 71.5 39.800781 L 71.5 40.599609 L 71 40.599609 C 70.7 40.599609 70.5 40.799609 70.5 41.099609 C 70.5 41.399609 70.7 41.599609 71 41.599609 L 71.5 41.599609 L 71.5 43 L 71.5 43.5 C 71.4 43.5 71.400781 43.400391 71.300781 43.400391 L 71 43 L 71 42.5 C 71 42.2 70.8 42 70.5 42 C 70.2 42 70 42.2 70 42.5 L 70 43 L 69.599609 43.199219 C 69.299609 43.399219 69.1 43.600781 69 43.800781 C 68.8 43.600781 68.600781 43.299219 68.300781 43.199219 L 68 43 L 68 42.5 C 68 42.2 67.8 42 67.5 42 C 67.2 42 67 42.2 67 42.5 L 67 43 L 66.599609 43.199219 C 66.299609 43.399219 66.1 43.600781 66 43.800781 C 65.8 43.600781 65.600781 43.299219 65.300781 43.199219 L 65 43 L 65 42.5 C 65 42.2 64.8 42 64.5 42 C 64.2 42 64 42.2 64 42.5 L 64 43 L 63.599609 43.199219 C 63.299609 43.399219 63.1 43.600781 63 43.800781 C 62.8 43.600781 62.600781 43.299219 62.300781 43.199219 L 62 43 L 62 42.5 C 62 42.2 61.8 42 61.5 42 C 61.2 42 61 42.2 61 42.5 L 61 43 L 60.599609 43.199219 C 60.299609 43.399219 60.1 43.600781 60 43.800781 C 59.8 43.600781 59.600781 43.299219 59.300781 43.199219 L 59 43 L 59 42.5 C 59 42.2 58.8 42 58.5 42 C 58.2 42 58 42.2 58 42.5 L 58 43 L 57.599609 43.199219 C 56.899609 43.699219 56.5 44.400781 56.5 45.300781 L 56.5 46.400391 L 55 46.400391 L 55 42.199219 C 55 41.199219 54.400391 40.3 53.400391 40 L 53.400391 39.900391 L 53.400391 39.400391 C 53.400391 39.100391 53.200391 38.900391 52.900391 38.900391 C 52.600391 38.900391 52.400391 39.100391 52.400391 39.400391 L 52.400391 40 L 50.400391 40 L 50.400391 39.5 C 50.400391 39.2 50.200391 39 49.900391 39 C 49.600391 39 49.400391 39.2 49.400391 39.5 L 49.400391 40 L 47.400391 40 L 47.400391 39.5 C 47.400391 39.2 47.200391 39 46.900391 39 C 46.600391 39 46.400391 39.2 46.400391 39.5 L 46.400391 40 L 46.400391 40.099609 C 45.500391 40.499609 44.900391 41.300781 44.900391 42.300781 L 44.900391 45.199219 L 44.900391 45.300781 L 44.900391 46.400391 L 43.400391 46.400391 L 43.400391 45.300781 C 43.400391 44.400781 42.999219 43.699219 42.199219 43.199219 L 42 43 L 42 42.5 C 42 42.2 41.8 42 41.5 42 C 41.2 42 41 42.2 41 42.5 L 41 43 L 40.599609 43.199219 C 40.299609 43.399219 40.1 43.600781 40 43.800781 C 39.8 43.600781 39.600781 43.299219 39.300781 43.199219 L 39 43 L 39 42.5 C 39 42.2 38.8 42 38.5 42 C 38.2 42 38 42.2 38 42.5 L 38 43 L 37.599609 43.199219 C 37.299609 43.399219 37.1 43.600781 37 43.800781 C 36.8 43.600781 36.600781 43.299219 36.300781 43.199219 L 36 43 L 36 42.5 C 36 42.2 35.8 42 35.5 42 C 35.2 42 35 42.2 35 42.5 L 35 43 L 34.599609 43.199219 C 34.299609 43.399219 34.1 43.600781 34 43.800781 C 33.8 43.600781 33.600781 43.299219 33.300781 43.199219 L 33 43 L 33 42.5 C 33 42.2 32.8 42 32.5 42 C 32.2 42 32 42.2 32 42.5 L 32 43 L 31.599609 43.199219 C 31.299609 43.399219 31.1 43.600781 31 43.800781 C 30.8 43.600781 30.600781 43.299219 30.300781 43.199219 L 30 43 L 30 42.5 C 30 42.2 29.8 42 29.5 42 C 29.2 42 29 42.2 29 42.5 L 29 43 L 28.599609 43.199219 C 28.499609 43.199219 28.5 43.300781 28.5 43.300781 L 28.5 42.800781 L 28.5 41.400391 L 29 41.400391 C 29.3 41.400391 29.5 41.200391 29.5 40.900391 C 29.5 40.600391 29.3 40.400391 29 40.400391 L 28.5 40.400391 L 28.5 39.599609 C 28.5 38.499609 28 37.500391 27 36.900391 L 26.5 36.599609 L 26.5 35 C 26.5 34.7 26.3 34.5 26 34.5 z M 26 37.599609 L 26.5 37.900391 C 27.1 38.300391 27.5 38.999219 27.5 39.699219 L 27.5 40.5 L 24.5 40.5 L 24.5 39.699219 C 24.5 38.999219 24.9 38.300391 25.5 37.900391 L 26 37.599609 z M 74 37.599609 L 74.5 37.900391 C 75.1 38.300391 75.5 38.999219 75.5 39.699219 L 75.5 40.5 L 72.5 40.5 L 72.5 39.699219 C 72.5 38.999219 72.9 38.300391 73.5 37.900391 L 74 37.599609 z M 47 41 L 52.900391 41 C 53.500391 41.2 54 41.700781 54 42.300781 L 54 43.400391 L 53.800781 43.199219 L 53.400391 43 L 53.400391 42.5 C 53.400391 42.2 53.200391 42 52.900391 42 C 52.600391 42 52.400391 42.2 52.400391 42.5 L 52.400391 43 L 52 43.199219 C 51.7 43.399219 51.500391 43.600781 51.400391 43.800781 C 51.200391 43.600781 50.999219 43.299219 50.699219 43.199219 L 50.400391 43 L 50.400391 42.5 C 50.400391 42.2 50.200391 42 49.900391 42 C 49.600391 42 49.400391 42.2 49.400391 42.5 L 49.400391 43 L 49 43.199219 C 48.7 43.399219 48.500391 43.600781 48.400391 43.800781 C 48.200391 43.600781 47.999219 43.299219 47.699219 43.199219 L 47.400391 43 L 47.400391 42.5 C 47.400391 42.2 47.200391 42 46.900391 42 C 46.600391 42 46.400391 42.2 46.400391 42.5 L 46.400391 43 L 46 43.199219 L 45.900391 43.300781 L 45.900391 42.300781 C 46.000391 41.700781 46.4 41.1 47 41 z M 24.5 41.5 L 27.5 41.5 L 27.5 42.900391 L 27.5 45.400391 L 27.5 46.5 L 26.5 46.5 L 26.5 44 C 26.5 43.7 26.3 43.5 26 43.5 C 25.7 43.5 25.5 43.7 25.5 44 L 25.5 46.5 L 24.5 46.5 L 24.5 42.900391 L 24.5 41.5 z M 72.5 41.5 L 75.5 41.5 L 75.5 42.900391 L 75.5 46.5 L 74.5 46.5 L 74.5 44 C 74.5 43.7 74.3 43.5 74 43.5 C 73.7 43.5 73.5 43.7 73.5 44 L 73.5 46.5 L 72.5 46.5 L 72.5 45.400391 L 72.5 42.900391 L 72.5 41.5 z M 29.5 43.900391 L 29.800781 44.099609 C 30.200781 44.399609 30.5 44.800391 30.5 45.400391 L 30.5 46.5 L 28.5 46.5 L 28.5 45.400391 C 28.5 44.800391 28.799219 44.399609 29.199219 44.099609 L 29.5 43.900391 z M 32.5 43.900391 L 32.800781 44.099609 C 33.200781 44.399609 33.5 44.800391 33.5 45.400391 L 33.5 46.5 L 31.5 46.5 L 31.5 45.400391 C 31.5 44.800391 31.799219 44.399609 32.199219 44.099609 L 32.5 43.900391 z M 35.5 43.900391 L 35.800781 44.099609 C 36.200781 44.399609 36.5 44.800391 36.5 45.400391 L 36.5 46.5 L 34.5 46.5 L 34.5 45.400391 C 34.5 44.800391 34.799219 44.399609 35.199219 44.099609 L 35.5 43.900391 z M 38.5 43.900391 L 38.800781 44.099609 C 39.200781 44.399609 39.5 44.800391 39.5 45.400391 L 39.5 46.5 L 37.5 46.5 L 37.5 45.400391 C 37.5 44.800391 37.799219 44.399609 38.199219 44.099609 L 38.5 43.900391 z M 41.5 43.900391 L 41.800781 44.099609 C 42.200781 44.399609 42.5 44.800391 42.5 45.400391 L 42.5 46.5 L 40.5 46.5 L 40.5 45.400391 C 40.5 44.800391 40.799219 44.399609 41.199219 44.099609 L 41.5 43.900391 z M 47 43.900391 L 47.300781 44.099609 C 47.700781 44.399609 48 44.800391 48 45.400391 L 48 46.5 L 46 46.5 L 46 45.199219 C 46 44.699219 46.299219 44.299609 46.699219 44.099609 L 47 43.900391 z M 50 43.900391 L 50.300781 44.099609 C 50.700781 44.399609 51 44.800391 51 45.400391 L 51 46.5 L 49 46.5 L 49 45.400391 C 49 44.900391 49.299219 44.399609 49.699219 44.099609 L 50 43.900391 z M 52.900391 43.900391 L 53.199219 44.099609 C 53.599219 44.399609 53.900391 44.800391 53.900391 45.400391 L 53.900391 46.5 L 51.900391 46.5 L 51.900391 45.400391 C 52.000391 44.800391 52.199609 44.399609 52.599609 44.099609 L 52.900391 43.900391 z M 58.5 43.900391 L 58.800781 44.099609 C 59.200781 44.399609 59.5 44.800391 59.5 45.400391 L 59.5 46.5 L 57.5 46.5 L 57.5 45.400391 C 57.5 44.900391 57.799219 44.399609 58.199219 44.099609 L 58.5 43.900391 z M 61.5 43.900391 L 61.800781 44.099609 C 62.200781 44.399609 62.5 44.800391 62.5 45.400391 L 62.5 46.5 L 60.5 46.5 L 60.5 45.400391 C 60.5 44.800391 60.799219 44.399609 61.199219 44.099609 L 61.5 43.900391 z M 64.5 43.900391 L 64.800781 44.099609 C 65.200781 44.399609 65.5 44.800391 65.5 45.400391 L 65.5 46.5 L 63.5 46.5 L 63.5 45.400391 C 63.5 44.800391 63.799219 44.399609 64.199219 44.099609 L 64.5 43.900391 z M 67.5 43.900391 L 67.800781 44.099609 C 68.200781 44.399609 68.5 44.800391 68.5 45.400391 L 68.5 46.5 L 66.5 46.5 L 66.5 45.400391 C 66.5 44.800391 66.799219 44.399609 67.199219 44.099609 L 67.5 43.900391 z M 70.5 43.900391 L 70.800781 44.099609 C 71.200781 44.399609 71.5 44.800391 71.5 45.400391 L 71.5 46.5 L 69.5 46.5 L 69.5 45.400391 C 69.5 44.800391 69.799219 44.399609 70.199219 44.099609 L 70.5 43.900391 z M 23.5 47.5 L 24 47.5 L 28 47.5 L 72 47.5 L 76 47.5 L 76.5 47.5 L 76.5 53.5 L 23.5 53.5 L 23.5 47.5 z M 26 48.5 C 25.2 48.5 24.5 49.2 24.5 50 L 24.5 52 C 24.5 52.3 24.7 52.5 25 52.5 L 27 52.5 C 27.3 52.5 27.5 52.3 27.5 52 L 27.5 50 C 27.5 49.2 26.8 48.5 26 48.5 z M 32 48.5 C 31.2 48.5 30.5 49.2 30.5 50 L 30.5 52 C 30.5 52.3 30.7 52.5 31 52.5 L 33 52.5 C 33.3 52.5 33.5 52.3 33.5 52 L 33.5 50 C 33.5 49.2 32.8 48.5 32 48.5 z M 36 48.5 C 35.2 48.5 34.5 49.2 34.5 50 L 34.5 52 C 34.5 52.3 34.7 52.5 35 52.5 L 37 52.5 C 37.3 52.5 37.5 52.3 37.5 52 L 37.5 50 C 37.5 49.2 36.8 48.5 36 48.5 z M 42 48.5 C 41.2 48.5 40.5 49.2 40.5 50 L 40.5 52 C 40.5 52.3 40.7 52.5 41 52.5 L 43 52.5 C 43.3 52.5 43.5 52.3 43.5 52 L 43.5 50 C 43.5 49.2 42.8 48.5 42 48.5 z M 48 48.5 C 47.2 48.5 46.5 49.2 46.5 50 L 46.5 52 C 46.5 52.3 46.7 52.5 47 52.5 L 49 52.5 C 49.3 52.5 49.5 52.3 49.5 52 L 49.5 50 C 49.5 49.2 48.8 48.5 48 48.5 z M 52 48.5 C 51.2 48.5 50.5 49.2 50.5 50 L 50.5 52 C 50.5 52.3 50.7 52.5 51 52.5 L 53 52.5 C 53.3 52.5 53.5 52.3 53.5 52 L 53.5 50 C 53.5 49.2 52.8 48.5 52 48.5 z M 58 48.5 C 57.2 48.5 56.5 49.2 56.5 50 L 56.5 52 C 56.5 52.3 56.7 52.5 57 52.5 L 59 52.5 C 59.3 52.5 59.5 52.3 59.5 52 L 59.5 50 C 59.5 49.2 58.8 48.5 58 48.5 z M 64 48.5 C 63.2 48.5 62.5 49.2 62.5 50 L 62.5 52 C 62.5 52.3 62.7 52.5 63 52.5 L 65 52.5 C 65.3 52.5 65.5 52.3 65.5 52 L 65.5 50 C 65.5 49.2 64.8 48.5 64 48.5 z M 68 48.5 C 67.2 48.5 66.5 49.2 66.5 50 L 66.5 52 C 66.5 52.3 66.7 52.5 67 52.5 L 69 52.5 C 69.3 52.5 69.5 52.3 69.5 52 L 69.5 50 C 69.5 49.2 68.8 48.5 68 48.5 z M 74 48.5 C 73.2 48.5 72.5 49.2 72.5 50 L 72.5 52 C 72.5 52.3 72.7 52.5 73 52.5 L 75 52.5 C 75.3 52.5 75.5 52.3 75.5 52 L 75.5 50 C 75.5 49.2 74.8 48.5 74 48.5 z M 26 49.5 C 26.3 49.5 26.5 49.7 26.5 50 L 26.5 51.5 L 25.5 51.5 L 25.5 50 C 25.5 49.7 25.7 49.5 26 49.5 z M 32 49.5 C 32.3 49.5 32.5 49.7 32.5 50 L 32.5 51.5 L 31.5 51.5 L 31.5 50 C 31.5 49.7 31.7 49.5 32 49.5 z M 36 49.5 C 36.3 49.5 36.5 49.7 36.5 50 L 36.5 51.5 L 35.5 51.5 L 35.5 50 C 35.5 49.7 35.7 49.5 36 49.5 z M 42 49.5 C 42.3 49.5 42.5 49.7 42.5 50 L 42.5 51.5 L 41.5 51.5 L 41.5 50 C 41.5 49.7 41.7 49.5 42 49.5 z M 48 49.5 C 48.3 49.5 48.5 49.7 48.5 50 L 48.5 51.5 L 47.5 51.5 L 47.5 50 C 47.5 49.7 47.7 49.5 48 49.5 z M 52 49.5 C 52.3 49.5 52.5 49.7 52.5 50 L 52.5 51.5 L 51.5 51.5 L 51.5 50 C 51.5 49.7 51.7 49.5 52 49.5 z M 58 49.5 C 58.3 49.5 58.5 49.7 58.5 50 L 58.5 51.5 L 57.5 51.5 L 57.5 50 C 57.5 49.7 57.7 49.5 58 49.5 z M 64 49.5 C 64.3 49.5 64.5 49.7 64.5 50 L 64.5 51.5 L 63.5 51.5 L 63.5 50 C 63.5 49.7 63.7 49.5 64 49.5 z M 68 49.5 C 68.3 49.5 68.5 49.7 68.5 50 L 68.5 51.5 L 67.5 51.5 L 67.5 50 C 67.5 49.7 67.7 49.5 68 49.5 z M 74 49.5 C 74.3 49.5 74.5 49.7 74.5 50 L 74.5 51.5 L 73.5 51.5 L 73.5 50 C 73.5 49.7 73.7 49.5 74 49.5 z M 21.5 54.5 L 78.5 54.5 L 78.5 56.5 L 71 56.5 L 61 56.5 L 55 56.5 L 45 56.5 L 39 56.5 L 29 56.5 L 21.5 56.5 L 21.5 54.5 z M 23.5 57.5 L 28.5 57.5 L 28.5 81.5 L 23.5 81.5 L 23.5 57.5 z M 29.5 57.5 L 38.5 57.5 L 38.5 65.5 L 29.5 65.5 L 29.5 57.5 z M 39.5 57.5 L 44.5 57.5 L 44.5 65.5 L 39.5 65.5 L 39.5 57.5 z M 45.5 57.5 L 54.5 57.5 L 54.5 65.5 L 45.5 65.5 L 45.5 57.5 z M 55.5 57.5 L 60.5 57.5 L 60.5 65.5 L 55.5 65.5 L 55.5 57.5 z M 61.5 57.5 L 70.5 57.5 L 70.5 65.5 L 61.5 65.5 L 61.5 57.5 z M 71.5 57.5 L 76.5 57.5 L 76.5 81.5 L 71.5 81.5 L 71.5 57.5 z M 26 59.5 C 25.2 59.5 24.5 60.2 24.5 61 L 24.5 64 C 24.5 64.3 24.7 64.5 25 64.5 L 27 64.5 C 27.3 64.5 27.5 64.3 27.5 64 L 27.5 61 C 27.5 60.2 26.8 59.5 26 59.5 z M 32 59.5 C 31.2 59.5 30.5 60.2 30.5 61 L 30.5 64 C 30.5 64.3 30.7 64.5 31 64.5 L 33 64.5 C 33.3 64.5 33.5 64.3 33.5 64 L 33.5 61 C 33.5 60.2 32.8 59.5 32 59.5 z M 36 59.5 C 35.2 59.5 34.5 60.2 34.5 61 L 34.5 64 C 34.5 64.3 34.7 64.5 35 64.5 L 37 64.5 C 37.3 64.5 37.5 64.3 37.5 64 L 37.5 61 C 37.5 60.2 36.8 59.5 36 59.5 z M 42 59.5 C 41.2 59.5 40.5 60.2 40.5 61 L 40.5 64 C 40.5 64.3 40.7 64.5 41 64.5 L 43 64.5 C 43.3 64.5 43.5 64.3 43.5 64 L 43.5 61 C 43.5 60.2 42.8 59.5 42 59.5 z M 48 59.5 C 47.2 59.5 46.5 60.2 46.5 61 L 46.5 64 C 46.5 64.3 46.7 64.5 47 64.5 L 49 64.5 C 49.3 64.5 49.5 64.3 49.5 64 L 49.5 61 C 49.5 60.2 48.8 59.5 48 59.5 z M 52 59.5 C 51.2 59.5 50.5 60.2 50.5 61 L 50.5 64 C 50.5 64.3 50.7 64.5 51 64.5 L 53 64.5 C 53.3 64.5 53.5 64.3 53.5 64 L 53.5 61 C 53.5 60.2 52.8 59.5 52 59.5 z M 58 59.5 C 57.2 59.5 56.5 60.2 56.5 61 L 56.5 64 C 56.5 64.3 56.7 64.5 57 64.5 L 59 64.5 C 59.3 64.5 59.5 64.3 59.5 64 L 59.5 61 C 59.5 60.2 58.8 59.5 58 59.5 z M 64 59.5 C 63.2 59.5 62.5 60.2 62.5 61 L 62.5 64 C 62.5 64.3 62.7 64.5 63 64.5 L 65 64.5 C 65.3 64.5 65.5 64.3 65.5 64 L 65.5 61 C 65.5 60.2 64.8 59.5 64 59.5 z M 68 59.5 C 67.2 59.5 66.5 60.2 66.5 61 L 66.5 64 C 66.5 64.3 66.7 64.5 67 64.5 L 69 64.5 C 69.3 64.5 69.5 64.3 69.5 64 L 69.5 61 C 69.5 60.2 68.8 59.5 68 59.5 z M 74 59.5 C 73.2 59.5 72.5 60.2 72.5 61 L 72.5 64 C 72.5 64.3 72.7 64.5 73 64.5 L 75 64.5 C 75.3 64.5 75.5 64.3 75.5 64 L 75.5 61 C 75.5 60.2 74.8 59.5 74 59.5 z M 26 60.5 C 26.3 60.5 26.5 60.7 26.5 61 L 26.5 63.5 L 25.5 63.5 L 25.5 61 C 25.5 60.7 25.7 60.5 26 60.5 z M 32 60.5 C 32.3 60.5 32.5 60.7 32.5 61 L 32.5 63.5 L 31.5 63.5 L 31.5 61 C 31.5 60.7 31.7 60.5 32 60.5 z M 36 60.5 C 36.3 60.5 36.5 60.7 36.5 61 L 36.5 63.5 L 35.5 63.5 L 35.5 61 C 35.5 60.7 35.7 60.5 36 60.5 z M 42 60.5 C 42.3 60.5 42.5 60.7 42.5 61 L 42.5 63.5 L 41.5 63.5 L 41.5 61 C 41.5 60.7 41.7 60.5 42 60.5 z M 48 60.5 C 48.3 60.5 48.5 60.7 48.5 61 L 48.5 63.5 L 47.5 63.5 L 47.5 61 C 47.5 60.7 47.7 60.5 48 60.5 z M 52 60.5 C 52.3 60.5 52.5 60.7 52.5 61 L 52.5 63.5 L 51.5 63.5 L 51.5 61 C 51.5 60.7 51.7 60.5 52 60.5 z M 58 60.5 C 58.3 60.5 58.5 60.7 58.5 61 L 58.5 63.5 L 57.5 63.5 L 57.5 61 C 57.5 60.7 57.7 60.5 58 60.5 z M 64 60.5 C 64.3 60.5 64.5 60.7 64.5 61 L 64.5 63.5 L 63.5 63.5 L 63.5 61 C 63.5 60.7 63.7 60.5 64 60.5 z M 68 60.5 C 68.3 60.5 68.5 60.7 68.5 61 L 68.5 63.5 L 67.5 63.5 L 67.5 61 C 67.5 60.7 67.7 60.5 68 60.5 z M 74 60.5 C 74.3 60.5 74.5 60.7 74.5 61 L 74.5 63.5 L 73.5 63.5 L 73.5 61 C 73.5 60.7 73.7 60.5 74 60.5 z M 29.5 66.5 L 38.5 66.5 L 38.5 81.5 L 37.5 81.5 L 37.5 73.099609 C 37.5 71.599609 36.700391 70.100781 35.400391 69.300781 L 34.300781 68.599609 C 34.100781 68.499609 33.900781 68.499609 33.800781 68.599609 L 32.599609 69.300781 C 31.299609 70.100781 30.5 71.499609 30.5 73.099609 L 30.5 81.5 L 29.5 81.5 L 29.5 66.5 z M 39.5 66.5 L 44.5 66.5 L 44.5 81.5 L 39.5 81.5 L 39.5 66.5 z M 45.5 66.5 L 54.5 66.5 L 54.5 81.5 L 53.5 81.5 L 53.5 73.099609 C 53.5 71.599609 52.700391 70.100781 51.400391 69.300781 L 50.300781 68.599609 C 50.100781 68.499609 49.900781 68.499609 49.800781 68.599609 L 48.599609 69.300781 C 47.299609 70.100781 46.5 71.499609 46.5 73.099609 L 46.5 81.5 L 45.5 81.5 L 45.5 66.5 z M 55.5 66.5 L 60.5 66.5 L 60.5 81.5 L 55.5 81.5 L 55.5 66.5 z M 61.5 66.5 L 70.5 66.5 L 70.5 81.5 L 69.5 81.5 L 69.5 73.099609 C 69.5 71.599609 68.700391 70.100781 67.400391 69.300781 L 66.300781 68.599609 C 66.100781 68.499609 65.900781 68.499609 65.800781 68.599609 L 64.599609 69.300781 C 63.299609 70.100781 62.5 71.499609 62.5 73.099609 L 62.5 81.5 L 61.5 81.5 L 61.5 66.5 z M 26 67.5 C 25.2 67.5 24.5 68.2 24.5 69 L 24.5 72 C 24.5 72.3 24.7 72.5 25 72.5 L 27 72.5 C 27.3 72.5 27.5 72.3 27.5 72 L 27.5 69 C 27.5 68.2 26.8 67.5 26 67.5 z M 42 67.5 C 41.2 67.5 40.5 68.2 40.5 69 L 40.5 72 C 40.5 72.3 40.7 72.5 41 72.5 L 43 72.5 C 43.3 72.5 43.5 72.3 43.5 72 L 43.5 69 C 43.5 68.2 42.8 67.5 42 67.5 z M 58 67.5 C 57.2 67.5 56.5 68.2 56.5 69 L 56.5 72 C 56.5 72.3 56.7 72.5 57 72.5 L 59 72.5 C 59.3 72.5 59.5 72.3 59.5 72 L 59.5 69 C 59.5 68.2 58.8 67.5 58 67.5 z M 74 67.5 C 73.2 67.5 72.5 68.2 72.5 69 L 72.5 72 C 72.5 72.3 72.7 72.5 73 72.5 L 75 72.5 C 75.3 72.5 75.5 72.3 75.5 72 L 75.5 69 C 75.5 68.2 74.8 67.5 74 67.5 z M 26 68.5 C 26.3 68.5 26.5 68.7 26.5 69 L 26.5 71.5 L 25.5 71.5 L 25.5 69 C 25.5 68.7 25.7 68.5 26 68.5 z M 42 68.5 C 42.3 68.5 42.5 68.7 42.5 69 L 42.5 71.5 L 41.5 71.5 L 41.5 69 C 41.5 68.7 41.7 68.5 42 68.5 z M 58 68.5 C 58.3 68.5 58.5 68.7 58.5 69 L 58.5 71.5 L 57.5 71.5 L 57.5 69 C 57.5 68.7 57.7 68.5 58 68.5 z M 74 68.5 C 74.3 68.5 74.5 68.7 74.5 69 L 74.5 71.5 L 73.5 71.5 L 73.5 69 C 73.5 68.7 73.7 68.5 74 68.5 z M 34 69.599609 L 34.900391 70.199219 C 35.900391 70.799219 36.5 71.899219 36.5 73.199219 L 36.5 81.5 L 31.5 81.5 L 31.5 73.099609 C 31.5 71.899609 32.099609 70.799219 33.099609 70.199219 L 34 69.599609 z M 50 69.599609 L 50.900391 70.199219 C 51.900391 70.799219 52.5 71.899219 52.5 73.199219 L 52.5 81.5 L 47.5 81.5 L 47.5 73.099609 C 47.5 71.899609 48.099609 70.799219 49.099609 70.199219 L 50 69.599609 z M 66 69.599609 L 66.900391 70.199219 C 67.900391 70.799219 68.5 71.899219 68.5 73.199219 L 68.5 81.5 L 63.5 81.5 L 63.5 73.099609 C 63.5 71.899609 64.099609 70.799219 65.099609 70.199219 L 66 69.599609 z M 26 74.5 C 25.2 74.5 24.5 75.2 24.5 76 L 24.5 79 C 24.5 79.3 24.7 79.5 25 79.5 L 27 79.5 C 27.3 79.5 27.5 79.3 27.5 79 L 27.5 76 C 27.5 75.2 26.8 74.5 26 74.5 z M 42 74.5 C 41.2 74.5 40.5 75.2 40.5 76 L 40.5 79 C 40.5 79.3 40.7 79.5 41 79.5 L 43 79.5 C 43.3 79.5 43.5 79.3 43.5 79 L 43.5 76 C 43.5 75.2 42.8 74.5 42 74.5 z M 58 74.5 C 57.2 74.5 56.5 75.2 56.5 76 L 56.5 79 C 56.5 79.3 56.7 79.5 57 79.5 L 59 79.5 C 59.3 79.5 59.5 79.3 59.5 79 L 59.5 76 C 59.5 75.2 58.8 74.5 58 74.5 z M 74 74.5 C 73.2 74.5 72.5 75.2 72.5 76 L 72.5 79 C 72.5 79.3 72.7 79.5 73 79.5 L 75 79.5 C 75.3 79.5 75.5 79.3 75.5 79 L 75.5 76 C 75.5 75.2 74.8 74.5 74 74.5 z M 26 75.5 C 26.3 75.5 26.5 75.7 26.5 76 L 26.5 78.5 L 25.5 78.5 L 25.5 76 C 25.5 75.7 25.7 75.5 26 75.5 z M 42 75.5 C 42.3 75.5 42.5 75.7 42.5 76 L 42.5 78.5 L 41.5 78.5 L 41.5 76 C 41.5 75.7 41.7 75.5 42 75.5 z M 58 75.5 C 58.3 75.5 58.5 75.7 58.5 76 L 58.5 78.5 L 57.5 78.5 L 57.5 76 C 57.5 75.7 57.7 75.5 58 75.5 z M 74 75.5 C 74.3 75.5 74.5 75.7 74.5 76 L 74.5 78.5 L 73.5 78.5 L 73.5 76 C 73.5 75.7 73.7 75.5 74 75.5 z "/></svg>