<svg xmlns="http://www.w3.org/2000/svg" xmlns:xlink="http://www.w3.org/1999/xlink" id="Layer_1" enable-background="new 0 0 100 100" viewBox="0 0 100 100"><defs id="defs224"><linearGradient id="linearGradient4419"><stop id="stop4421" offset="0" stop-color="#000092"/><stop id="stop4423" offset="1" stop-color="#ff00f3"/></linearGradient><linearGradient id="linearGradient4425" x1="15.9" x2="76" y1="53.45" y2="53.45" gradientUnits="userSpaceOnUse" xlink:href="#linearGradient4419"/></defs><symbol id="navbar_x5F_icon_x5F_back_1_" viewBox="-1 -24 25 24"><g id="g6" opacity=".9"><g id="g10"><g id="g12"><path id="path14" fill="none" stroke="#fff" stroke-miterlimit="10" stroke-width="2" d="M18-19c0-0.4,0-0.5-0.3-0.3l-12,7c-0.3,0.2-0.2,0.5,0.1,0.6l11.9,7C18-4.5,18-4.7,18-5V-19z"/></g></g></g><rect id="rect16" width="24" height="24" y="-24" fill="none"/><rect id="rect18" width="25" height="24" x="-1" y="-24" fill="none" display="none"/></symbol><symbol id="navbar_x5F_icon_x5F_home_1_" viewBox="0 -24 24 24"><g id="g21" opacity=".9"><g id="XMLID_809_"><circle id="XMLID_814_" cx="12" cy="-12" r="6.9" fill="none" stroke="#fff" stroke-miterlimit="10" stroke-width="1.803"/></g></g><rect id="rect26" width="24" height="24" y="-24" fill="none"/><rect id="rect28" width="24" height="23" y="-24" fill="none" display="none"/></symbol><symbol id="navbar_x5F_icon_x5F_recents_1_" viewBox="0 -24 24 24"><g id="g31" opacity=".9"><g id="g35"><g id="g37"><path id="path39" fill="none" stroke="#fff" stroke-miterlimit="10" stroke-width="2" d="M19-5.7C19-5.4,18.6-5,18.2-5H5.8C5.4-5,5-5.4,5-5.7v-12.6C5-18.6,5.4-19,5.8-19h12.4      c0.4,0,0.8,0.4,0.8,0.7V-5.7z"/></g></g></g><rect id="rect41" width="24" height="24" y="-24" fill="none"/><rect id="rect43" width="24" height="23" y="-24" fill="none" display="none"/></symbol><symbol id="sysbar_x5F_status_2" viewBox="0 -24 360 24"><use id="XMLID_495_" width="360" height="24" y="-24" overflow="visible" xlink:href="#sysbar_x5F_status_x5F_used_x5F_light"/></symbol><symbol id="sysbar_x5F_status_x5F_used_x5F_light" viewBox="0 -24 360 24"><rect id="rect48" width="360" height="24" y="-24" fill="#010101" fill-opacity="0"/><g id="g50"><g id="g52" opacity=".9"><rect id="rect54" width="40" height="16" x="312" y="-21" fill="none"/></g><g id="g58"><g id="g60" opacity=".9"><path id="path62" fill="#fff" d="M266-19l8.8,10.9C274.5-7.8,271.1-5,266-5s-8.5-2.8-8.8-3.1L266-19L266-19L266-19L266-19L266-19z" opacity=".9"/></g><rect id="rect64" width="16" height="16" x="258" y="-20" fill="none"/></g><g id="g66"><polygon id="polygon68" fill="#fff" points="277 -19 291 -19 291 -5" opacity=".9"/><rect id="rect70" width="16" height="16" x="276" y="-20" fill="none"/></g><g id="g72"><rect id="rect74" width="16" height="16" x="296" y="-20" fill="none"/><path id="path76" fill="#fff" d="M306-6v1h-3v-1h-3v-13h9v13H306z" opacity=".9"/></g></g></symbol><path id="path98" fill="url(#linearGradient4425)" d="M 49.599609 23.900391 C 49.299609 23.900391 49.099609 24.100391 49.099609 24.400391 L 49.099609 26.099609 L 47.599609 26.900391 C 46.999609 27.200391 46.600391 27.700781 46.400391 28.300781 C 46.200391 28.000781 45.999219 27.799609 45.699219 27.599609 L 44.900391 27 C 44.700391 26.9 44.500781 26.9 44.300781 27 L 43.5 27.599609 C 42.6 28.199609 42.099609 29.300391 42.099609 30.400391 C 41.899609 30.200391 41.8 30.1 41.5 30 L 40 29.199219 L 40 27.5 C 40 27.2 39.8 27 39.5 27 C 39.2 27 39 27.2 39 27.5 L 39 29.199219 L 37.5 30 C 36.7 30.5 36.2 31.199609 36 32.099609 C 35.9 31.899609 35.7 31.799609 35.5 31.599609 L 34.699219 31 C 34.499219 30.9 34.299609 30.9 34.099609 31 L 33.300781 31.599609 C 32.400781 32.299609 31.900391 33.300391 31.900391 34.400391 L 31.900391 35 L 31.5 34.599609 L 30.699219 34 C 30.499219 33.9 30.299609 33.9 30.099609 34 L 29.300781 34.599609 C 28.400781 35.299609 27.900391 36.300391 27.900391 37.400391 L 27.900391 40.400391 C 27.700391 40.200391 27.600391 40.1 27.400391 40 L 25.900391 39.199219 L 25.900391 37.5 C 25.900391 37.2 25.700391 37 25.400391 37 C 25.100391 37 24.900391 37.2 24.900391 37.5 L 24.900391 39.199219 L 23.400391 40 C 22.400391 40.5 21.900391 41.599219 21.900391 42.699219 L 21.900391 45.099609 L 21.5 44.699219 L 20.699219 44.099609 C 20.499219 43.999609 20.299609 43.999609 20.099609 44.099609 L 19.300781 44.699219 C 18.400781 45.399219 17.900391 46.4 17.900391 47.5 L 17.900391 54.5 L 17.900391 61.5 L 17.900391 66.5 L 17.900391 68.5 L 17.900391 82 L 16.400391 82 C 16.100391 82 15.900391 82.2 15.900391 82.5 C 15.900391 82.8 16.100391 83 16.400391 83 L 18.300781 83 L 18.400391 83 L 22.400391 83 L 28.400391 83 L 32.400391 83 L 36.400391 83 L 42.400391 83 L 46.400391 83 L 52.400391 83 L 56.400391 83 L 62.400391 83 L 66.400391 83 L 70.400391 83 L 76.400391 83 L 80.400391 83 L 80.5 83 L 82.400391 83 C 82.700391 83 82.900391 82.8 82.900391 82.5 C 82.900391 82.2 83.100781 82 82.800781 82 L 81.300781 82 L 81.300781 68.5 L 81.300781 66.5 L 81.300781 61.5 L 81.300781 54.5 L 81.300781 47.5 C 81.300781 46.4 80.800391 45.399219 79.900391 44.699219 L 79.099609 44.099609 C 78.899609 43.999609 78.7 43.999609 78.5 44.099609 L 77.699219 44.699219 C 77.599219 44.799219 77.400781 44.899609 77.300781 45.099609 L 77.300781 42.699219 C 77.300781 41.599219 76.700781 40.6 75.800781 40 L 74.300781 39.199219 L 74.300781 37.5 C 74.300781 37.2 74.100781 37 73.800781 37 C 73.500781 37 73.300781 37.2 73.300781 37.5 L 73.300781 39.199219 L 71.800781 40 C 71.600781 40.1 71.400781 40.300391 71.300781 40.400391 L 71.300781 37.400391 C 71.300781 36.300391 70.800391 35.299609 69.900391 34.599609 L 69.099609 34 C 68.899609 33.9 68.7 33.9 68.5 34 L 67.699219 34.599609 C 67.599219 34.699609 67.400781 34.8 67.300781 35 L 67.300781 34.400391 C 67.300781 33.300391 66.800391 32.299609 65.900391 31.599609 L 65.099609 31 C 64.899609 30.9 64.7 30.9 64.5 31 L 63.699219 31.599609 C 63.499219 31.699609 63.399219 31.899609 63.199219 32.099609 C 62.999219 31.199609 62.499219 30.4 61.699219 30 L 60.199219 29.199219 L 60.199219 27.5 C 60.199219 27.2 59.999219 27 59.699219 27 C 59.399219 27 59.199219 27.2 59.199219 27.5 L 59.199219 29.199219 L 57.699219 30 C 57.499219 30.1 57.299609 30.300391 57.099609 30.400391 C 57.099609 29.300391 56.599219 28.299609 55.699219 27.599609 L 54.900391 27 C 54.700391 26.9 54.500781 26.9 54.300781 27 L 53.5 27.599609 C 53.2 27.799609 53.000781 28.100781 52.800781 28.300781 C 52.500781 27.700781 52.099609 27.200391 51.599609 26.900391 L 50.099609 26.099609 L 50.099609 24.400391 C 50.099609 24.100391 49.899609 23.900391 49.599609 23.900391 z M 49.800781 27.099609 L 51.300781 27.900391 C 51.900781 28.300391 52.300781 28.999219 52.300781 29.699219 L 52.300781 30.5 L 52.300781 35.099609 L 52.300781 37.5 C 52.100781 37.3 52.000781 37.199609 51.800781 37.099609 L 50.099609 36.099609 C 49.899609 35.999609 49.799609 35.999609 49.599609 36.099609 L 47.900391 37.099609 C 47.700391 37.199609 47.500391 37.4 47.400391 37.5 L 47.400391 35.099609 L 47.400391 30.5 L 47.400391 29.699219 L 47.300781 29.699219 C 47.300781 28.999219 47.700781 28.300391 48.300781 27.900391 L 49.800781 27.099609 z M 49.75 28.025391 C 49.675 28.025391 49.6 28.049609 49.5 28.099609 L 49 28.400391 C 48.6 28.600391 48.300781 29.099609 48.300781 29.599609 L 48.300781 31.5 C 48.300781 31.8 48.500781 32 48.800781 32 L 50.800781 32 C 51.100781 32 51.300781 31.8 51.300781 31.5 L 51.300781 29.599609 C 51.300781 29.099609 50.999609 28.700391 50.599609 28.400391 L 50 28.099609 C 49.9 28.049609 49.825 28.025391 49.75 28.025391 z M 44.800781 28.099609 L 45.300781 28.5 C 45.900781 29 46.300781 29.7 46.300781 30.5 L 46.300781 35.099609 L 46.300781 38.099609 L 45.900391 37.699219 L 45.099609 37.099609 C 44.899609 36.999609 44.7 36.999609 44.5 37.099609 L 43.699219 37.699219 C 43.599219 37.799219 43.400781 37.899609 43.300781 38.099609 L 43.300781 37.5 L 43.300781 32.699219 L 43.300781 30.5 C 43.300781 29.7 43.700781 29 44.300781 28.5 L 44.800781 28.099609 z M 54.800781 28.099609 L 55.300781 28.5 C 55.900781 29 56.300781 29.7 56.300781 30.5 L 56.300781 32.699219 L 56.300781 38.099609 L 55.900391 37.699219 L 55.099609 37.099609 C 54.899609 36.999609 54.7 36.999609 54.5 37.099609 L 53.699219 37.699219 C 53.599219 37.799219 53.400781 37.899609 53.300781 38.099609 L 53.300781 35.099609 L 53.300781 30.5 C 53.300781 29.7 53.700781 29 54.300781 28.5 L 54.800781 28.099609 z M 49.800781 29.099609 L 50.099609 29.300781 C 50.199609 29.400781 50.300781 29.499609 50.300781 29.599609 L 50.300781 31 L 49.300781 31 L 49.300781 29.599609 C 49.300781 29.499609 49.4 29.400781 49.5 29.300781 L 49.800781 29.099609 z M 44.800781 30 C 44.500781 30 44.300781 30.2 44.300781 30.5 L 44.300781 35.5 C 44.300781 35.8 44.500781 36 44.800781 36 C 45.100781 36 45.300781 35.8 45.300781 35.5 L 45.300781 30.5 C 45.300781 30.2 45.100781 30 44.800781 30 z M 54.800781 30 C 54.500781 30 54.300781 30.2 54.300781 30.5 L 54.300781 35.5 C 54.300781 35.8 54.500781 36 54.800781 36 C 55.100781 36 55.300781 35.8 55.300781 35.5 L 55.300781 30.5 C 55.300781 30.2 55.100781 30 54.800781 30 z M 39.800781 30.099609 L 41.300781 30.900391 C 41.900781 31.300391 42.300781 31.999219 42.300781 32.699219 L 42.300781 37.5 L 42.300781 39.5 C 42.100781 39.3 42.000781 39.199609 41.800781 39.099609 L 40.099609 38.099609 C 39.899609 37.999609 39.799609 37.999609 39.599609 38.099609 L 37.900391 39.099609 C 37.700391 39.199609 37.500391 39.4 37.400391 39.5 L 37.400391 38.099609 L 37.400391 34.5 L 37.400391 32.699219 L 37.300781 32.699219 C 37.300781 31.999219 37.700781 31.300391 38.300781 30.900391 L 39.800781 30.099609 z M 59.800781 30.099609 L 61.300781 30.900391 C 61.900781 31.300391 62.300781 31.999219 62.300781 32.699219 L 62.300781 34.5 L 62.300781 38.099609 L 62.300781 39.5 C 62.100781 39.3 62.000781 39.199609 61.800781 39.099609 L 60.099609 38.099609 C 59.899609 37.999609 59.799609 37.999609 59.599609 38.099609 L 57.900391 39.099609 C 57.700391 39.199609 57.500391 39.4 57.400391 39.5 L 57.400391 38.099609 L 57.400391 32.699219 C 57.300391 31.999219 57.700781 31.300391 58.300781 30.900391 L 59.800781 30.099609 z M 39.75 31.025391 C 39.675 31.025391 39.6 31.049609 39.5 31.099609 L 39 31.400391 C 38.6 31.600391 38.300781 32.099609 38.300781 32.599609 L 38.300781 34.5 C 38.300781 34.8 38.500781 35 38.800781 35 L 40.800781 35 C 41.100781 35 41.300781 34.8 41.300781 34.5 L 41.300781 32.599609 C 41.300781 32.099609 40.999609 31.700391 40.599609 31.400391 L 40 31.099609 C 39.9 31.049609 39.825 31.025391 39.75 31.025391 z M 59.75 31.025391 C 59.675 31.025391 59.6 31.049609 59.5 31.099609 L 59 31.400391 C 58.6 31.600391 58.300781 32.099609 58.300781 32.599609 L 58.300781 34.5 C 58.300781 34.8 58.500781 35 58.800781 35 L 60.800781 35 C 61.100781 35 61.300781 34.8 61.300781 34.5 L 61.300781 32.599609 C 61.300781 32.099609 60.999609 31.700391 60.599609 31.400391 L 60 31.099609 C 59.9 31.049609 59.825 31.025391 59.75 31.025391 z M 34.800781 32.099609 L 35.300781 32.5 C 35.900781 33 36.300781 33.7 36.300781 34.5 L 36.300781 38.099609 L 36.300781 41.099609 L 35.900391 40.699219 L 35.099609 40.099609 C 34.899609 39.999609 34.7 39.999609 34.5 40.099609 L 33.699219 40.699219 C 33.599219 40.799219 33.400781 40.899609 33.300781 41.099609 L 33.300781 37.5 L 33.300781 34.5 C 33.300781 33.7 33.700781 33 34.300781 32.5 L 34.800781 32.099609 z M 39.800781 32.099609 L 40.099609 32.300781 C 40.199609 32.400781 40.300781 32.499609 40.300781 32.599609 L 40.300781 34 L 39.300781 34 L 39.300781 32.599609 C 39.300781 32.499609 39.4 32.400781 39.5 32.300781 L 39.800781 32.099609 z M 59.800781 32.099609 L 60.099609 32.300781 C 60.199609 32.400781 60.300781 32.499609 60.300781 32.599609 L 60.300781 34 L 59.300781 34 L 59.300781 32.599609 C 59.300781 32.499609 59.4 32.400781 59.5 32.300781 L 59.800781 32.099609 z M 64.800781 32.099609 L 65.300781 32.5 C 65.900781 33 66.300781 33.7 66.300781 34.5 L 66.300781 37.5 L 66.300781 41.099609 L 65.900391 40.699219 L 65.099609 40.099609 C 64.899609 39.999609 64.7 39.999609 64.5 40.099609 L 63.699219 40.699219 C 63.599219 40.799219 63.400781 40.899609 63.300781 41.099609 L 63.300781 38.099609 L 63.300781 34.5 C 63.300781 33.7 63.700781 33 64.300781 32.5 L 64.800781 32.099609 z M 34.800781 34 C 34.500781 34 34.300781 34.2 34.300781 34.5 L 34.300781 38.5 C 34.300781 38.8 34.500781 39 34.800781 39 C 35.100781 39 35.300781 38.8 35.300781 38.5 L 35.300781 34.5 C 35.300781 34.2 35.100781 34 34.800781 34 z M 64.800781 34 C 64.500781 34 64.300781 34.2 64.300781 34.5 L 64.300781 38.5 C 64.300781 38.8 64.500781 39 64.800781 39 C 65.100781 39 65.300781 38.8 65.300781 38.5 L 65.300781 34.5 C 65.300781 34.2 65.100781 34 64.800781 34 z M 30.800781 35.099609 L 31.300781 35.5 C 31.900781 36 32.300781 36.7 32.300781 37.5 L 32.300781 41.5 L 32.300781 42.099609 L 31.900391 41.699219 L 31.099609 41.099609 C 30.899609 40.999609 30.7 40.999609 30.5 41.099609 L 29.699219 41.699219 C 29.599219 41.799219 29.400781 41.899609 29.300781 42.099609 L 29.300781 37.5 C 29.300781 36.7 29.700781 36 30.300781 35.5 L 30.800781 35.099609 z M 68.800781 35.099609 L 69.300781 35.5 C 69.900781 36 70.300781 36.7 70.300781 37.5 L 70.300781 42.099609 L 69.900391 41.699219 L 69.099609 41.099609 C 68.899609 40.999609 68.7 40.999609 68.5 41.099609 L 67.699219 41.699219 C 67.599219 41.799219 67.400781 41.899609 67.300781 42.099609 L 67.300781 41.5 L 67.300781 37.5 C 67.300781 36.7 67.700781 36 68.300781 35.5 L 68.800781 35.099609 z M 30.800781 37 C 30.500781 37 30.300781 37.2 30.300781 37.5 L 30.300781 39.5 C 30.300781 39.8 30.500781 40 30.800781 40 C 31.100781 40 31.300781 39.8 31.300781 39.5 L 31.300781 37.5 C 31.300781 37.2 31.100781 37 30.800781 37 z M 68.800781 37 C 68.500781 37 68.300781 37.2 68.300781 37.5 L 68.300781 39.5 C 68.300781 39.8 68.500781 40 68.800781 40 C 69.100781 40 69.300781 39.8 69.300781 39.5 L 69.300781 37.5 C 69.300781 37.2 69.100781 37 68.800781 37 z M 49.900391 37.099609 L 51.400391 37.900391 C 52.000391 38.300391 52.400391 38.999219 52.400391 39.699219 L 52.400391 40.5 L 52.300781 40.5 L 52.300781 41.5 L 52.300781 45.099609 L 52.300781 47.5 C 52.100781 47.3 52.000781 47.199609 51.800781 47.099609 L 50.099609 46.099609 C 49.899609 45.999609 49.799609 45.999609 49.599609 46.099609 L 47.900391 47.099609 C 47.700391 47.199609 47.500391 47.4 47.400391 47.5 L 47.400391 45.099609 L 47.400391 40.5 L 47.400391 39.699219 C 47.400391 38.999219 47.800391 38.300391 48.400391 37.900391 L 49.900391 37.099609 z M 49.75 38.025391 C 49.675 38.025391 49.6 38.049609 49.5 38.099609 L 49 38.400391 C 48.6 38.600391 48.300781 39.099609 48.300781 39.599609 L 48.300781 41.5 C 48.300781 41.8 48.500781 42 48.800781 42 L 50.800781 42 C 51.100781 42 51.300781 41.8 51.300781 41.5 L 51.300781 39.599609 C 51.300781 39.099609 50.999609 38.600391 50.599609 38.400391 L 50 38.099609 C 49.9 38.049609 49.825 38.025391 49.75 38.025391 z M 44.800781 38.099609 L 45.300781 38.5 C 45.900781 39 46.300781 39.7 46.300781 40.5 L 46.300781 45.099609 L 46.300781 47.099609 L 45.900391 46.699219 L 45.099609 46.099609 C 44.899609 45.999609 44.7 45.999609 44.5 46.099609 L 43.699219 46.699219 C 43.599219 46.799219 43.400781 46.899609 43.300781 47.099609 L 43.300781 41.699219 L 43.300781 41.099609 L 43.300781 40.5 C 43.300781 39.7 43.700781 39 44.300781 38.5 L 44.800781 38.099609 z M 54.800781 38.099609 L 55.300781 38.5 C 55.900781 39 56.300781 39.7 56.300781 40.5 L 56.300781 41.5 L 56.300781 41.699219 L 56.300781 47.099609 L 55.900391 46.699219 L 55.099609 46.099609 C 54.899609 45.999609 54.7 45.999609 54.5 46.099609 L 53.699219 46.699219 C 53.599219 46.799219 53.400781 46.899609 53.300781 47.099609 L 53.300781 45.099609 L 53.300781 41.5 L 53.300781 40.5 C 53.300781 39.7 53.700781 39 54.300781 38.5 L 54.800781 38.099609 z M 39.900391 39.099609 L 41.400391 39.900391 C 42.000391 40.300391 42.400391 40.999219 42.400391 41.699219 L 42.400391 47.099609 L 42.300781 47.099609 L 42.300781 48.5 C 42.100781 48.3 42.000781 48.199609 41.800781 48.099609 L 40.099609 47.099609 C 39.899609 46.999609 39.799609 46.999609 39.599609 47.099609 L 37.900391 48.099609 C 37.700391 48.199609 37.500391 48.4 37.400391 48.5 L 37.400391 47.099609 L 37.400391 43.5 L 37.400391 41.699219 C 37.400391 40.999219 37.800391 40.300391 38.400391 39.900391 L 39.900391 39.099609 z M 49.800781 39.099609 L 50.099609 39.300781 C 50.199609 39.400781 50.300781 39.499609 50.300781 39.599609 L 50.300781 41 L 49.300781 41 L 49.300781 39.599609 C 49.300781 39.499609 49.4 39.400781 49.5 39.300781 L 49.800781 39.099609 z M 59.900391 39.099609 L 61.400391 39.900391 C 62.000391 40.300391 62.400391 40.999219 62.400391 41.699219 L 62.400391 43.5 L 62.300781 43.5 L 62.300781 47.099609 L 62.300781 48.5 C 62.100781 48.3 62.000781 48.199609 61.800781 48.099609 L 60.099609 47.099609 C 59.899609 46.999609 59.799609 46.999609 59.599609 47.099609 L 57.900391 48.099609 C 57.700391 48.199609 57.500391 48.4 57.400391 48.5 L 57.400391 47.099609 L 57.400391 41.699219 C 57.400391 40.999219 57.800391 40.300391 58.400391 39.900391 L 59.900391 39.099609 z M 44.800781 40 C 44.500781 40 44.300781 40.2 44.300781 40.5 L 44.300781 44.5 C 44.300781 44.8 44.500781 45 44.800781 45 C 45.100781 45 45.300781 44.8 45.300781 44.5 L 45.300781 40.5 C 45.300781 40.2 45.100781 40 44.800781 40 z M 54.800781 40 C 54.500781 40 54.300781 40.2 54.300781 40.5 L 54.300781 44.5 C 54.300781 44.8 54.500781 45 54.800781 45 C 55.100781 45 55.300781 44.8 55.300781 44.5 L 55.300781 40.5 C 55.300781 40.2 55.100781 40 54.800781 40 z M 39.75 40.025391 C 39.675 40.025391 39.6 40.049609 39.5 40.099609 L 39 40.400391 C 38.6 40.600391 38.300781 41.099609 38.300781 41.599609 L 38.300781 43.5 C 38.300781 43.8 38.500781 44 38.800781 44 L 40.800781 44 C 41.100781 44 41.300781 43.8 41.300781 43.5 L 41.300781 41.599609 C 41.300781 41.099609 40.999609 40.600391 40.599609 40.400391 L 40 40.099609 C 39.9 40.049609 39.825 40.025391 39.75 40.025391 z M 59.75 40.025391 C 59.675 40.025391 59.6 40.049609 59.5 40.099609 L 59 40.400391 C 58.6 40.600391 58.300781 41.099609 58.300781 41.599609 L 58.300781 43.5 C 58.300781 43.8 58.500781 44 58.800781 44 L 60.800781 44 C 61.100781 44 61.300781 43.8 61.300781 43.5 L 61.300781 41.599609 C 61.300781 41.099609 60.999609 40.600391 60.599609 40.400391 L 60 40.099609 C 59.9 40.049609 59.825 40.025391 59.75 40.025391 z M 25.800781 40.099609 L 27.300781 40.900391 C 27.900781 41.300391 28.300781 41.999219 28.300781 42.699219 L 28.300781 44.5 C 28.100781 44.3 28.000781 44.199609 27.800781 44.099609 L 26.099609 43.099609 C 25.899609 42.999609 25.799609 42.999609 25.599609 43.099609 L 23.900391 44.099609 C 23.700391 44.199609 23.500391 44.4 23.400391 44.5 L 23.400391 42.699219 C 23.300391 41.999219 23.700781 41.300391 24.300781 40.900391 L 25.800781 40.099609 z M 73.800781 40.099609 L 75.300781 40.900391 C 75.900781 41.300391 76.300781 41.999219 76.300781 42.699219 L 76.300781 44.5 C 76.100781 44.3 76.000781 44.199609 75.800781 44.099609 L 74.099609 43.099609 C 73.899609 42.999609 73.799609 42.999609 73.599609 43.099609 L 71.900391 44.099609 C 71.700391 44.199609 71.500391 44.4 71.400391 44.5 L 71.400391 42.699219 C 71.300391 41.999219 71.700781 41.300391 72.300781 40.900391 L 73.800781 40.099609 z M 34.800781 41.099609 L 35.300781 41.5 C 35.900781 42 36.300781 42.7 36.300781 43.5 L 36.300781 47.099609 L 36.300781 49.099609 L 35.900391 48.699219 L 35.099609 48.099609 C 34.899609 47.999609 34.7 47.999609 34.5 48.099609 L 33.699219 48.699219 C 33.599219 48.799219 33.400781 48.899609 33.300781 49.099609 L 33.300781 44.5 L 33.300781 43.5 C 33.300781 42.7 33.700781 42 34.300781 41.5 L 34.800781 41.099609 z M 39.800781 41.099609 L 40.099609 41.300781 C 40.199609 41.400781 40.300781 41.499609 40.300781 41.599609 L 40.300781 43 L 39.300781 43 L 39.300781 41.599609 C 39.300781 41.499609 39.4 41.400781 39.5 41.300781 L 39.800781 41.099609 z M 59.800781 41.099609 L 60.099609 41.300781 C 60.199609 41.400781 60.300781 41.499609 60.300781 41.599609 L 60.300781 43 L 59.300781 43 L 59.300781 41.599609 C 59.300781 41.499609 59.4 41.400781 59.5 41.300781 L 59.800781 41.099609 z M 64.800781 41.099609 L 65.300781 41.5 C 65.900781 42 66.300781 42.7 66.300781 43.5 L 66.300781 44.5 L 66.300781 49.099609 L 65.900391 48.699219 L 65.099609 48.099609 C 64.899609 47.999609 64.7 47.999609 64.5 48.099609 L 63.699219 48.699219 C 63.599219 48.799219 63.400781 48.899609 63.300781 49.099609 L 63.300781 47.099609 L 63.300781 43.5 C 63.300781 42.7 63.700781 42 64.300781 41.5 L 64.800781 41.099609 z M 30.800781 42.099609 L 31.300781 42.5 C 31.900781 43 32.300781 43.7 32.300781 44.5 L 32.300781 50.099609 L 31.900391 49.699219 L 31.099609 49.099609 C 30.899609 48.999609 30.7 48.999609 30.5 49.099609 L 29.699219 49.699219 C 29.599219 49.799219 29.400781 49.899609 29.300781 50.099609 L 29.300781 48.099609 L 29.300781 46.699219 L 29.300781 44.5 C 29.300781 43.7 29.700781 43 30.300781 42.5 L 30.800781 42.099609 z M 68.800781 42.099609 L 69.300781 42.5 C 69.900781 43 70.300781 43.7 70.300781 44.5 L 70.300781 46.699219 L 70.300781 48.099609 L 70.300781 50.099609 L 69.900391 49.699219 L 69.099609 49.099609 C 68.899609 48.999609 68.7 48.999609 68.5 49.099609 L 67.699219 49.699219 C 67.599219 49.799219 67.400781 49.899609 67.300781 50.099609 L 67.300781 44.5 C 67.300781 43.7 67.700781 43 68.300781 42.5 L 68.800781 42.099609 z M 34.800781 43 C 34.500781 43 34.300781 43.2 34.300781 43.5 L 34.300781 46.5 C 34.300781 46.8 34.500781 47 34.800781 47 C 35.100781 47 35.300781 46.8 35.300781 46.5 L 35.300781 43.5 C 35.300781 43.2 35.100781 43 34.800781 43 z M 64.800781 43 C 64.500781 43 64.300781 43.2 64.300781 43.5 L 64.300781 46.5 C 64.300781 46.8 64.500781 47 64.800781 47 C 65.100781 47 65.300781 46.8 65.300781 46.5 L 65.300781 43.5 C 65.300781 43.2 65.100781 43 64.800781 43 z M 30.800781 44 C 30.500781 44 30.300781 44.2 30.300781 44.5 L 30.300781 47.5 C 30.300781 47.8 30.500781 48 30.800781 48 C 31.100781 48 31.300781 47.8 31.300781 47.5 L 31.300781 44.5 C 31.300781 44.2 31.100781 44 30.800781 44 z M 68.800781 44 C 68.500781 44 68.300781 44.2 68.300781 44.5 L 68.300781 47.5 C 68.300781 47.8 68.500781 48 68.800781 48 C 69.100781 48 69.300781 47.8 69.300781 47.5 L 69.300781 44.5 C 69.300781 44.2 69.100781 44 68.800781 44 z M 25.800781 44.099609 L 27.300781 44.900391 C 27.900781 45.300391 28.300781 45.999219 28.300781 46.699219 L 28.300781 48.099609 L 28.300781 51.5 C 28.100781 51.3 28.000781 51.199609 27.800781 51.099609 L 26.099609 50.099609 C 25.899609 49.999609 25.799609 49.999609 25.599609 50.099609 L 23.900391 51.099609 C 23.700391 51.199609 23.500391 51.4 23.400391 51.5 L 23.400391 48.099609 L 23.400391 47.5 L 23.400391 46.699219 L 23.300781 46.699219 C 23.300781 45.999219 23.700781 45.300391 24.300781 44.900391 L 25.800781 44.099609 z M 73.900391 44.099609 L 75.400391 44.900391 C 76.000391 45.300391 76.400391 45.999219 76.400391 46.699219 L 76.400391 47.5 L 76.300781 47.5 L 76.300781 48.099609 L 76.300781 51.5 C 76.100781 51.3 76.000781 51.199609 75.800781 51.099609 L 74.099609 50.099609 C 73.899609 49.999609 73.799609 49.999609 73.599609 50.099609 L 71.900391 51.099609 C 71.700391 51.199609 71.500391 51.4 71.400391 51.5 L 71.400391 48.099609 L 71.400391 46.699219 C 71.400391 45.999219 71.800391 45.300391 72.400391 44.900391 L 73.900391 44.099609 z M 25.75 45.025391 C 25.675 45.025391 25.6 45.049609 25.5 45.099609 L 25 45.400391 C 24.6 45.600391 24.300781 46.099609 24.300781 46.599609 L 24.300781 48.5 C 24.300781 48.8 24.500781 49 24.800781 49 L 26.800781 49 C 27.100781 49 27.300781 48.8 27.300781 48.5 L 27.300781 46.599609 C 27.300781 46.099609 26.999609 45.700391 26.599609 45.400391 L 26 45.099609 C 25.9 45.049609 25.825 45.025391 25.75 45.025391 z M 73.75 45.025391 C 73.675 45.025391 73.6 45.049609 73.5 45.099609 L 73 45.400391 C 72.6 45.600391 72.300781 46.099609 72.300781 46.599609 L 72.300781 48.5 C 72.300781 48.8 72.500781 49 72.800781 49 L 74.800781 49 C 75.100781 49 75.300781 48.8 75.300781 48.5 L 75.300781 46.599609 C 75.300781 46.099609 74.999609 45.600391 74.599609 45.400391 L 74 45.099609 C 73.9 45.049609 73.825 45.025391 73.75 45.025391 z M 20.800781 45.099609 L 21.300781 45.5 C 21.900781 46 22.300781 46.7 22.300781 47.5 L 22.300781 48.099609 L 22.300781 52.099609 L 21.900391 51.699219 L 21.099609 51.099609 C 20.899609 50.999609 20.7 50.999609 20.5 51.099609 L 19.699219 51.699219 C 19.599219 51.799219 19.400781 51.899609 19.300781 52.099609 L 19.300781 47.5 C 19.300781 46.7 19.700781 46 20.300781 45.5 L 20.800781 45.099609 z M 78.800781 45.099609 L 79.300781 45.5 C 79.900781 46 80.300781 46.7 80.300781 47.5 L 80.300781 52.099609 L 79.900391 51.699219 L 79.099609 51.099609 C 78.899609 50.999609 78.7 50.999609 78.5 51.099609 L 77.699219 51.699219 C 77.599219 51.799219 77.400781 51.899609 77.300781 52.099609 L 77.300781 48.099609 L 77.300781 47.5 C 77.300781 46.7 77.700781 46 78.300781 45.5 L 78.800781 45.099609 z M 25.800781 46.099609 L 26.099609 46.300781 C 26.199609 46.400781 26.300781 46.499609 26.300781 46.599609 L 26.300781 48 L 25.300781 48 L 25.300781 46.599609 C 25.300781 46.499609 25.4 46.400781 25.5 46.300781 L 25.800781 46.099609 z M 73.800781 46.099609 L 74.099609 46.300781 C 74.199609 46.400781 74.300781 46.499609 74.300781 46.599609 L 74.300781 48 L 73.300781 48 L 73.300781 46.599609 C 73.300781 46.499609 73.4 46.400781 73.5 46.300781 L 73.800781 46.099609 z M 20.800781 47 C 20.500781 47 20.300781 47.2 20.300781 47.5 L 20.300781 49.5 C 20.300781 49.8 20.500781 50 20.800781 50 C 21.100781 50 21.300781 49.8 21.300781 49.5 L 21.300781 47.5 C 21.300781 47.2 21.100781 47 20.800781 47 z M 78.800781 47 C 78.500781 47 78.300781 47.2 78.300781 47.5 L 78.300781 49.5 C 78.300781 49.8 78.500781 50 78.800781 50 C 79.100781 50 79.300781 49.8 79.300781 49.5 L 79.300781 47.5 C 79.300781 47.2 79.100781 47 78.800781 47 z M 44.800781 47.099609 L 45.300781 47.5 C 45.900781 48 46.300781 48.7 46.300781 49.5 L 46.300781 49.699219 L 46.300781 50.5 L 46.300781 55.099609 L 46.300781 57.099609 L 45.900391 56.699219 L 45.099609 56.099609 C 44.899609 55.999609 44.7 55.999609 44.5 56.099609 L 43.699219 56.699219 C 43.599219 56.799219 43.400781 56.899609 43.300781 57.099609 L 43.300781 56.099609 L 43.300781 50.699219 L 43.300781 50.5 L 43.300781 49.5 C 43.300781 48.7 43.700781 48 44.300781 47.5 L 44.800781 47.099609 z M 49.900391 47.099609 L 51.400391 47.900391 C 52.000391 48.300391 52.400391 48.999219 52.400391 49.699219 L 52.400391 55.099609 L 52.300781 55.099609 L 52.300781 57.5 C 52.100781 57.3 52.000781 57.199609 51.800781 57.099609 L 50.099609 56.099609 C 49.899609 55.999609 49.799609 55.999609 49.599609 56.099609 L 47.900391 57.099609 C 47.700391 57.199609 47.500391 57.4 47.400391 57.5 L 47.400391 55.099609 L 47.400391 50.5 L 47.400391 49.699219 C 47.400391 48.999219 47.800391 48.300391 48.400391 47.900391 L 49.900391 47.099609 z M 54.800781 47.099609 L 55.300781 47.5 C 55.900781 48 56.300781 48.7 56.300781 49.5 L 56.300781 50.699219 L 56.300781 56.099609 L 56.300781 57.099609 L 55.900391 56.699219 L 55.099609 56.099609 C 54.899609 55.999609 54.7 55.999609 54.5 56.099609 L 53.699219 56.699219 C 53.599219 56.799219 53.400781 56.899609 53.300781 57.099609 L 53.300781 55.099609 L 53.300781 49.699219 L 53.300781 49.5 C 53.300781 48.7 53.700781 48 54.300781 47.5 L 54.800781 47.099609 z M 49.75 48.025391 C 49.675 48.025391 49.6 48.049609 49.5 48.099609 L 49 48.400391 C 48.6 48.600391 48.300781 49.099609 48.300781 49.599609 L 48.300781 51.5 C 48.300781 51.8 48.500781 52 48.800781 52 L 50.800781 52 C 51.100781 52 51.300781 51.8 51.300781 51.5 L 51.300781 49.599609 C 51.300781 49.099609 50.999609 48.600391 50.599609 48.400391 L 50 48.099609 C 49.9 48.049609 49.825 48.025391 49.75 48.025391 z M 39.900391 48.099609 L 41.400391 48.900391 C 42.000391 49.300391 42.400391 49.999219 42.400391 50.699219 L 42.400391 56.099609 L 42.300781 56.099609 L 42.300781 57.5 C 42.100781 57.3 42.000781 57.199609 41.800781 57.099609 L 40.099609 56.099609 C 39.899609 55.999609 39.799609 55.999609 39.599609 56.099609 L 37.900391 57.099609 C 37.700391 57.199609 37.500391 57.4 37.400391 57.5 L 37.400391 56.099609 L 37.400391 51.5 L 37.400391 50.699219 C 37.400391 49.999219 37.800391 49.300391 38.400391 48.900391 L 39.900391 48.099609 z M 59.900391 48.099609 L 61.400391 48.900391 C 62.000391 49.300391 62.400391 49.999219 62.400391 50.699219 L 62.400391 51.5 L 62.300781 51.5 L 62.300781 56.099609 L 62.300781 57.5 C 62.100781 57.3 62.000781 57.199609 61.800781 57.099609 L 60.099609 56.099609 C 59.899609 55.999609 59.799609 55.999609 59.599609 56.099609 L 57.900391 57.099609 C 57.700391 57.199609 57.500391 57.4 57.400391 57.5 L 57.400391 56.099609 L 57.400391 50.699219 C 57.400391 49.999219 57.800391 49.300391 58.400391 48.900391 L 59.900391 48.099609 z M 44.800781 49 C 44.500781 49 44.300781 49.2 44.300781 49.5 L 44.300781 54.5 C 44.300781 54.8 44.500781 55 44.800781 55 C 45.100781 55 45.300781 54.8 45.300781 54.5 L 45.300781 49.5 C 45.300781 49.2 45.100781 49 44.800781 49 z M 54.800781 49 C 54.500781 49 54.300781 49.2 54.300781 49.5 L 54.300781 54.5 C 54.300781 54.8 54.500781 55 54.800781 55 C 55.100781 55 55.300781 54.8 55.300781 54.5 L 55.300781 49.5 C 55.300781 49.2 55.100781 49 54.800781 49 z M 39.75 49.025391 C 39.675 49.025391 39.6 49.049609 39.5 49.099609 L 39 49.400391 C 38.6 49.600391 38.300781 50.099609 38.300781 50.599609 L 38.300781 52.5 C 38.300781 52.8 38.500781 53 38.800781 53 L 40.800781 53 C 41.100781 53 41.300781 52.8 41.300781 52.5 L 41.300781 50.599609 C 41.300781 50.099609 40.999609 49.600391 40.599609 49.400391 L 40 49.099609 C 39.9 49.049609 39.825 49.025391 39.75 49.025391 z M 59.75 49.025391 C 59.675 49.025391 59.6 49.049609 59.5 49.099609 L 59 49.400391 C 58.6 49.600391 58.300781 50.099609 58.300781 50.599609 L 58.300781 52.5 C 58.300781 52.8 58.500781 53 58.800781 53 L 60.800781 53 C 61.100781 53 61.300781 52.8 61.300781 52.5 L 61.300781 50.599609 C 61.300781 50.099609 60.999609 49.600391 60.599609 49.400391 L 60 49.099609 C 59.9 49.049609 59.825 49.025391 59.75 49.025391 z M 34.800781 49.099609 L 35.300781 49.5 C 35.900781 50 36.300781 50.7 36.300781 51.5 L 36.300781 56.099609 L 36.300781 57.099609 L 35.900391 56.699219 L 35.099609 56.099609 C 34.899609 55.999609 34.7 55.999609 34.5 56.099609 L 33.699219 56.699219 C 33.599219 56.799219 33.400781 56.899609 33.300781 57.099609 L 33.300781 52.5 L 33.300781 51.5 C 33.300781 50.7 33.700781 50 34.300781 49.5 L 34.800781 49.099609 z M 49.800781 49.099609 L 50.099609 49.300781 C 50.199609 49.400781 50.300781 49.499609 50.300781 49.599609 L 50.300781 51 L 49.300781 51 L 49.300781 49.599609 C 49.300781 49.499609 49.4 49.400781 49.5 49.300781 L 49.800781 49.099609 z M 64.800781 49.099609 L 65.300781 49.5 C 65.900781 50 66.300781 50.7 66.300781 51.5 L 66.300781 52.5 L 66.300781 57.099609 L 65.900391 56.699219 L 65.099609 56.099609 C 64.899609 55.999609 64.7 55.999609 64.5 56.099609 L 63.699219 56.699219 C 63.599219 56.799219 63.400781 56.899609 63.300781 57.099609 L 63.300781 56.099609 L 63.300781 51.5 C 63.300781 50.7 63.700781 50 64.300781 49.5 L 64.800781 49.099609 z M 30.800781 50.099609 L 31.300781 50.5 C 31.900781 51 32.300781 51.7 32.300781 52.5 L 32.300781 57.099609 L 31.900391 56.699219 L 31.099609 56.099609 C 30.899609 55.999609 30.7 55.999609 30.5 56.099609 L 29.699219 56.699219 C 29.599219 56.799219 29.400781 56.899609 29.300781 57.099609 L 29.300781 53.699219 L 29.300781 52.5 C 29.300781 51.7 29.700781 51 30.300781 50.5 L 30.800781 50.099609 z M 39.800781 50.099609 L 40.099609 50.300781 C 40.199609 50.400781 40.300781 50.499609 40.300781 50.599609 L 40.300781 52 L 39.300781 52 L 39.300781 50.599609 C 39.300781 50.499609 39.4 50.400781 39.5 50.300781 L 39.800781 50.099609 z M 59.800781 50.099609 L 60.099609 50.300781 C 60.199609 50.400781 60.300781 50.499609 60.300781 50.599609 L 60.300781 52 L 59.300781 52 L 59.300781 50.599609 C 59.300781 50.499609 59.4 50.400781 59.5 50.300781 L 59.800781 50.099609 z M 68.800781 50.099609 L 69.300781 50.5 C 69.900781 51 70.300781 51.7 70.300781 52.5 L 70.300781 53.699219 L 70.300781 57.099609 L 69.900391 56.699219 L 69.099609 56.099609 C 68.899609 55.999609 68.7 55.999609 68.5 56.099609 L 67.699219 56.699219 C 67.599219 56.799219 67.400781 56.899609 67.300781 57.099609 L 67.300781 52.5 C 67.300781 51.7 67.700781 51 68.300781 50.5 L 68.800781 50.099609 z M 34.800781 51 C 34.500781 51 34.300781 51.2 34.300781 51.5 L 34.300781 54.5 C 34.300781 54.8 34.500781 55 34.800781 55 C 35.100781 55 35.300781 54.8 35.300781 54.5 L 35.300781 51.5 C 35.300781 51.2 35.100781 51 34.800781 51 z M 64.800781 51 C 64.500781 51 64.300781 51.2 64.300781 51.5 L 64.300781 54.5 C 64.300781 54.8 64.500781 55 64.800781 55 C 65.100781 55 65.300781 54.8 65.300781 54.5 L 65.300781 51.5 C 65.300781 51.2 65.100781 51 64.800781 51 z M 25.800781 51.099609 L 27.300781 51.900391 C 27.900781 52.300391 28.300781 52.999219 28.300781 53.699219 L 28.300781 58.5 C 28.100781 58.3 28.000781 58.199609 27.800781 58.099609 L 26.099609 57.099609 C 25.899609 56.999609 25.799609 56.999609 25.599609 57.099609 L 23.900391 58.099609 C 23.700391 58.199609 23.500391 58.4 23.400391 58.5 L 23.400391 54.5 L 23.400391 53.699219 L 23.300781 53.699219 C 23.300781 52.999219 23.700781 52.300391 24.300781 51.900391 L 25.800781 51.099609 z M 73.900391 51.099609 L 75.400391 51.900391 C 76.000391 52.300391 76.400391 52.999219 76.400391 53.699219 L 76.400391 54.5 L 76.300781 54.5 L 76.300781 58.5 C 76.100781 58.3 76.000781 58.199609 75.800781 58.099609 L 74.099609 57.099609 C 73.899609 56.999609 73.799609 56.999609 73.599609 57.099609 L 71.900391 58.099609 C 71.700391 58.199609 71.500391 58.4 71.400391 58.5 L 71.400391 53.699219 C 71.400391 52.999219 71.800391 52.300391 72.400391 51.900391 L 73.900391 51.099609 z M 30.800781 52 C 30.500781 52 30.300781 52.2 30.300781 52.5 L 30.300781 54.5 C 30.300781 54.8 30.500781 55 30.800781 55 C 31.100781 55 31.300781 54.8 31.300781 54.5 L 31.300781 52.5 C 31.300781 52.2 31.100781 52 30.800781 52 z M 68.800781 52 C 68.500781 52 68.300781 52.2 68.300781 52.5 L 68.300781 54.5 C 68.300781 54.8 68.500781 55 68.800781 55 C 69.100781 55 69.300781 54.8 69.300781 54.5 L 69.300781 52.5 C 69.300781 52.2 69.100781 52 68.800781 52 z M 25.75 52.025391 C 25.675 52.025391 25.6 52.049609 25.5 52.099609 L 25 52.400391 C 24.6 52.600391 24.300781 53.099609 24.300781 53.599609 L 24.300781 55.5 C 24.300781 55.8 24.500781 56 24.800781 56 L 26.800781 56 C 27.100781 56 27.300781 55.8 27.300781 55.5 L 27.300781 53.599609 C 27.300781 53.099609 26.999609 52.700391 26.599609 52.400391 L 26 52.099609 C 25.9 52.049609 25.825 52.025391 25.75 52.025391 z M 73.75 52.025391 C 73.675 52.025391 73.6 52.049609 73.5 52.099609 L 73 52.400391 C 72.6 52.600391 72.300781 53.099609 72.300781 53.599609 L 72.300781 55.5 C 72.300781 55.8 72.500781 56 72.800781 56 L 74.800781 56 C 75.100781 56 75.300781 55.8 75.300781 55.5 L 75.300781 53.599609 C 75.300781 53.099609 74.999609 52.600391 74.599609 52.400391 L 74 52.099609 C 73.9 52.049609 73.825 52.025391 73.75 52.025391 z M 20.800781 52.099609 L 21.300781 52.5 C 21.900781 53 22.300781 53.7 22.300781 54.5 L 22.300781 59.099609 L 21.900391 58.699219 L 21.099609 58.099609 C 20.899609 57.999609 20.7 57.999609 20.5 58.099609 L 19.699219 58.699219 C 19.599219 58.799219 19.400781 58.899609 19.300781 59.099609 L 19.300781 54.5 C 19.300781 53.7 19.700781 53 20.300781 52.5 L 20.800781 52.099609 z M 78.800781 52.099609 L 79.300781 52.5 C 79.900781 53 80.300781 53.7 80.300781 54.5 L 80.300781 59.099609 L 79.900391 58.699219 L 79.099609 58.099609 C 78.899609 57.999609 78.7 57.999609 78.5 58.099609 L 77.699219 58.699219 C 77.599219 58.799219 77.400781 58.899609 77.300781 59.099609 L 77.300781 54.5 C 77.300781 53.7 77.700781 53 78.300781 52.5 L 78.800781 52.099609 z M 25.800781 53.099609 L 26.099609 53.300781 C 26.199609 53.400781 26.300781 53.499609 26.300781 53.599609 L 26.300781 55 L 25.300781 55 L 25.300781 53.599609 C 25.300781 53.499609 25.4 53.400781 25.5 53.300781 L 25.800781 53.099609 z M 73.800781 53.099609 L 74.099609 53.300781 C 74.199609 53.400781 74.300781 53.499609 74.300781 53.599609 L 74.300781 55 L 73.300781 55 L 73.300781 53.599609 C 73.300781 53.499609 73.4 53.400781 73.5 53.300781 L 73.800781 53.099609 z M 20.800781 54 C 20.500781 54 20.300781 54.2 20.300781 54.5 L 20.300781 56.5 C 20.300781 56.8 20.500781 57 20.800781 57 C 21.100781 57 21.300781 56.8 21.300781 56.5 L 21.300781 54.5 C 21.300781 54.2 21.100781 54 20.800781 54 z M 78.800781 54 C 78.500781 54 78.300781 54.2 78.300781 54.5 L 78.300781 56.5 C 78.300781 56.8 78.500781 57 78.800781 57 C 79.100781 57 79.300781 56.8 79.300781 56.5 L 79.300781 54.5 C 79.300781 54.2 79.100781 54 78.800781 54 z M 30.800781 57.099609 L 31.300781 57.5 C 31.900781 58 32.300781 58.7 32.300781 59.5 L 32.300781 66 L 29.300781 66 L 29.300781 60.699219 L 29.300781 59.5 C 29.300781 58.7 29.700781 58 30.300781 57.5 L 30.800781 57.099609 z M 34.800781 57.099609 L 35.300781 57.5 C 35.900781 58 36.300781 58.7 36.300781 59.5 L 36.300781 59.699219 L 36.300781 65.099609 L 36.300781 66 L 33.300781 66 L 33.300781 59.5 C 33.300781 58.7 33.700781 58 34.300781 57.5 L 34.800781 57.099609 z M 39.800781 57.099609 L 41.300781 57.900391 C 41.900781 58.300391 42.300781 58.999219 42.300781 59.699219 L 42.300781 60.5 L 42.300781 65.099609 L 42.300781 66 L 37.300781 66 L 37.300781 65.099609 L 37.300781 59.699219 C 37.300781 58.999219 37.700781 58.300391 38.300781 57.900391 L 39.800781 57.099609 z M 44.800781 57.099609 L 45.300781 57.5 C 45.900781 58 46.300781 58.7 46.300781 59.5 L 46.300781 59.699219 L 46.300781 60.5 L 46.300781 65.099609 L 46.300781 66 L 43.300781 66 L 43.300781 65.099609 L 43.300781 60.5 L 43.300781 59.699219 L 43.300781 59.5 C 43.300781 58.7 43.700781 58 44.300781 57.5 L 44.800781 57.099609 z M 49.800781 57.099609 L 51.300781 57.900391 C 51.900781 58.300391 52.300781 58.999219 52.300781 59.699219 L 52.300781 65.099609 L 52.300781 66 L 47.300781 66 L 47.300781 65.099609 L 47.300781 60.5 L 47.300781 59.699219 C 47.300781 58.999219 47.700781 58.300391 48.300781 57.900391 L 49.800781 57.099609 z M 54.800781 57.099609 L 55.300781 57.5 C 55.900781 58 56.300781 58.7 56.300781 59.5 L 56.300781 59.699219 L 56.300781 65.099609 L 56.300781 66 L 53.300781 66 L 53.300781 65.099609 L 53.300781 59.699219 L 53.300781 59.5 C 53.300781 58.7 53.700781 58 54.300781 57.5 L 54.800781 57.099609 z M 59.800781 57.099609 L 61.300781 57.900391 C 61.900781 58.300391 62.300781 58.999219 62.300781 59.699219 L 62.300781 65.099609 L 62.300781 66 L 57.300781 66 L 57.300781 65.099609 L 57.300781 59.699219 C 57.300781 58.999219 57.700781 58.300391 58.300781 57.900391 L 59.800781 57.099609 z M 64.800781 57.099609 L 65.300781 57.5 C 65.900781 58 66.300781 58.7 66.300781 59.5 L 66.300781 66 L 63.300781 66 L 63.300781 65.099609 L 63.300781 59.699219 L 63.300781 59.5 C 63.300781 58.7 63.700781 58 64.300781 57.5 L 64.800781 57.099609 z M 68.800781 57.099609 L 69.300781 57.5 C 69.900781 58 70.300781 58.7 70.300781 59.5 L 70.300781 60.699219 L 70.300781 66 L 67.300781 66 L 67.300781 59.5 C 67.300781 58.7 67.700781 58 68.300781 57.5 L 68.800781 57.099609 z M 39.75 58.025391 C 39.675 58.025391 39.6 58.049609 39.5 58.099609 L 39 58.400391 C 38.6 58.600391 38.300781 59.099609 38.300781 59.599609 L 38.300781 61.5 C 38.300781 61.8 38.500781 62 38.800781 62 L 40.800781 62 C 41.100781 62 41.300781 61.8 41.300781 61.5 L 41.300781 59.599609 C 41.300781 59.099609 40.999609 58.600391 40.599609 58.400391 L 40 58.099609 C 39.9 58.049609 39.825 58.025391 39.75 58.025391 z M 49.75 58.025391 C 49.675 58.025391 49.6 58.049609 49.5 58.099609 L 49 58.400391 C 48.6 58.600391 48.300781 59.099609 48.300781 59.599609 L 48.300781 61.5 C 48.300781 61.8 48.500781 62 48.800781 62 L 50.800781 62 C 51.100781 62 51.300781 61.8 51.300781 61.5 L 51.300781 59.599609 C 51.300781 59.099609 50.999609 58.600391 50.599609 58.400391 L 50 58.099609 C 49.9 58.049609 49.825 58.025391 49.75 58.025391 z M 59.75 58.025391 C 59.675 58.025391 59.6 58.049609 59.5 58.099609 L 59 58.400391 C 58.6 58.600391 58.300781 59.099609 58.300781 59.599609 L 58.300781 61.5 C 58.300781 61.8 58.500781 62 58.800781 62 L 60.800781 62 C 61.100781 62 61.300781 61.8 61.300781 61.5 L 61.300781 59.599609 C 61.300781 59.099609 60.999609 58.600391 60.599609 58.400391 L 60 58.099609 C 59.9 58.049609 59.825 58.025391 59.75 58.025391 z M 25.800781 58.099609 L 27.300781 58.900391 C 27.900781 59.300391 28.300781 59.999219 28.300781 60.699219 L 28.300781 66 L 23.300781 66 L 23.300781 61.5 L 23.300781 60.699219 C 23.300781 59.999219 23.700781 59.300391 24.300781 58.900391 L 25.800781 58.099609 z M 73.800781 58.099609 L 75.300781 58.900391 C 75.900781 59.300391 76.300781 59.999219 76.300781 60.699219 L 76.300781 61.5 L 76.300781 66 L 71.300781 66 L 71.300781 60.699219 C 71.300781 59.999219 71.700781 59.300391 72.300781 58.900391 L 73.800781 58.099609 z M 30.800781 59 C 30.500781 59 30.300781 59.2 30.300781 59.5 L 30.300781 64.5 C 30.300781 64.8 30.500781 65 30.800781 65 C 31.100781 65 31.300781 64.8 31.300781 64.5 L 31.300781 59.5 C 31.300781 59.2 31.100781 59 30.800781 59 z M 34.800781 59 C 34.500781 59 34.300781 59.2 34.300781 59.5 L 34.300781 64.5 C 34.300781 64.8 34.500781 65 34.800781 65 C 35.100781 65 35.300781 64.8 35.300781 64.5 L 35.300781 59.5 C 35.300781 59.2 35.100781 59 34.800781 59 z M 44.800781 59 C 44.500781 59 44.300781 59.2 44.300781 59.5 L 44.300781 64.5 C 44.300781 64.8 44.500781 65 44.800781 65 C 45.100781 65 45.300781 64.8 45.300781 64.5 L 45.300781 59.5 C 45.300781 59.2 45.100781 59 44.800781 59 z M 54.800781 59 C 54.500781 59 54.300781 59.2 54.300781 59.5 L 54.300781 64.5 C 54.300781 64.8 54.500781 65 54.800781 65 C 55.100781 65 55.300781 64.8 55.300781 64.5 L 55.300781 59.5 C 55.300781 59.2 55.100781 59 54.800781 59 z M 64.800781 59 C 64.500781 59 64.300781 59.2 64.300781 59.5 L 64.300781 64.5 C 64.300781 64.8 64.500781 65 64.800781 65 C 65.100781 65 65.300781 64.8 65.300781 64.5 L 65.300781 59.5 C 65.300781 59.2 65.100781 59 64.800781 59 z M 68.800781 59 C 68.500781 59 68.300781 59.2 68.300781 59.5 L 68.300781 64.5 C 68.300781 64.8 68.500781 65 68.800781 65 C 69.100781 65 69.300781 64.8 69.300781 64.5 L 69.300781 59.5 C 69.300781 59.2 69.100781 59 68.800781 59 z M 25.75 59.025391 C 25.675 59.025391 25.6 59.049609 25.5 59.099609 L 25 59.400391 C 24.6 59.600391 24.300781 60.099609 24.300781 60.599609 L 24.300781 62.5 C 24.300781 62.8 24.500781 63 24.800781 63 L 26.800781 63 C 27.100781 63 27.300781 62.8 27.300781 62.5 L 27.300781 60.599609 C 27.300781 60.099609 26.999609 59.600391 26.599609 59.400391 L 26 59.099609 C 25.9 59.049609 25.825 59.025391 25.75 59.025391 z M 73.75 59.025391 C 73.675 59.025391 73.6 59.049609 73.5 59.099609 L 73 59.400391 C 72.6 59.600391 72.300781 60.099609 72.300781 60.599609 L 72.300781 62.5 C 72.300781 62.8 72.500781 63 72.800781 63 L 74.800781 63 C 75.100781 63 75.300781 62.8 75.300781 62.5 L 75.300781 60.599609 C 75.300781 60.099609 74.999609 59.600391 74.599609 59.400391 L 74 59.099609 C 73.9 59.049609 73.825 59.025391 73.75 59.025391 z M 20.800781 59.099609 L 21.300781 59.5 C 21.900781 60 22.300781 60.7 22.300781 61.5 L 22.300781 66 L 19.300781 66 L 19.300781 61.5 C 19.300781 60.7 19.700781 60 20.300781 59.5 L 20.800781 59.099609 z M 39.800781 59.099609 L 40.099609 59.300781 C 40.199609 59.400781 40.300781 59.499609 40.300781 59.599609 L 40.300781 61 L 39.300781 61 L 39.300781 59.599609 C 39.300781 59.499609 39.4 59.400781 39.5 59.300781 L 39.800781 59.099609 z M 49.800781 59.099609 L 50.099609 59.300781 C 50.199609 59.400781 50.300781 59.499609 50.300781 59.599609 L 50.300781 61 L 49.300781 61 L 49.300781 59.599609 C 49.300781 59.499609 49.4 59.400781 49.5 59.300781 L 49.800781 59.099609 z M 59.800781 59.099609 L 60.099609 59.300781 C 60.199609 59.400781 60.300781 59.499609 60.300781 59.599609 L 60.300781 61 L 59.300781 61 L 59.300781 59.599609 C 59.300781 59.499609 59.4 59.400781 59.5 59.300781 L 59.800781 59.099609 z M 78.800781 59.099609 L 79.300781 59.5 C 79.900781 60 80.300781 60.7 80.300781 61.5 L 80.300781 66 L 77.300781 66 L 77.300781 61.5 C 77.300781 60.7 77.700781 60 78.300781 59.5 L 78.800781 59.099609 z M 25.800781 60.099609 L 26.099609 60.300781 C 26.199609 60.400781 26.300781 60.499609 26.300781 60.599609 L 26.300781 62 L 25.300781 62 L 25.300781 60.599609 C 25.300781 60.499609 25.4 60.400781 25.5 60.300781 L 25.800781 60.099609 z M 73.800781 60.099609 L 74.099609 60.300781 C 74.199609 60.400781 74.300781 60.499609 74.300781 60.599609 L 74.300781 62 L 73.300781 62 L 73.300781 60.599609 C 73.300781 60.499609 73.4 60.400781 73.5 60.300781 L 73.800781 60.099609 z M 20.800781 61 C 20.500781 61 20.300781 61.2 20.300781 61.5 L 20.300781 64.5 C 20.300781 64.8 20.500781 65 20.800781 65 C 21.100781 65 21.300781 64.8 21.300781 64.5 L 21.300781 61.5 C 21.300781 61.2 21.100781 61 20.800781 61 z M 78.800781 61 C 78.500781 61 78.300781 61.2 78.300781 61.5 L 78.300781 64.5 C 78.300781 64.8 78.500781 65 78.800781 65 C 79.100781 65 79.300781 64.8 79.300781 64.5 L 79.300781 61.5 C 79.300781 61.2 79.100781 61 78.800781 61 z M 19.300781 67 L 22.300781 67 L 22.300781 68.5 L 22.300781 82 L 19.300781 82 L 19.300781 68.5 L 19.300781 67 z M 23.300781 67 L 28.300781 67 L 28.300781 70.099609 C 28.000781 69.999609 27.8 70 27.5 70 C 27.2 69.4 26.500781 69 25.800781 69 C 25.100781 69 24.399609 69.4 24.099609 70 C 23.799609 69.9 23.600781 69.999609 23.300781 70.099609 L 23.300781 68.5 L 23.300781 67 z M 29.300781 67 L 32.300781 67 L 32.300781 82 L 29.300781 82 L 29.300781 67 z M 33.300781 67 L 36.300781 67 L 36.300781 82 L 33.300781 82 L 33.300781 67 z M 37.300781 67 L 42.300781 67 L 42.300781 70.099609 C 42.000781 69.999609 41.8 70 41.5 70 C 41.2 69.4 40.500781 69 39.800781 69 C 39.100781 69 38.399609 69.4 38.099609 70 C 37.799609 69.9 37.600781 69.999609 37.300781 70.099609 L 37.300781 67 z M 43.300781 67 L 46.300781 67 L 46.300781 82 L 43.300781 82 L 43.300781 67 z M 47.300781 67 L 52.300781 67 L 52.300781 70.099609 C 52.000781 69.999609 51.8 70 51.5 70 C 51.2 69.4 50.500781 69 49.800781 69 C 49.100781 69 48.399609 69.4 48.099609 70 C 47.799609 69.9 47.600781 69.999609 47.300781 70.099609 L 47.300781 67 z M 53.300781 67 L 56.300781 67 L 56.300781 82 L 53.300781 82 L 53.300781 67 z M 57.300781 67 L 62.300781 67 L 62.300781 70.099609 C 62.000781 69.999609 61.8 70 61.5 70 C 61.2 69.4 60.500781 69 59.800781 69 C 59.100781 69 58.399609 69.4 58.099609 70 C 57.799609 69.9 57.600781 69.999609 57.300781 70.099609 L 57.300781 67 z M 63.300781 67 L 66.300781 67 L 66.300781 82 L 63.300781 82 L 63.300781 67 z M 67.300781 67 L 70.300781 67 L 70.300781 82 L 67.300781 82 L 67.300781 67 z M 71.300781 67 L 76.300781 67 L 76.300781 68.5 L 76.300781 70.099609 C 76.000781 69.999609 75.8 70 75.5 70 C 75.2 69.4 74.500781 69 73.800781 69 C 73.100781 69 72.399609 69.4 72.099609 70 C 71.799609 69.9 71.600781 69.999609 71.300781 70.099609 L 71.300781 67 z M 77.300781 67 L 80.300781 67 L 80.300781 68.5 L 80.300781 82 L 77.300781 82 L 77.300781 68.5 L 77.300781 67 z M 25.900391 69.900391 C 26.400391 69.900391 26.800391 70.199219 26.900391 70.699219 C 26.900391 70.899219 26.999219 70.999609 27.199219 71.099609 C 27.399219 71.199609 27.499219 71.099609 27.699219 71.099609 C 27.799219 70.999609 27.9 71 28 71 C 28.3 71 28.5 71.2 28.5 71.5 L 28.5 82 L 23.300781 82 L 23.300781 71.5 C 23.300781 71.2 23.500781 71 23.800781 71 C 23.900781 71 23.999609 70.999609 24.099609 71.099609 C 24.199609 71.199609 24.399609 71.199609 24.599609 71.099609 C 24.799609 70.999609 24.900391 70.899219 24.900391 70.699219 C 25.000391 70.199219 25.400391 69.900391 25.900391 69.900391 z M 39.900391 69.900391 C 40.400391 69.900391 40.800391 70.199219 40.900391 70.699219 C 40.900391 70.899219 40.999219 70.999609 41.199219 71.099609 C 41.299219 71.199609 41.499219 71.099609 41.699219 71.099609 C 41.799219 70.999609 41.9 71 42 71 C 42.3 71 42.5 71.2 42.5 71.5 L 42.5 82 L 37.300781 82 L 37.300781 71.5 C 37.300781 71.2 37.500781 71 37.800781 71 C 37.900781 71 37.999609 70.999609 38.099609 71.099609 C 38.199609 71.199609 38.399609 71.199609 38.599609 71.099609 C 38.799609 70.999609 38.900391 70.899219 38.900391 70.699219 C 39.000391 70.199219 39.400391 69.900391 39.900391 69.900391 z M 49.900391 69.900391 C 50.400391 69.900391 50.800391 70.199219 50.900391 70.699219 C 50.900391 70.899219 50.999219 70.999609 51.199219 71.099609 C 51.299219 71.199609 51.499219 71.099609 51.699219 71.099609 C 51.799219 70.999609 51.9 71 52 71 C 52.3 71 52.5 71.2 52.5 71.5 L 52.5 82 L 47.300781 82 L 47.300781 71.5 C 47.300781 71.2 47.500781 71 47.800781 71 C 47.900781 71 47.999609 70.999609 48.099609 71.099609 C 48.199609 71.199609 48.399609 71.199609 48.599609 71.099609 C 48.799609 70.999609 48.900391 70.899219 48.900391 70.699219 C 49.000391 70.199219 49.400391 69.900391 49.900391 69.900391 z M 59.900391 69.900391 C 60.400391 69.900391 60.800391 70.199219 60.900391 70.699219 C 60.900391 70.899219 60.999219 70.999609 61.199219 71.099609 C 61.299219 71.199609 61.499219 71.099609 61.699219 71.099609 C 61.799219 70.999609 61.9 71 62 71 C 62.3 71 62.5 71.2 62.5 71.5 L 62.5 82 L 57.300781 82 L 57.300781 71.5 C 57.300781 71.2 57.500781 71 57.800781 71 C 57.900781 71 57.999609 70.999609 58.099609 71.099609 C 58.199609 71.199609 58.399609 71.199609 58.599609 71.099609 C 58.799609 70.999609 58.900391 70.899219 58.900391 70.699219 C 59.000391 70.199219 59.400391 69.900391 59.900391 69.900391 z M 73.900391 69.900391 C 74.400391 69.900391 74.800391 70.199219 74.900391 70.699219 C 74.900391 70.899219 74.999219 70.999609 75.199219 71.099609 C 75.299219 71.199609 75.499219 71.099609 75.699219 71.099609 C 75.799219 70.999609 75.9 71 76 71 C 76.3 71 76.5 71.2 76.5 71.5 L 76.5 82 L 71.300781 82 L 71.300781 71.5 C 71.300781 71.2 71.500781 71 71.800781 71 C 71.900781 71 71.999609 70.999609 72.099609 71.099609 C 72.199609 71.199609 72.399609 71.199609 72.599609 71.099609 C 72.799609 70.999609 72.900391 70.899219 72.900391 70.699219 C 73.000391 70.199219 73.400391 69.900391 73.900391 69.900391 z M 20.800781 70 C 20.500781 70 20.300781 70.2 20.300781 70.5 L 20.300781 78.5 C 20.300781 78.8 20.500781 79 20.800781 79 C 21.100781 79 21.300781 78.8 21.300781 78.5 L 21.300781 70.5 C 21.300781 70.2 21.100781 70 20.800781 70 z M 30.800781 70 C 30.500781 70 30.300781 70.2 30.300781 70.5 L 30.300781 78.5 C 30.300781 78.8 30.500781 79 30.800781 79 C 31.100781 79 31.300781 78.8 31.300781 78.5 L 31.300781 70.5 C 31.300781 70.2 31.100781 70 30.800781 70 z M 34.800781 70 C 34.500781 70 34.300781 70.2 34.300781 70.5 L 34.300781 78.5 C 34.300781 78.8 34.500781 79 34.800781 79 C 35.100781 79 35.300781 78.8 35.300781 78.5 L 35.300781 70.5 C 35.300781 70.2 35.100781 70 34.800781 70 z M 44.800781 70 C 44.500781 70 44.300781 70.2 44.300781 70.5 L 44.300781 78.5 C 44.300781 78.8 44.500781 79 44.800781 79 C 45.100781 79 45.300781 78.8 45.300781 78.5 L 45.300781 70.5 C 45.300781 70.2 45.100781 70 44.800781 70 z M 54.800781 70 C 54.500781 70 54.300781 70.2 54.300781 70.5 L 54.300781 78.5 C 54.300781 78.8 54.500781 79 54.800781 79 C 55.100781 79 55.300781 78.8 55.300781 78.5 L 55.300781 70.5 C 55.300781 70.2 55.100781 70 54.800781 70 z M 64.800781 70 C 64.500781 70 64.300781 70.2 64.300781 70.5 L 64.300781 78.5 C 64.300781 78.8 64.500781 79 64.800781 79 C 65.100781 79 65.300781 78.8 65.300781 78.5 L 65.300781 70.5 C 65.300781 70.2 65.100781 70 64.800781 70 z M 68.800781 70 C 68.500781 70 68.300781 70.2 68.300781 70.5 L 68.300781 78.5 C 68.300781 78.8 68.500781 79 68.800781 79 C 69.100781 79 69.300781 78.8 69.300781 78.5 L 69.300781 70.5 C 69.300781 70.2 69.100781 70 68.800781 70 z M 78.800781 70 C 78.500781 70 78.300781 70.2 78.300781 70.5 L 78.300781 78.5 C 78.300781 78.8 78.500781 79 78.800781 79 C 79.100781 79 79.300781 78.8 79.300781 78.5 L 79.300781 70.5 C 79.300781 70.2 79.100781 70 78.800781 70 z M 24.800781 73 C 24.500781 73 24.300781 73.2 24.300781 73.5 L 24.300781 77.5 C 24.300781 77.8 24.500781 78 24.800781 78 L 26.800781 78 C 27.100781 78 27.300781 77.8 27.300781 77.5 L 27.300781 73.5 C 27.300781 73.2 27.100781 73 26.800781 73 L 24.800781 73 z M 38.800781 73 C 38.500781 73 38.300781 73.2 38.300781 73.5 L 38.300781 77.5 C 38.300781 77.8 38.500781 78 38.800781 78 L 40.800781 78 C 41.100781 78 41.300781 77.8 41.300781 77.5 L 41.300781 73.5 C 41.300781 73.2 41.100781 73 40.800781 73 L 38.800781 73 z M 48.800781 73 C 48.500781 73 48.300781 73.2 48.300781 73.5 L 48.300781 77.5 C 48.300781 77.8 48.500781 78 48.800781 78 L 50.800781 78 C 51.100781 78 51.300781 77.8 51.300781 77.5 L 51.300781 73.5 C 51.300781 73.2 51.100781 73 50.800781 73 L 48.800781 73 z M 58.800781 73 C 58.500781 73 58.300781 73.2 58.300781 73.5 L 58.300781 77.5 C 58.300781 77.8 58.500781 78 58.800781 78 L 60.800781 78 C 61.100781 78 61.300781 77.8 61.300781 77.5 L 61.300781 73.5 C 61.300781 73.2 61.100781 73 60.800781 73 L 58.800781 73 z M 72.800781 73 C 72.500781 73 72.300781 73.2 72.300781 73.5 L 72.300781 77.5 C 72.300781 77.8 72.500781 78 72.800781 78 L 74.800781 78 C 75.100781 78 75.300781 77.8 75.300781 77.5 L 75.300781 73.5 C 75.300781 73.2 75.100781 73 74.800781 73 L 72.800781 73 z M 25.300781 74 L 26.300781 74 L 26.300781 77 L 25.300781 77 L 25.300781 74 z M 39.300781 74 L 40.300781 74 L 40.300781 77 L 39.300781 77 L 39.300781 74 z M 49.300781 74 L 50.300781 74 L 50.300781 77 L 49.300781 77 L 49.300781 74 z M 59.300781 74 L 60.300781 74 L 60.300781 77 L 59.300781 77 L 59.300781 74 z M 73.300781 74 L 74.300781 74 L 74.300781 77 L 73.300781 77 L 73.300781 74 z "/></svg>