<svg xmlns="http://www.w3.org/2000/svg" xmlns:xlink="http://www.w3.org/1999/xlink" id="Layer_1" enable-background="new 0 0 100 100" viewBox="0 0 100 100"><defs id="defs124"><linearGradient id="linearGradient4269"><stop id="stop4271" offset="0" stop-color="#000092"/><stop id="stop4273" offset="1" stop-color="#ff00f3"/></linearGradient><linearGradient id="linearGradient4275" x1="18.801" x2="78" y1="54" y2="54" gradientUnits="userSpaceOnUse" xlink:href="#linearGradient4269"/></defs><symbol id="navbar_x5F_icon_x5F_back_1_" viewBox="-1 -24 25 24"><g id="g6" opacity=".9"><g id="g10"><g id="g12"><path id="path14" fill="none" stroke="#fff" stroke-miterlimit="10" stroke-width="2" d="M18-19c0-0.4,0-0.5-0.3-0.3l-12,7c-0.3,0.2-0.2,0.5,0.1,0.6l11.9,7C18-4.5,18-4.7,18-5V-19z"/></g></g></g><rect id="rect16" width="24" height="24" y="-24" fill="none"/><rect id="rect18" width="25" height="24" x="-1" y="-24" fill="none" display="none"/></symbol><symbol id="navbar_x5F_icon_x5F_home_1_" viewBox="0 -24 24 24"><g id="g21" opacity=".9"><g id="XMLID_809_"><circle id="XMLID_814_" cx="12" cy="-12" r="6.9" fill="none" stroke="#fff" stroke-miterlimit="10" stroke-width="1.803"/></g></g><rect id="rect26" width="24" height="24" y="-24" fill="none"/><rect id="rect28" width="24" height="23" y="-24" fill="none" display="none"/></symbol><symbol id="navbar_x5F_icon_x5F_recents_1_" viewBox="0 -24 24 24"><g id="g31" opacity=".9"><g id="g35"><g id="g37"><path id="path39" fill="none" stroke="#fff" stroke-miterlimit="10" stroke-width="2" d="M19-5.7C19-5.4,18.6-5,18.2-5H5.8C5.4-5,5-5.4,5-5.7v-12.6C5-18.6,5.4-19,5.8-19h12.4      c0.4,0,0.8,0.4,0.8,0.7V-5.7z"/></g></g></g><rect id="rect41" width="24" height="24" y="-24" fill="none"/><rect id="rect43" width="24" height="23" y="-24" fill="none" display="none"/></symbol><symbol id="sysbar_x5F_status_2" viewBox="0 -24 360 24"><use id="XMLID_495_" width="360" height="24" y="-24" overflow="visible" xlink:href="#sysbar_x5F_status_x5F_used_x5F_light"/></symbol><symbol id="sysbar_x5F_status_x5F_used_x5F_light" viewBox="0 -24 360 24"><rect id="rect48" width="360" height="24" y="-24" fill="#010101" fill-opacity="0"/><g id="g50"><g id="g52" opacity=".9"><rect id="rect54" width="40" height="16" x="312" y="-21" fill="none"/></g><g id="g58"><g id="g60" opacity=".9"><path id="path62" fill="#fff" d="M266-19l8.8,10.9C274.5-7.8,271.1-5,266-5s-8.5-2.8-8.8-3.1L266-19L266-19L266-19L266-19L266-19z" opacity=".9"/></g><rect id="rect64" width="16" height="16" x="258" y="-20" fill="none"/></g><g id="g66"><polygon id="polygon68" fill="#fff" points="277 -19 291 -19 291 -5" opacity=".9"/><rect id="rect70" width="16" height="16" x="276" y="-20" fill="none"/></g><g id="g72"><rect id="rect74" width="16" height="16" x="296" y="-20" fill="none"/><path id="path76" fill="#fff" d="M306-6v1h-3v-1h-3v-13h9v13H306z" opacity=".9"/></g></g></symbol><path id="path98" fill="url(#linearGradient4275)" d="M 50.800781 25.5 C 50.500781 25.5 50.300781 25.7 50.300781 26 L 50.300781 29.5 C 49.300781 29.7 48.500781 30.5 48.300781 31.5 L 47.800781 31.5 C 47.500781 31.5 47.300781 31.7 47.300781 32 C 47.300781 32.3 47.500781 32.5 47.800781 32.5 L 48.300781 32.5 L 48.300781 35.900391 C 45.400781 36.900391 43.300391 39.4 42.900391 42.5 L 42.300781 42.5 C 42.000781 42.5 41.800781 42.7 41.800781 43 C 41.800781 43.3 42.000781 43.5 42.300781 43.5 L 42.800781 43.5 L 42.800781 45.5 L 41.300781 45.5 C 41.000781 45.5 40.800781 45.7 40.800781 46 L 40.800781 48 C 40.800781 48.3 41.000781 48.5 41.300781 48.5 L 42.699219 48.5 C 42.499219 49.6 41.500781 50.5 40.300781 50.5 L 39.800781 50.5 L 39.800781 49 C 39.800781 48.7 39.600781 48.5 39.300781 48.5 C 39.000781 48.5 38.800781 48.7 38.800781 49 L 38.800781 50.5 C 37.800781 50.7 37.000781 51.5 36.800781 52.5 L 36.300781 52.5 C 36.000781 52.5 35.800781 52.7 35.800781 53 C 35.800781 53.3 36.000781 53.5 36.300781 53.5 L 36.800781 53.5 L 36.800781 58.5 L 36.300781 58.5 C 36.000781 58.5 35.800781 58.7 35.800781 59 C 35.800781 59.3 36.000781 59.5 36.300781 59.5 L 36.800781 59.5 L 36.800781 60.5 L 28.800781 60.5 L 28.800781 59.5 L 29.300781 59.5 C 29.600781 59.5 29.800781 59.3 29.800781 59 C 29.800781 58.7 29.600781 58.5 29.300781 58.5 L 28.800781 58.5 L 28.800781 56.599609 L 28.800781 56 L 28.800781 55 C 28.800781 54.7 28.600781 54.5 28.300781 54.5 C 28.000781 54.5 27.800781 54.7 27.800781 55 L 27.800781 55.5 L 26.800781 55.5 L 26.800781 52.5 L 27.300781 52.5 C 27.600781 52.5 27.800781 52.3 27.800781 52 C 27.800781 51.7 27.600781 51.5 27.300781 51.5 L 26.800781 51.5 C 26.800781 50.6 26.200781 49.799609 25.300781 49.599609 L 25.300781 48 C 25.300781 47.7 25.100781 47.5 24.800781 47.5 C 24.500781 47.5 24.300781 47.7 24.300781 48 L 24.300781 49.599609 C 23.400781 49.799609 22.800781 50.6 22.800781 51.5 L 22.300781 51.5 C 22.000781 51.5 21.800781 51.7 21.800781 52 C 21.800781 52.3 22.000781 52.5 22.300781 52.5 L 22.800781 52.5 L 22.800781 55.5 L 21.800781 55.5 L 21.800781 55 C 21.800781 54.7 21.600781 54.5 21.300781 54.5 C 21.000781 54.5 20.800781 54.7 20.800781 55 L 20.800781 56 L 20.800781 56.599609 L 20.800781 58.5 L 20.300781 58.5 C 20.000781 58.5 19.800781 58.7 19.800781 59 C 19.800781 59.3 20.000781 59.5 20.300781 59.5 L 20.800781 59.5 L 20.800781 62.5 L 20.300781 62.5 C 20.000781 62.5 19.800781 62.7 19.800781 63 C 19.800781 63.3 20.000781 63.5 20.300781 63.5 L 20.800781 63.5 L 20.800781 71.5 L 20.300781 71.5 C 20.000781 71.5 19.800781 71.7 19.800781 72 C 19.800781 72.3 20.000781 72.5 20.300781 72.5 L 20.800781 72.5 L 20.800781 81.5 L 19.300781 81.5 C 19.000781 81.5 18.800781 81.7 18.800781 82 C 18.800781 82.3 19.000781 82.5 19.300781 82.5 L 21.300781 82.5 L 28.300781 82.5 L 37.300781 82.5 L 40.300781 82.5 L 43.300781 82.5 L 46.300781 82.5 L 55.300781 82.5 L 58.300781 82.5 L 61.300781 82.5 L 64.300781 82.5 L 73.300781 82.5 L 80.300781 82.5 L 82.300781 82.5 C 82.600781 82.5 82.800781 82.3 82.800781 82 C 82.800781 81.7 82.499219 81.5 82.199219 81.5 L 80.699219 81.5 L 80.699219 72.5 L 81.199219 72.5 C 81.499219 72.5 81.699219 72.3 81.699219 72 C 81.699219 71.7 81.499219 71.5 81.199219 71.5 L 80.699219 71.5 L 80.699219 63.5 L 81.199219 63.5 C 81.499219 63.5 81.699219 63.3 81.699219 63 C 81.699219 62.7 81.499219 62.5 81.199219 62.5 L 80.699219 62.5 L 80.699219 59.5 L 81.199219 59.5 C 81.499219 59.5 81.699219 59.3 81.699219 59 C 81.699219 58.7 81.499219 58.5 81.199219 58.5 L 80.699219 58.5 L 80.699219 56.599609 L 80.699219 56 L 80.699219 55 C 80.699219 54.7 80.499219 54.5 80.199219 54.5 C 79.899219 54.5 79.699219 54.7 79.699219 55 L 79.699219 55.5 L 78.699219 55.5 L 78.699219 52.5 L 79.199219 52.5 C 79.499219 52.5 79.699219 52.3 79.699219 52 C 79.699219 51.7 79.499219 51.5 79.199219 51.5 L 78.699219 51.5 C 78.699219 50.6 78.099219 49.799609 77.199219 49.599609 L 77.199219 48 C 77.199219 47.7 76.999219 47.5 76.699219 47.5 C 76.399219 47.5 76.199219 47.7 76.199219 48 L 76.199219 49.599609 C 75.299219 49.799609 74.699219 50.6 74.699219 51.5 L 74.199219 51.5 C 73.899219 51.5 73.699219 51.7 73.699219 52 C 73.699219 52.3 73.899219 52.5 74.199219 52.5 L 74.699219 52.5 L 74.699219 55.5 L 73.699219 55.5 L 73.699219 55 C 73.699219 54.7 73.499219 54.5 73.199219 54.5 C 72.899219 54.5 72.699219 54.7 72.699219 55 L 72.699219 56 L 72.699219 56.599609 L 72.699219 58.5 L 72.199219 58.5 C 71.899219 58.5 71.699219 58.7 71.699219 59 C 71.699219 59.3 71.899219 59.5 72.199219 59.5 L 72.699219 59.5 L 72.699219 60.5 L 64.699219 60.5 L 64.699219 59.5 L 65.199219 59.5 C 65.499219 59.5 65.699219 59.3 65.699219 59 C 65.699219 58.7 65.499219 58.5 65.199219 58.5 L 64.699219 58.5 L 64.699219 53.5 L 65.199219 53.5 C 65.499219 53.5 65.699219 53.3 65.699219 53 C 65.699219 52.7 65.499219 52.5 65.199219 52.5 L 64.699219 52.5 C 64.499219 51.5 63.699219 50.7 62.699219 50.5 L 62.699219 49 C 62.699219 48.7 62.499219 48.5 62.199219 48.5 C 61.899219 48.5 61.699219 48.7 61.699219 49 L 61.699219 50.5 L 61.199219 50.5 C 59.999219 50.5 59.000781 49.6 58.800781 48.5 L 60.199219 48.5 C 60.499219 48.5 60.699219 48.3 60.699219 48 L 60.699219 46 C 60.699219 45.7 60.499219 45.5 60.199219 45.5 L 58.699219 45.5 L 58.699219 43.5 L 59.199219 43.5 C 59.499219 43.5 59.699219 43.3 59.699219 43 C 59.699219 42.7 59.499219 42.5 59.199219 42.5 L 58.699219 42.5 C 58.299219 39.4 56.200781 36.900391 53.300781 35.900391 L 53.300781 32.5 L 53.800781 32.5 C 54.100781 32.5 54.300781 32.3 54.300781 32 C 54.300781 31.7 54.100781 31.5 53.800781 31.5 L 53.300781 31.5 C 53.100781 30.5 52.300781 29.7 51.300781 29.5 L 51.300781 26 C 51.300781 25.7 51.100781 25.5 50.800781 25.5 z M 50.699219 30.5 C 51.399219 30.5 51.899609 30.9 52.099609 31.5 L 49.300781 31.5 C 49.500781 30.9 49.999219 30.5 50.699219 30.5 z M 49.199219 32.5 L 52.199219 32.5 L 52.199219 35.599609 C 51.899219 35.499609 51.499219 35.5 51.199219 35.5 L 51.199219 35.400391 L 51.199219 34 C 51.199219 33.7 50.999219 33.5 50.699219 33.5 C 50.399219 33.5 50.199219 33.7 50.199219 34 L 50.199219 35.400391 L 50.199219 35.5 C 49.899219 35.5 49.499219 35.599609 49.199219 35.599609 L 49.199219 32.5 z M 50.699219 36.5 C 54.199219 36.5 57.099609 39.1 57.599609 42.5 L 43.800781 42.5 C 44.300781 39.1 47.199219 36.5 50.699219 36.5 z M 43.699219 43.5 L 44.699219 43.5 L 44.699219 45.5 L 43.699219 45.5 L 43.699219 43.5 z M 45.699219 43.5 L 47.699219 43.5 L 47.699219 45.5 L 45.699219 45.5 L 45.699219 43.5 z M 48.699219 43.5 L 52.699219 43.5 L 52.699219 45.5 L 48.699219 45.5 L 48.699219 43.5 z M 53.699219 43.5 L 55.699219 43.5 L 55.699219 45.5 L 53.699219 45.5 L 53.699219 43.5 z M 56.699219 43.5 L 57.699219 43.5 L 57.699219 45.5 L 56.699219 45.5 L 56.699219 43.5 z M 50.699219 44 A 0.5 0.5 0 0 0 50.199219 44.5 A 0.5 0.5 0 0 0 50.699219 45 A 0.5 0.5 0 0 0 51.199219 44.5 A 0.5 0.5 0 0 0 50.699219 44 z M 41.699219 46.5 L 59.699219 46.5 L 59.699219 47.5 L 41.699219 47.5 L 41.699219 46.5 z M 43.699219 48.5 L 44.800781 48.5 L 44.800781 52.5 L 44.300781 52.5 C 44.000781 52.5 43.800781 52.7 43.800781 53 C 43.800781 53.3 44.000781 53.5 44.300781 53.5 L 47.800781 53.5 L 47.800781 54.5 L 46.300781 54.5 L 43.300781 54.5 C 43.000781 54.5 42.800781 54.7 42.800781 55 L 42.800781 57.5 L 41.800781 57.5 L 41.800781 53.5 L 42.300781 53.5 C 42.600781 53.5 42.800781 53.3 42.800781 53 C 42.800781 52.7 42.600781 52.5 42.300781 52.5 L 41.800781 52.5 C 41.700781 52.1 41.499219 51.700391 41.199219 51.400391 C 42.399219 51.000391 43.499219 49.9 43.699219 48.5 z M 45.699219 48.5 L 46.699219 48.5 L 46.699219 52.5 L 45.699219 52.5 L 45.699219 48.5 z M 47.699219 48.5 L 53.699219 48.5 L 53.699219 52.5 L 53.199219 52.5 L 52.699219 52.5 L 52.699219 51.400391 C 52.699219 50.300391 51.799219 49.400391 50.699219 49.400391 C 49.599219 49.400391 48.699219 50.300391 48.699219 51.400391 L 48.699219 52.5 L 48.199219 52.5 L 47.699219 52.5 L 47.699219 48.5 z M 54.699219 48.5 L 55.699219 48.5 L 55.699219 52.5 L 54.699219 52.5 L 54.699219 48.5 z M 56.699219 48.5 L 57.800781 48.5 C 58.000781 49.9 59.000781 51.000391 60.300781 51.400391 C 60.000781 51.700391 59.799219 52.1 59.699219 52.5 L 59.199219 52.5 C 58.899219 52.5 58.699219 52.7 58.699219 53 C 58.699219 53.3 58.899219 53.5 59.199219 53.5 L 59.699219 53.5 L 59.699219 57.5 L 58.699219 57.5 L 58.699219 55 C 58.699219 54.7 58.499219 54.5 58.199219 54.5 L 55.199219 54.5 L 53.699219 54.5 L 53.699219 53.5 L 57.199219 53.5 C 57.499219 53.5 57.699219 53.3 57.699219 53 C 57.699219 52.7 57.499219 52.5 57.199219 52.5 L 56.699219 52.5 L 56.699219 48.5 z M 50.699219 50.400391 C 51.299219 50.400391 51.699219 50.800391 51.699219 51.400391 L 51.699219 52.5 L 49.699219 52.5 L 49.699219 51.400391 C 49.699219 50.800391 50.099219 50.400391 50.699219 50.400391 z M 24.699219 50.5 C 25.299219 50.5 25.699219 50.9 25.699219 51.5 L 23.699219 51.5 C 23.699219 50.9 24.099219 50.5 24.699219 50.5 z M 76.699219 50.5 C 77.299219 50.5 77.699219 50.9 77.699219 51.5 L 75.699219 51.5 C 75.699219 50.9 76.199219 50.5 76.699219 50.5 z M 39.199219 51.5 C 39.899219 51.5 40.399609 51.9 40.599609 52.5 L 37.800781 52.5 C 38.000781 51.9 38.599219 51.5 39.199219 51.5 z M 62.199219 51.5 C 62.799219 51.5 63.399609 51.9 63.599609 52.5 L 60.800781 52.5 C 61.000781 51.9 61.599219 51.5 62.199219 51.5 z M 23.699219 52.5 L 25.699219 52.5 L 25.699219 55.5 L 23.699219 55.5 L 23.699219 52.5 z M 75.699219 52.5 L 77.699219 52.5 L 77.699219 55.5 L 75.699219 55.5 L 75.699219 52.5 z M 37.699219 53.5 L 40.699219 53.5 L 40.699219 58 L 40.699219 58.5 L 39.699219 58.5 L 39.699219 58.400391 L 39.699219 56 C 39.699219 55.7 39.499219 55.5 39.199219 55.5 C 38.899219 55.5 38.699219 55.7 38.699219 56 L 38.699219 58.400391 L 38.699219 58.5 L 37.699219 58.5 L 37.699219 53.5 z M 48.699219 53.5 L 52.699219 53.5 L 52.699219 54.5 L 48.699219 54.5 L 48.699219 53.5 z M 60.699219 53.5 L 63.699219 53.5 L 63.699219 58.5 L 62.699219 58.5 L 62.699219 58.400391 L 62.699219 56 C 62.699219 55.7 62.499219 55.5 62.199219 55.5 C 61.899219 55.5 61.699219 55.7 61.699219 56 L 61.699219 58.400391 L 61.699219 58.5 L 60.699219 58.5 L 60.699219 58 L 60.699219 57.900391 L 60.699219 53.5 z M 43.699219 55.5 L 45.699219 55.5 L 45.699219 57.5 L 43.699219 57.5 L 43.699219 55.5 z M 46.699219 55.5 L 48.199219 55.5 L 53.199219 55.5 L 54.699219 55.5 L 54.699219 57.5 L 46.699219 57.5 L 46.699219 55.5 z M 55.699219 55.5 L 57.699219 55.5 L 57.699219 57.5 L 55.699219 57.5 L 55.699219 55.5 z M 23.099609 56.5 L 26.099609 56.5 L 27.599609 56.5 L 27.599609 56.599609 L 27.599609 58.5 L 21.599609 58.5 L 21.599609 56.599609 L 21.699219 56.599609 L 23.099609 56.5 z M 75.199219 56.5 L 78.199219 56.5 L 79.599609 56.5 L 79.599609 56.599609 L 79.599609 58.5 L 73.599609 58.5 L 73.599609 56.599609 L 73.699219 56.599609 L 75.199219 56.5 z M 41.699219 58.5 L 43.199219 58.5 L 46.199219 58.5 L 55.199219 58.5 L 58.199219 58.5 L 59.699219 58.5 L 59.699219 59 L 59.699219 59.099609 L 59.699219 59.5 L 58.199219 59.5 L 55.199219 59.5 L 46.199219 59.5 L 43.199219 59.5 L 41.699219 59.5 L 41.699219 59 L 41.699219 58.5 z M 21.699219 59.5 L 27.699219 59.5 L 27.699219 61 L 27.699219 62.5 L 21.699219 62.5 L 21.699219 59.5 z M 37.699219 59.5 L 40.699219 59.5 L 40.699219 60 C 40.699219 60.3 40.899219 60.5 41.199219 60.5 L 42.699219 60.5 L 42.699219 62.5 L 40.199219 62.5 L 37.699219 62.5 L 37.699219 61 L 37.699219 59.5 z M 60.699219 59.5 L 63.699219 59.5 L 63.699219 61 L 63.699219 62.5 L 61.199219 62.5 L 58.699219 62.5 L 58.699219 60.5 L 60.199219 60.5 C 60.499219 60.5 60.699219 60.3 60.699219 60 L 60.699219 59.5 z M 73.699219 59.5 L 79.699219 59.5 L 79.699219 62.5 L 73.699219 62.5 L 73.699219 61 L 73.699219 59.5 z M 24.699219 60.5 A 0.5 0.5 0 0 0 24.199219 61 A 0.5 0.5 0 0 0 24.699219 61.5 A 0.5 0.5 0 0 0 25.199219 61 A 0.5 0.5 0 0 0 24.699219 60.5 z M 43.699219 60.5 L 45.699219 60.5 L 45.699219 62.5 L 43.699219 62.5 L 43.699219 60.5 z M 46.699219 60.5 L 54.699219 60.5 L 54.699219 62.5 L 53.199219 62.5 L 48.199219 62.5 L 46.699219 62.5 L 46.699219 60.5 z M 55.699219 60.5 L 57.699219 60.5 L 57.699219 62.5 L 55.699219 62.5 L 55.699219 60.5 z M 76.699219 60.5 A 0.5 0.5 0 0 0 76.199219 61 A 0.5 0.5 0 0 0 76.699219 61.5 A 0.5 0.5 0 0 0 77.199219 61 A 0.5 0.5 0 0 0 76.699219 60.5 z M 28.699219 61.5 L 36.699219 61.5 L 36.699219 62.5 L 36.199219 62.5 C 35.899219 62.5 35.699219 62.7 35.699219 63 C 35.699219 63.3 35.899219 63.5 36.199219 63.5 L 36.699219 63.5 L 36.699219 64.5 L 28.699219 64.5 L 28.699219 63.5 L 29.199219 63.5 C 29.499219 63.5 29.699219 63.3 29.699219 63 C 29.699219 62.7 29.499219 62.5 29.199219 62.5 L 28.699219 62.5 L 28.699219 61.5 z M 64.699219 61.5 L 72.699219 61.5 L 72.699219 62.5 L 72.199219 62.5 C 71.899219 62.5 71.699219 62.7 71.699219 63 C 71.699219 63.3 71.899219 63.5 72.199219 63.5 L 72.699219 63.5 L 72.699219 64.5 L 64.699219 64.5 L 64.699219 63.5 L 65.199219 63.5 C 65.499219 63.5 65.699219 63.3 65.699219 63 C 65.699219 62.7 65.499219 62.5 65.199219 62.5 L 64.699219 62.5 L 64.699219 61.5 z M 21.699219 63.5 L 27.699219 63.5 L 27.699219 65 L 27.699219 71.5 L 21.699219 71.5 L 21.699219 63.5 z M 37.699219 63.5 L 39.699219 63.5 L 39.699219 67.5 L 39.699219 70 L 39.699219 74.5 L 39.699219 77 L 39.699219 81.5 L 37.699219 81.5 L 37.699219 65 L 37.699219 63.5 z M 40.699219 63.5 L 42.699219 63.5 L 42.699219 65.800781 C 42.399219 65.600781 42.099219 65.5 41.699219 65.5 C 41.299219 65.5 40.999219 65.600781 40.699219 65.800781 L 40.699219 63.5 z M 43.699219 63.5 L 45.699219 63.5 L 45.699219 69.5 L 45.699219 78.5 L 45.699219 81.5 L 43.699219 81.5 L 43.699219 77 L 43.699219 74.5 L 43.699219 70 L 43.699219 67.5 L 43.699219 63.5 z M 46.699219 63.5 L 48.199219 63.5 L 53.199219 63.5 L 54.699219 63.5 L 54.699219 66.5 C 53.799219 65.3 52.399219 64.5 50.699219 64.5 C 49.099219 64.5 47.599219 65.3 46.699219 66.5 L 46.699219 63.5 z M 55.699219 63.5 L 57.699219 63.5 L 57.699219 67.5 L 57.699219 70 L 57.699219 74.5 L 57.699219 77 L 57.699219 81.5 L 55.699219 81.5 L 55.699219 78.5 L 55.699219 69.5 L 55.699219 63.5 z M 58.699219 63.5 L 60.699219 63.5 L 60.699219 65.800781 C 60.399219 65.600781 60.099219 65.5 59.699219 65.5 C 59.299219 65.5 58.999219 65.600781 58.699219 65.800781 L 58.699219 63.5 z M 61.699219 63.5 L 63.699219 63.5 L 63.699219 65 L 63.699219 81.5 L 61.699219 81.5 L 61.699219 77 L 61.699219 74.5 L 61.699219 70 L 61.699219 67.5 L 61.699219 63.5 z M 73.699219 63.5 L 79.699219 63.5 L 79.699219 71.5 L 73.699219 71.5 L 73.699219 65 L 73.699219 63.5 z M 23.199219 64.5 C 22.899219 64.5 22.699219 64.7 22.699219 65 L 22.699219 69 C 22.699219 69.3 22.899219 69.5 23.199219 69.5 L 26.199219 69.5 C 26.499219 69.5 26.699219 69.3 26.699219 69 L 26.699219 65 C 26.699219 64.7 26.499219 64.5 26.199219 64.5 L 23.199219 64.5 z M 75.199219 64.5 C 74.899219 64.5 74.699219 64.7 74.699219 65 L 74.699219 69 C 74.699219 69.3 74.899219 69.5 75.199219 69.5 L 78.199219 69.5 C 78.499219 69.5 78.699219 69.3 78.699219 69 L 78.699219 65 C 78.699219 64.7 78.499219 64.5 78.199219 64.5 L 75.199219 64.5 z M 23.699219 65.5 L 25.699219 65.5 L 25.699219 66.5 L 23.699219 66.5 L 23.699219 65.5 z M 28.699219 65.5 L 36.699219 65.5 L 36.699219 81.5 L 28.699219 81.5 L 28.699219 72.5 L 29.199219 72.5 C 29.499219 72.5 29.699219 72.3 29.699219 72 C 29.699219 71.7 29.499219 71.5 29.199219 71.5 L 28.699219 71.5 L 28.699219 65.5 z M 50.699219 65.5 C 52.899219 65.5 54.699219 67.3 54.699219 69.5 L 54.699219 78.5 L 54.699219 81.5 L 46.699219 81.5 L 46.699219 78.5 L 46.699219 69.5 C 46.699219 67.3 48.499219 65.5 50.699219 65.5 z M 64.699219 65.5 L 72.699219 65.5 L 72.699219 71.5 L 72.199219 71.5 C 71.899219 71.5 71.699219 71.7 71.699219 72 C 71.699219 72.3 71.899219 72.5 72.199219 72.5 L 72.699219 72.5 L 72.699219 81.5 L 64.699219 81.5 L 64.699219 65.5 z M 75.699219 65.5 L 77.699219 65.5 L 77.699219 66.5 L 75.699219 66.5 L 75.699219 65.5 z M 31.199219 66.5 C 30.899219 66.5 30.699219 66.7 30.699219 67 L 30.699219 71 C 30.699219 71.3 30.899219 71.5 31.199219 71.5 L 34.199219 71.5 C 34.499219 71.5 34.699219 71.3 34.699219 71 L 34.699219 67 C 34.699219 66.7 34.499219 66.5 34.199219 66.5 L 31.199219 66.5 z M 41.699219 66.5 C 42.299219 66.5 42.699219 66.9 42.699219 67.5 L 42.699219 69.5 L 40.699219 69.5 L 40.699219 67.5 C 40.699219 66.9 41.099219 66.5 41.699219 66.5 z M 59.699219 66.5 C 60.299219 66.5 60.699219 66.9 60.699219 67.5 L 60.699219 69.5 L 58.699219 69.5 L 58.699219 67.5 C 58.699219 66.9 59.099219 66.5 59.699219 66.5 z M 67.199219 66.5 C 66.899219 66.5 66.699219 66.7 66.699219 67 L 66.699219 71 C 66.699219 71.3 66.899219 71.5 67.199219 71.5 L 70.199219 71.5 C 70.499219 71.5 70.699219 71.3 70.699219 71 L 70.699219 67 C 70.699219 66.7 70.499219 66.5 70.199219 66.5 L 67.199219 66.5 z M 23.699219 67.5 L 25.699219 67.5 L 25.699219 68.5 L 23.699219 68.5 L 23.699219 67.5 z M 31.699219 67.5 L 33.699219 67.5 L 33.699219 68.5 L 31.699219 68.5 L 31.699219 67.5 z M 67.699219 67.5 L 69.699219 67.5 L 69.699219 68.5 L 67.699219 68.5 L 67.699219 67.5 z M 75.699219 67.5 L 77.699219 67.5 L 77.699219 68.5 L 75.699219 68.5 L 75.699219 67.5 z M 31.699219 69.5 L 33.699219 69.5 L 33.699219 70.5 L 31.699219 70.5 L 31.699219 69.5 z M 67.699219 69.5 L 69.699219 69.5 L 69.699219 70.5 L 67.699219 70.5 L 67.699219 69.5 z M 40.699219 70.5 L 42.699219 70.5 L 42.699219 72.800781 C 42.399219 72.600781 42.099219 72.5 41.699219 72.5 C 41.299219 72.5 40.999219 72.600781 40.699219 72.800781 L 40.699219 70.5 z M 58.699219 70.5 L 60.699219 70.5 L 60.699219 72.800781 C 60.399219 72.600781 60.099219 72.5 59.699219 72.5 C 59.299219 72.5 58.999219 72.600781 58.699219 72.800781 L 58.699219 70.5 z M 21.699219 72.5 L 27.699219 72.5 L 27.699219 81.5 L 21.699219 81.5 L 21.699219 72.5 z M 73.699219 72.5 L 79.699219 72.5 L 79.699219 81.5 L 73.699219 81.5 L 73.699219 72.5 z M 23.199219 73.5 C 22.899219 73.5 22.699219 73.7 22.699219 74 L 22.699219 78 C 22.699219 78.3 22.899219 78.5 23.199219 78.5 L 26.199219 78.5 C 26.499219 78.5 26.699219 78.3 26.699219 78 L 26.699219 74 C 26.699219 73.7 26.499219 73.5 26.199219 73.5 L 23.199219 73.5 z M 31.199219 73.5 C 30.899219 73.5 30.699219 73.7 30.699219 74 L 30.699219 78 C 30.699219 78.3 30.899219 78.5 31.199219 78.5 L 34.199219 78.5 C 34.499219 78.5 34.699219 78.3 34.699219 78 L 34.699219 74 C 34.699219 73.7 34.499219 73.5 34.199219 73.5 L 31.199219 73.5 z M 41.699219 73.5 C 42.299219 73.5 42.699219 73.9 42.699219 74.5 L 42.699219 76.5 L 40.699219 76.5 L 40.699219 74.5 C 40.699219 73.9 41.099219 73.5 41.699219 73.5 z M 59.699219 73.5 C 60.299219 73.5 60.699219 73.9 60.699219 74.5 L 60.699219 76.5 L 58.699219 76.5 L 58.699219 74.5 C 58.699219 73.9 59.099219 73.5 59.699219 73.5 z M 67.199219 73.5 C 66.899219 73.5 66.699219 73.7 66.699219 74 L 66.699219 78 C 66.699219 78.3 66.899219 78.5 67.199219 78.5 L 70.199219 78.5 C 70.499219 78.5 70.699219 78.3 70.699219 78 L 70.699219 74 C 70.699219 73.7 70.499219 73.5 70.199219 73.5 L 67.199219 73.5 z M 75.199219 73.5 C 74.899219 73.5 74.699219 73.7 74.699219 74 L 74.699219 78 C 74.699219 78.3 74.899219 78.5 75.199219 78.5 L 78.199219 78.5 C 78.499219 78.5 78.699219 78.3 78.699219 78 L 78.699219 74 C 78.699219 73.7 78.499219 73.5 78.199219 73.5 L 75.199219 73.5 z M 23.699219 74.5 L 25.699219 74.5 L 25.699219 77.5 L 23.699219 77.5 L 23.699219 74.5 z M 31.699219 74.5 L 33.699219 74.5 L 33.699219 75.5 L 31.699219 75.5 L 31.699219 74.5 z M 67.699219 74.5 L 69.699219 74.5 L 69.699219 75.5 L 67.699219 75.5 L 67.699219 74.5 z M 75.699219 74.5 L 77.699219 74.5 L 77.699219 77.5 L 75.699219 77.5 L 75.699219 74.5 z M 31.699219 76.5 L 33.699219 76.5 L 33.699219 77.5 L 31.699219 77.5 L 31.699219 76.5 z M 67.699219 76.5 L 69.699219 76.5 L 69.699219 77.5 L 67.699219 77.5 L 67.699219 76.5 z M 40.699219 77.5 L 42.699219 77.5 L 42.699219 81.5 L 40.699219 81.5 L 40.699219 77.5 z M 58.699219 77.5 L 60.699219 77.5 L 60.699219 81.5 L 58.699219 81.5 L 58.699219 77.5 z "/></svg>